<mxfile host="app.diagrams.net" agent="Mozilla/5.0 (X11; Linux x86_64) AppleWebKit/537.36 (KHTML, like Gecko) Chrome/129.0.0.0 Safari/537.36" version="24.7.17">
  <diagram name="Página-1" id="Yk_gpLm_n8Cv-Fs65jgw">
    <mxGraphModel dx="1042" dy="1412" grid="1" gridSize="10" guides="1" tooltips="1" connect="1" arrows="1" fold="1" page="1" pageScale="1" pageWidth="1169" pageHeight="827" background="none" math="0" shadow="0">
      <root>
        <mxCell id="0" />
        <mxCell id="1" parent="0" />
        <mxCell id="FFLHVGz7DOYZqucH-CmQ-6" style="edgeStyle=orthogonalEdgeStyle;rounded=0;orthogonalLoop=1;jettySize=auto;html=1;entryX=0;entryY=0.5;entryDx=0;entryDy=0;" edge="1" parent="1" source="FFLHVGz7DOYZqucH-CmQ-1" target="FFLHVGz7DOYZqucH-CmQ-2">
          <mxGeometry relative="1" as="geometry" />
        </mxCell>
        <mxCell id="FFLHVGz7DOYZqucH-CmQ-1" value="Raw Data&lt;div&gt;Dados Brutos&lt;/div&gt;" style="rounded=0;whiteSpace=wrap;html=1;" vertex="1" parent="1">
          <mxGeometry x="140" y="-147.5" width="120" height="60" as="geometry" />
        </mxCell>
        <mxCell id="FFLHVGz7DOYZqucH-CmQ-2" value="Scaled Data&lt;div&gt;Dimensionamento de dados&lt;/div&gt;" style="rounded=0;whiteSpace=wrap;html=1;" vertex="1" parent="1">
          <mxGeometry x="320" y="-147.5" width="140" height="60" as="geometry" />
        </mxCell>
        <mxCell id="FFLHVGz7DOYZqucH-CmQ-3" value="New Data&lt;div&gt;Dados Novos&lt;/div&gt;" style="rounded=0;whiteSpace=wrap;html=1;" vertex="1" parent="1">
          <mxGeometry x="680" y="112.5" width="120" height="60" as="geometry" />
        </mxCell>
        <mxCell id="FFLHVGz7DOYZqucH-CmQ-10" style="edgeStyle=orthogonalEdgeStyle;rounded=0;orthogonalLoop=1;jettySize=auto;html=1;" edge="1" parent="1" source="FFLHVGz7DOYZqucH-CmQ-4" target="FFLHVGz7DOYZqucH-CmQ-5">
          <mxGeometry relative="1" as="geometry">
            <Array as="points">
              <mxPoint x="570" y="-14.5" />
            </Array>
          </mxGeometry>
        </mxCell>
        <mxCell id="FFLHVGz7DOYZqucH-CmQ-4" value="Build Model&lt;div&gt;Construir Modelo&lt;/div&gt;" style="ellipse;whiteSpace=wrap;html=1;aspect=fixed;rounded=0;" vertex="1" parent="1">
          <mxGeometry x="520" y="-170" width="105" height="105" as="geometry" />
        </mxCell>
        <mxCell id="FFLHVGz7DOYZqucH-CmQ-8" style="edgeStyle=orthogonalEdgeStyle;rounded=0;orthogonalLoop=1;jettySize=auto;html=1;entryX=1;entryY=0.5;entryDx=0;entryDy=0;" edge="1" parent="1" source="FFLHVGz7DOYZqucH-CmQ-5" target="FFLHVGz7DOYZqucH-CmQ-4">
          <mxGeometry relative="1" as="geometry">
            <Array as="points">
              <mxPoint x="740" y="-117.5" />
            </Array>
          </mxGeometry>
        </mxCell>
        <mxCell id="FFLHVGz7DOYZqucH-CmQ-9" value="Analyze&lt;br&gt;Analizar" style="edgeLabel;html=1;align=center;verticalAlign=middle;resizable=0;points=[];rounded=0;" vertex="1" connectable="0" parent="FFLHVGz7DOYZqucH-CmQ-8">
          <mxGeometry x="0.2944" y="1" relative="1" as="geometry">
            <mxPoint as="offset" />
          </mxGeometry>
        </mxCell>
        <mxCell id="FFLHVGz7DOYZqucH-CmQ-11" value="Apply Model&lt;div&gt;Aplicar Modelo&lt;/div&gt;" style="edgeStyle=orthogonalEdgeStyle;rounded=0;orthogonalLoop=1;jettySize=auto;html=1;exitX=0.5;exitY=1;exitDx=0;exitDy=0;entryX=0.5;entryY=0;entryDx=0;entryDy=0;" edge="1" parent="1" source="FFLHVGz7DOYZqucH-CmQ-5" target="FFLHVGz7DOYZqucH-CmQ-3">
          <mxGeometry relative="1" as="geometry" />
        </mxCell>
        <mxCell id="FFLHVGz7DOYZqucH-CmQ-5" value="Validade&lt;div&gt;Validar&lt;/div&gt;" style="rhombus;whiteSpace=wrap;html=1;rounded=0;" vertex="1" parent="1">
          <mxGeometry x="680" y="-65" width="120" height="100" as="geometry" />
        </mxCell>
        <mxCell id="FFLHVGz7DOYZqucH-CmQ-7" style="edgeStyle=orthogonalEdgeStyle;rounded=0;orthogonalLoop=1;jettySize=auto;html=1;entryX=0;entryY=0.5;entryDx=0;entryDy=0;" edge="1" parent="1" source="FFLHVGz7DOYZqucH-CmQ-2" target="FFLHVGz7DOYZqucH-CmQ-4">
          <mxGeometry relative="1" as="geometry">
            <Array as="points">
              <mxPoint x="500" y="-117.5" />
              <mxPoint x="500" y="-117.5" />
            </Array>
          </mxGeometry>
        </mxCell>
        <mxCell id="FFLHVGz7DOYZqucH-CmQ-13" value="&lt;span style=&quot;color: rgb(0, 0, 0); font-family: Helvetica; font-size: 12px; font-style: normal; font-variant-ligatures: normal; font-variant-caps: normal; font-weight: 400; letter-spacing: normal; orphans: 2; text-align: center; text-indent: 0px; text-transform: none; widows: 2; word-spacing: 0px; -webkit-text-stroke-width: 0px; white-space: normal; background-color: rgb(251, 251, 251); text-decoration-thickness: initial; text-decoration-style: initial; text-decoration-color: initial; display: inline !important; float: none;&quot;&gt;ESP32&lt;/span&gt;" style="rounded=0;whiteSpace=wrap;html=1;" vertex="1" parent="1">
          <mxGeometry x="410" y="401" width="60" height="26" as="geometry" />
        </mxCell>
        <mxCell id="FFLHVGz7DOYZqucH-CmQ-14" value="TF Lite" style="rounded=0;whiteSpace=wrap;html=1;" vertex="1" parent="1">
          <mxGeometry x="190" y="290" width="280" height="30" as="geometry" />
        </mxCell>
        <mxCell id="FFLHVGz7DOYZqucH-CmQ-16" value="Treino" style="rounded=0;whiteSpace=wrap;html=1;" vertex="1" parent="1">
          <mxGeometry x="80" y="330" width="60" height="40" as="geometry" />
        </mxCell>
        <mxCell id="FFLHVGz7DOYZqucH-CmQ-20" value="Conversão" style="rounded=0;whiteSpace=wrap;html=1;" vertex="1" parent="1">
          <mxGeometry x="190" y="330" width="60" height="40" as="geometry" />
        </mxCell>
        <mxCell id="FFLHVGz7DOYZqucH-CmQ-21" value="Otimização" style="rounded=0;whiteSpace=wrap;html=1;" vertex="1" parent="1">
          <mxGeometry x="290" y="330" width="80" height="40" as="geometry" />
        </mxCell>
        <mxCell id="FFLHVGz7DOYZqucH-CmQ-22" value="Deploy" style="rounded=0;whiteSpace=wrap;html=1;" vertex="1" parent="1">
          <mxGeometry x="410" y="330" width="60" height="40" as="geometry" />
        </mxCell>
        <mxCell id="FFLHVGz7DOYZqucH-CmQ-23" value="TF" style="rounded=0;whiteSpace=wrap;html=1;" vertex="1" parent="1">
          <mxGeometry x="80" y="290" width="60" height="30" as="geometry" />
        </mxCell>
        <mxCell id="FFLHVGz7DOYZqucH-CmQ-29" style="edgeStyle=orthogonalEdgeStyle;rounded=0;orthogonalLoop=1;jettySize=auto;html=1;exitX=1;exitY=0.5;exitDx=0;exitDy=0;entryX=0;entryY=0.5;entryDx=0;entryDy=0;" edge="1" parent="1" source="FFLHVGz7DOYZqucH-CmQ-26" target="FFLHVGz7DOYZqucH-CmQ-28">
          <mxGeometry relative="1" as="geometry" />
        </mxCell>
        <mxCell id="FFLHVGz7DOYZqucH-CmQ-26" value="Input" style="rounded=0;whiteSpace=wrap;html=1;" vertex="1" parent="1">
          <mxGeometry x="60" y="500" width="120" height="60" as="geometry" />
        </mxCell>
        <mxCell id="FFLHVGz7DOYZqucH-CmQ-27" value="Output" style="rounded=0;whiteSpace=wrap;html=1;" vertex="1" parent="1">
          <mxGeometry x="360" y="500" width="120" height="60" as="geometry" />
        </mxCell>
        <mxCell id="FFLHVGz7DOYZqucH-CmQ-30" style="edgeStyle=orthogonalEdgeStyle;rounded=0;orthogonalLoop=1;jettySize=auto;html=1;entryX=0;entryY=0.5;entryDx=0;entryDy=0;" edge="1" parent="1" source="FFLHVGz7DOYZqucH-CmQ-28" target="FFLHVGz7DOYZqucH-CmQ-27">
          <mxGeometry relative="1" as="geometry" />
        </mxCell>
        <mxCell id="FFLHVGz7DOYZqucH-CmQ-28" value="F(X)" style="rounded=1;whiteSpace=wrap;html=1;" vertex="1" parent="1">
          <mxGeometry x="240" y="505" width="70" height="50" as="geometry" />
        </mxCell>
        <mxCell id="FFLHVGz7DOYZqucH-CmQ-34" value="" style="shape=image;verticalLabelPosition=bottom;labelBackgroundColor=default;verticalAlign=top;aspect=fixed;imageAspect=0;image=data:image/png,iVBORw0KGgoAAAANSUhEUgAAAzEAAAD3CAYAAAAtz9q0AAAABHNCSVQICAgIfAhkiAAAABl0RVh0U29mdHdhcmUAZ25vbWUtc2NyZWVuc2hvdO8Dvz4AACAASURBVHic7L15nCxXeZj91N7V6yx37qp7rwTiCguwcIxkWVhmNcYJxIkhtgGBLENwcAyOEzDgLybJZ/tLQpwQx7HZbCFZRmATxGY5LBJIRhuLNrSg5aK76a6zT6/V3VXn+6P61FT3dM/0zJ2Zrp45z+830zPd1adOvec973nP9h6t0WgI0zRRKBQKhSLOmTNnOHXqFEEQsGvXLvbt24cQglOnTnH27FkMw+DAgQOMjY0RBAHHjh1j//79WJbV9z2mp6c5fPgwQghs2+bgwYOMjY1x6tQpLMvCtm2eeeYZgiBg79697Nmzh/n5eQ4fPkw+n2dkZATP89i3bx+apjE9Pc3Ro0exbZvnPve5ZDKZtvsJIXj22WfJZDKMjIxw9uxZTp48iaZpHDhwgPHxcRYWFjh69CjNZpPnPOc5NJtNKpUK+/fvp1qtMjk5yYEDBzAMY71FrlCsMwLQBp0JhWJD0FQnRqFQKBQKhUKhUAwT+qAzoFAoFAqFQqFQKBSrwZycnETTNHbv3j3ovPSFEALf9wedDYVCoVAoFAqFQrHBCCEwDANd1/E8j9nZWWAIl5OdO3eOG2+8Ecuy0DS1zlORPIQQSjcViULTNIIgiP5WKJKEtJmapiGEGHR2FApg0W4qmzlYdF1namqKK6+8kle/+tVtey6Hp/fSolKpMDo6ystf/nIKhQLpdHrQWeoLtbVue9BsNpmcnGRkZATXdQedHYUi4syZMziOw+jo6KCzolC0MT09jWEYjIyMDDorCkUbR48eZWJiYkmAEMXmcvfdd3PixAmazeZwd2IATNMkl8uRyWSGphOj2B74vk+tViObzZJKpQadHYUiIpvN4jiOaow3m2YTvvgtuOJSOLBv0LlJJJ7nYRiG0k1F4shms2QyGaWbA8a27a4zYkO5sV/TNKrVarQ8QqFICkIIPM9TuqlIHJ7n0Ww2B52N7UelBu9+P1x/c9ihUSyhXq8r3VQkklqtptrzBDOUnRghBPl8nmHay6PYHmiaRjqdXsP5EWoduGJjSafT2LY96GxsPzQNcsAffQHOTg46N4kklUrhOM6gs7HFUG3KepDL5ZSvmWD0ZrM5VCMggtBRLJVKQ5VvxfZACEGlUllDBD21Y2rLM2Cfolqt4nme2ji92WgapCxonoV6fdC5SSSe51FXsllnVJuyHihfM3kIIZB9l6HrXmpAEASMjIys6lRoxRbC90PHQE/eRKKu62rkRtGdAfsUUi9VpJ0BIKJfii6sbfZaodh4RkZG1Ax2gtFN0xw6h0vTNObm5mg0GoPOimKzaTTgj/8Efu9/Q6k86NwsIQgCNXKjSCSlUgnP8wadje2Jmv1almq1Sq1WG3Q2FIolzM/Pq1nChKFpGrLvkryh7D4QQjA2NqZ6x9uRRhO+8nfw4ffCM8cGnZsl6LpOPp9PxixhvQ7zxUHnQpEQcrmcCvutSCSZTAY3k4GnfgT/+U/h1JlBZ0mhAGB0dFT5mglmTVMw9957L7fddhvFYpGf+Zmf4eqrr+Zzn/scx44dw7ZtrrvuOkzT5IYbbuDcuXNcddVVvO51r+NrX/sa9957L6lUimuvvRbHcbjhhhuYnZ3lyiuv5Bd+4Re4/fbbueuuu8hkMlx33XUcPHhwyf11XWd6eprx8XGlXNsNDdB0EA1IYMSQIAiYn5/HNM3Bd2Te9T74/g/h//4V7N092Lwknf/wX2DmHPynD8HY1jyrYmFhAdd11y8s/SNPwIf/B7zrX8KVLwFdLVNTrI1SqYSZSePe9yD83gchm4Z/fV0ilwwrthfT09M4jqMCTySUNVmISy+9lPe85z1cd911fPvb36ZarfJLb3gD7//AByiXyzz++ON84QtfYN++ffzO7/wOX/3qV/nud7/LbbfdxjXXXMO+ffu47bbb+MY3vsH4+DjvfOc7+da3vsX999/P97//fa677jr279/PrbfeGi1/EEIQBAG+7xMEAYVCYfBOokLRgaZpZLPZZOjmkWfhB0dgbn7QOUk+jz0C//sj8PSPBp2TDWPdzy46Mw1fvgU+dCOUk7e0UzE8pNNpUrazuOyuWAr3PioUA0btv04GvfZyrmkmplAoUKvVuPPOO7noooui08mffPJJqtUqF1xwAQ888ADPe97zOHDgAOl0mqNHj1IoFNi9ezcHDx7kwQcfxLIsXvCCF7Bv3z5M0+TEiRO4rsuePXvYu3cv3/nOd6jVajiOw3333cdnPvMZzp07xwUXXMChQ4dwHIcLLriA2dlZstks8/Pz5HI55ubmGBkZoVgsks1maTQa2LYd7VOQkQ0sy8LzPDKZDOVymXw+T6lUIpfLsbCwQDabZWFhgXQ6TaVSwXVd6vU6juPg+z6apqFpGo1GA8uyqNVquK5LpVIhl8tRLBYZGxuL8iVHQsvlMul0mmq1iuM4UbQgmR/HcaJr5ufnGR0dZX5+nvHx8bZnc12XarWKZVnU63V0XccwDJrNZnT/dDpNqVQinU4zNzfH6OholIa8h7yn53nouk4QBARBgGVZNBqN6Pmz2Wwk07h8stls9LlMq16vYxhGlJZhGJHsPM8jl8tRKpUYGRlhZmaGXC7H/Px8dI98Pk+lUiGVSkUx2nVdx9M19heLZICpc+c49eijjLfkMzY2xtzcXJSvTCZDqVTCdV08z8OyrEg+juNE8i+VSpH+jI6OsrCwQKFQoFwuR88mrzdNM8qPaZr4vo9t21HZl8tlJicncV2XnTt3srCwQD6fj/RLPlOtVovyIvUoCAJSqRTVapV8Ph/JVsolXvbxtJrNJrquI4Sg0WhgWhaNIODg6SkcilQXFjj25JOMtmScyWRYWFiIdCSTyVCv1zFNE8Mw8H0/lHWrLEulUlQ38vk8xWKRQqEQ6UKxWIzybds2vu9jGEakS6ZpRmlVKhXS6TTFYpFcLhfJRb7KOiL1utFoRHv24vKJ1835+XkKhQIzMzNMTEwwPz9PPp+PytfzPEzTjOq/rus0Go3w+UslchMT7KrWsIDDTz+NtW8Xc9PTjIyMUCqVyGQyUT6CIIjqa6PRwHGc6HBT+Qzy2aQOynoobUiz2YzkJI2ztFHVarXNhpRKpaj+d7MhtVotmo0WQrTZEJl3WTeOHDnCzp07oxD1pVIp0kXTNGk0Gui6jmma1Ov16FlkeWUyGWZnZ6N6ts+rMK5p1I4+zsmnn8YcH6Ner6NpGkKIqG7U6/VV2xBpr+NpyWeL15Fiscjo6Cizs7ORrKV+5/P5qP0QQiCEiOyQaZrR/RYWFhgfH19iQ6SNlfVMfk/KKm5DZJ2UNlbev1Ktkk2l2FOtoTPJ0aNH8YMmQavspV7KZ3Jdt80eyTq6nA2ROqnrOr7v921DcrlcJJ9OG9LZNo6PjzMzM0OhUOjLhjSbTQzDWGJDisUiIyMjkY2Vz3bs2DHSExOMH/8RF1CjOj3DyaNHMVo2VtqQVCoV6X43GyLzI22IrLN6a0ZnJRsyOzvLjh07omeT5SvbV9/3EUIsqSMjIyNtfkg+n2d2djZqR9LpdBhJqYcNieuzlEunHyKfSdoQy7Layl62r9LGdrMhcXst7ZFsG2UbZNt2VG6yrs7NzTE2NsbCwkLk03SzIbLOdspH6kunDZF+SCaTieq93Oss/TQp/35sSLVaJZ1OU6/X23y+uI2VbXWtVov0ZXR0lJmZmSht6TcVCgWefPJJ9u3bF/ki8tmkDZF2p5sNifuP8Xom7aIsr1Qq1WZDpIw7/RBZNrKuCiEimUm9lnnPZDLMzc1FZSBtRy6Xi/LTTa8bjUaka7K+d9qQQqEQ+crShsQjssZ9Ytk2jo+PMz09HfmgUiey2WxbO2sYRpsNkWkcPXqURqOxpDNjykJe7eb+L37xi2iaxlve8hbS6TTPPvsst9xyC29729u45JJLME2TcrlMuVymUqmwY8cOHnjgAWq1GnNzc7iui23bzM7OUq1WaTabjI6O8vTTT1OtVqOHkj3gn/qpn+Lyyy/n6NGj3HXXXRw6dIhsNovruuzeHS6VueCCC9A0jQMHDkSNX7femzQg8Ws6X/fu3btsGr3Sk//Hv7tnzx4A9u7dG32n89puaXa7v0yj2/d6fUci5bJ///6u18W/v5J8ul27WrlIdu3ahaZpUfktS7UKuSwAOyYmGH/hC9GAffvCk7ClLnS7V7+yXotcJL7vMzY2RqFQIJVKLZumpJd8ZFnv27evTa/7QQDarnF4IkM2n+MFl1wCwJ49e5bNfzfZ9Hrm5XShlwx7yVwi68pycpHIMpfvS/lccMEFS56hZ12hFTQsEy6xuvjii+GCCzjQkvn5yGW1NmQ5+ayHDZFLIvL5fM989W1DDhxAm7kPdI2UO8pzL7oIRkcGbkP6kXWvZ+1lQ7p9p1daXdueUhncFDDORQcPIi462Fcd7OdzyYbYkC4yhqU2ZDVp9XpNpVKYrkt+/0VACnd0lIsvvBBiI+D92pB+5CLpZUNWkkW39zr9ENnOLicTmcfNtCHLyadXmhvphyx3z5Xks1k2ZMeOHV2X4W6kDen0h1bjh0h6+XqdsllOPlJv1tOG7N69e9U25ODBgzzzzDMIEXbeZKdpTcvJbr75Zm666Sby+TyPPfYYk5OTvOtd76JcLnPq1CnOnDnDK17xCr7+9a/zh3/4h+zevZurrrqKQqHAJz7xCb7xjW9w+eWXc8UVV/DNb36Tj3zkI0xMTHD55Zdj2zYf+9jHuO2223jZy14WKY4cIZQhQsvl8pKzOKQwOl870TSt57X9ptErvc7vii7Xdbu2W5r9fL6W7/S6Lv7+auTTj5z7ve+q0LSeUWu7pbmRcpEIIfA8r22UvVeaGykfLfpFW2TX1er3WnWh1zP0ykfn/fqRy2o/7/qdzg+WaQy75bPb/ddqQ7rmbxXy6ZWmfK3VatFMSa/v9S3rFZ5jGGzI+ejNSmktuU4IQIBYXTu10uebIZ/V5quf73S+1ut16s0mLJNmUm3IatPqzGe37yTVhqx0z9V8p5/PN8WGfPHrkPpHaPc/3DVflUqlZ7TRzbQh/chlLfkbFhvSC3MtIZZf8pKXMDIyEi2psiyL973vfRSLxaiRfMlLXkI+n+f06dO8+MUvZmRkhPe///08+OCDjI2Ncckll2AYBu973/s4c+YMl112GSMjI7z73e/mwQcfZHx8nEsvvbTr/YUQQxNX/vyLSNFGyxcI/05e2FJNC0e8E6GbCZSPYnA4jrP+a7sFQPICbCiGC9u2MazhOupBsQUIArj7afAegQcehZ94EXS03el0euiOIdnqaJoWlcmaSubQoUMcOnSo7b2f/dmfXXLdJZdcwiWtZSwQbiy9+uqrl70mn8/zspe9bNn7a5oWreFTbEdEx2tykNOcSjcVSUMGRVk3lIor1okgCND8oH3gRemXYlNo2cRCrutMYLPZXF+7qVhXhjJ+oRBCnTytSCRyhEBXoUEVCUNuulYokoau6+iGnuhZdsUWZYUxUcuyVHueYIa2ZHRdV50YRSJReqlIIkovB4jyyZdlcV1+fL2wQjF4lttvoxg8Q9mJ0TSNer2+9ab4nj4K9zwYnrSuWJkEtnVChCFKt5xubnW2wcjvxunl1pfdeSOUc74c677UUaHom+WnYlR7nmz0ZrPZM/JCUhEijI29pab46g34rT+Cd/wmzKrDCYcVTdOSo5vKZ1LEkOckKRRJwzRNDE1fHEzYBoMKioTRQ+US054nkS9/He69f9NvK0R4hlCz2RzOmRiAYrE4dJ2vZZmZhePfBzEfRsxQ9CbB7ZsQgnK5nAzdVKO//RM5T4PNxkZSrVapr+ss7xYW1oYQoGTWnVqthtdQKxDWTL0R/ihWzwod5i3na64XzSb84r+BG24aqM+qryXEchLI5XJDme+e1DxolgediyEjeQ6BpmkqJKMikaTTaWzb3oCUhRo5V5wXqVQKx3YW31D61D81D/7jH8Dv/jcoVwadmy3HlvM114uHHgUmwdj8uRAZQMk0zeGcidE0jdnZWRoNNfKwvdnAzXZrbEODIKBYLCrdVCSOhYUFKpXK+oX/VhN9q0TNsPeiUqlQ82qLb6hZ5P5ZKMI3b4c7H1b7aTeA2dnZdZ7B3iJUq4AHA15qN5SdGCEE4+Pj639wm2JI2IRzYtbYP9J1nXw+nyDdVI6AIqRQKJBOp1WknYGh5N6LTCZDKpVSMzBrYaEEZ6bAUfvdNoKxsbENmsHeKgy2zg5lJ0bTNObm5rbYOkUxaF1QrANBEFAqlRKim2qTrGKRUqmE53kbkLLSr/5QnZheVCqVDdLNbUClDnOVgY+IDz092sn5+Xm1sqIbCTlzfCgX+gVBwNjYWIJGuxWKEMMwKBQKydBN5Vuuga0rtPWfIdxCS34Em9DHCLaMuNabbDaLnlJ7YtaEIJSXUMsV18byuqZmYnqRjDo6lF13TdNU71ixbqxnVUzWTIyib7ZBdLJSqUStVlv5wlWzBYS20R0Y5ZQvS7VapaZmYs4P1YfZEJSv2YOE2DRzcnISTdPYvXv3oPPSN2pPjAJYt0q0nv5L8vbEKPoiGfZ4Q8nn8+sbZWcbyGx9UV5mL9LpdDgTkxDHaKgQoqVaSnZrYgWxjY2N4TjO8hcpNhXP85idnQXAnJiYGLrwcTI62ejo6NaZ5lP2p38SLCsZncyyrMF2ZIQMe5tgYSk2lVKpRCqVUpv7B4aqi72oVCqYmkZaviHUHtH+UYLaSObm5kilUlvH11xXBhNe33GcaOJluHovMdLptDp9WpE4NE3DcZzB66Ya0VR04DgOlmWpDsxmI5b8oejAcRx022JL7bPaLIZGXJuy8ew86C7I7eVrrqGMBqx/Q7knBsKRG9/3B50NhaINIQSe5yndHDqGxhNYM7VajUajsX7nxCj6R8l8WTzPo1GvEzpQmpLXWkm03JLagVleZtvL11xFGSVE1Ya2E2MYxtYcURSDmZ5TrB+GYaAnIdxltJxM6ZNiUS/X1W6K6JdiOZSIliUxNnOY8ZWSbQRb1tc8b5Khb0NrNYJAbZLc9iSjDi0hCIJkjXYnKCuJZwuHKV13vVTLpFZPkuxCgljUTTXo0omSxibRQ9CJa8+TQkLsvylDwQ7b5v6tiaooivVG6VRfbAMxbdxo4jYQ3rqg5LQsqv/SlRVrrXKw1wclx9UxwMBBQgjm6wGNQAzvTIzjOFts+nmrVKCt8hxrQ9M0LMtKlm4q46wgHKha3w2qSq/6R8lqOUzTxDBNZavWihLbhrH1fM2tQSMQzNZBN01zKGdh1ObppLK9144KIWg0Gmq549Cx9b2ARqOB7/tqaYQicTSbTZp+7IBgpaL9I4idFaNYPcsrm+d5qj1PGJqmYRgGhmEMZ4hlIQTZbHYoO1+KrY2u69ssJOMWYRs4Tel0WoVYHhTbQL/Oh1QqhW7FzuFQZ1z1jxyUUIMTa2MFseVyOeVrJgDLsnAcZ0n7NZQlo+s6CwsLmKapTlLdziTQaAdBQLlcxnEcdTiWIlGUy2VSqRTZbLa/L6x0ZEDyql/CUaO5vahWq5i6RkZtjFk7KjrZGllebvPz86TT6WWvUZwfVR+qK+hvUZhUdIeZuiClC2qthVhD2YkRQlAoFFTvWJE4dF0nk8kkQzdVm6aIkclksCyr/y/0PWGjFO38SfpBgBuL67rhTIxUpQQOUCm2Ot11TvmaPVjHOlr1w/0tyzFbX/xJxbYoDeVuJU3TmJ6epl5f4amHCTUA1T8Jnj4PgoD5+XkajcZgM6LOG1odkay2rswWFhaoVquDzsY2p5d+bd8ODISzhNW6t93FsDaE2Mpma/Po4YNtOV9zvUiIzg1liGUhBCMjI6sbVVQoNgFN05KzhjYhRkaRDHK53PrbTNVRVqwDbjqNYTuxAarB5kexnVhe2UZHR9XS8IQhhIiCLQztTMzU1NTW7R0rx2BoCYKAubm5wc/ERKgpPkXI7Ows5XJ5/RNWs34rIwRqT0xvigsLVKoViDbtKn1SbDbdde7cuXPUarVNzstWYmPrsjmMIZaFEIyNjanesSJx6LpOPp8f/Cxh3KlU/oCCcG33xthMpWCK8yObzWK4ruoMr4X4SlglvtWzwuzfjh07VACpbsgIgivq3MprRF1DA3uFGTEbSnb4mnI0ar5B1R/Sjf2apjE3N4dt26RSqUFnZ51Q1mcrIISgXC6TTqcTZPiUbimgVCrhui75fH59EtwG+4jWDSWiZalWq1iGTk6+ESiB9U9LVoHqxWwEc3NzZLNZXNcddFaSxTraf9dodWSWIac1SQceY7ZGytaYqYu1d2IWFhY4cuQIABdffDGZTIZKpcJTTz1FPp/n4MGDGIbBsWPHmJ6e5nnPex65XG7JNbquc/z4cWZmZrj44ovJ5XKUy2Wefvpp8vk8F154YdeTUuVMzOpGuxMe/UVEvxRDjKZpCTrDSOnTqtnCItuQPTGKVaCWk/UinU6jR3ti1L6YVSGdSRVieUNQ+6+TQaPRwPO8JYc1r8nTuueeezhy5AhTU1Pk83ne8Y538NGPfpRqtcqJEyd45zvfiWma/PVf/3U0Iv2bv/mbfPzjH8fzPKamprjmmmtwHIcbbriBkZERMpkM1113HTfddBOlUonZ2Vne+ta38hM/8RNL7q9pGpVKZZVLIxLcgYmj7NCyJLwrihACz/OSEVde6ZIihud565ug0i/FOlGv1zFtK9nGXbE1WcGOVavV9Zu9HmK8KgQ+uH0eM7ZZrKkT89rXvhaAw4cP85d/+Zc8/vjjHDlyhA984APcddddfPe732V+fp6XvvSlvPrVr+Y973kP9957LydPnuS9730vd999N/fddx+2bfOSl7yE17zmNXzoQx/ie9/7HnNzc7zzne/krrvu4rbbbuOSSy4hnU6zsLDA2bNnOXHiBKVSCdM0qdfrWJZFs9nEMIy2V9M08X0fwzAIggBd19t6cEIINE0jCAIMw8D3/bbvyFeZpu/7URrd0tJ1Pbomnma3/MXvIWeatEYDJxAgAhr1Oo1KBUPXo2dpNptYlrXku0EQoGla9DwyP92eIZ6WaZqRXDrlI19lup3PtFZZx+Ukv2OaJo1GI8pXPM0g8NF1oy0/Qb1OyvfRgWajQa1cxorJJ5Jxs4neUW6aprXJSuY1/kzxfC0na5mfKF+ttJrNJpqm4Xle9H9nmr3SWldZN5uk6k10fPymT61SweyhgzKtleTTq47IZ+qUtaRXWr3SXE6vO+Wjd6kjcTktJ+soH5aF7ftohA2W5nk0Wzp5vjak85mXsyGdaa2UZr+ylnKRn5fL5dXJp4cNcXwfSwiCoIlXq6HVasvW+1563U0X12JDOtOO27g2G9J6XpmfuN70stfdbEi8HJa1Ic0GThAAPrVaDVGtLlvvO+UyKBvS2Y512uluet3LhixnW2U5BX5A3fOwEYjAp+bVQATL6nW/9vp8bUi3tjEIgrb7r+SHxHW4m6zjbXOv+h4vL03TQNMw6g3sIMAXTZr1Os1yecNsSK/8rdWGdNbRXvJZTxsi0wgCn5NPOOSPa+wC6rUaQd3D77iHzKsMT79eNqRTB9cq67heLFdHOnVhNT6fZevc9B6T2qzGtZ+qYjkW1KqkCBB+EM6QQE9Zn68NMQyDer2+ZBYGziPE8szMDJ/5zGe44ooraDQa2LaNbdvs2LGDEydOUKvVyGQyZLNZ0uk0586dI5fL4bouo6OjHD9+nEajwcGDB3FdF9u2mZ6eJpVKkclkyOfzlEol6vU66XSa6elpHn74YU6dOkW5XGZubo5UKoVpmlSrVRzHoVar4TgO1WqVVCqF53nYth1T2sXp/LhxtW2bRqOB4zh4nkcqlaJWq2HbNp7nRcKXnQhZ8WShy4KQ18TTSqfTUf48z4sa3LiSCiEwm01sISAIqNfrlMtlLMPA8zxc16VarZLJZKjVatGzxRvvuBMaBEF0P8uyos5etVqN8uO6LvV6Hdu224yK/H68csjPpDykrOX/tm1Tr9dxHKer8Y9XrMgBauXPdV0qlUpb+dVqNVw3RWmhgZsx0TSBpkPD02kYPruaTXSg0ahTLJfJpFLRs0X5qtWwWvmKG5V4gyErVPyZXNeNXqV85HWNRqOt4sflI8vU8zzm5+cjWcpnqtfrpFKptkosvx83jJ3ysW07SqNSqeC6bqSjjUYT2zYQBAS+tihrw0A0Gti1OjpNgmaTUrWKa1mRfGSa8TqiaVqbIZQyk2Urn0HKS8pH6qK8Xn4/bhClXsjy6JamfJV1SBq3uAMiP4s/Q7zeZzKZKH/dZC0EGEZYZ23bwavXSWWz2C07WPM88DxqrdPt5TPGHRFZ/nF9lnUgLp/lbIhMayUbItOMl1enDTEMI7Jr8QZMXiPlMj8/D0Cz2WyzIXH5SB3wfb/NhshnqlQqUT3TAx8LCPwmVc9Dr9UivZe6GJePLLdeNkR+Hm/YZNl3syFSLnF7HdcJWd8sy2qzaZ16LduqJTYkZj/jzla83kt9jutgOp2O9LneaCDqsNMLAA+vVqNZrSK62Ni4DYnrdVyfpU7Isu90HONpxdtA+UzS9sv8xetsvG2MO1P1ej1aMt5N1qu1IWk3xV3/swkjDv/oV6qk0ymKxSK2aeJWK9gEiHqDqlcH32/Lj5R5XI9kOyLv0cuGSPnEbUinfi9nQ6Ss4x3Y+P2r1WpbvqQf0o8N6azvvWxIs9nAtk2azZajaRg4lSpWM0DM1vDqdaqlUlubHE+z0x7F7ba0sd1kHW8bZV2J66JsG5ezITItaUO6+SGduthpY1eyIZ2Dve1pBfgNg7/7j4KLftrkstd7fPxVNofmDN4ONDyPeqNBPVaOqVSKubm5yIbE27O4Xsd9PSmnzmeXNkTTtDbHXn7W6YdENiTmh8iyiXc6e9mQbv6Z1LPOurGcDanVPHIFk+mjGarTOvOzRbI7shjVKima4PtUPC+0aa104vU/qvfp9JpsiMxHtVqNylMIgS4Cdtlr/UZbHAAAIABJREFUnIlpNBrceOONXHzxxfziL/4iR48exfM8yuUyJ0+eZGRkBF3XmZ2dZXp6mmq1yv79+/ne977H/Pw8586dI5vN4jgOZ86ciULS7t69m6eeeir63tjYWLRx/6KLLuKiiy7i6NGj3HHHHYyMjJDP53Fdl1wu3A5YKBSAcA3j+bKe04cyf8syVwRDB8Mgm82QnZho+1g+0/nka3R0tC2t80HKej3oJp/JE/AXL4KLroA3fg6K0/AXb4CJq6q8nVAn3HQGd+dOYFEuUVrrmL/V4Ps+QggKhcK6bQRcTq9PH4a5s/BjL+34oNmEfBpwsFIOu8bHgfXV60HTqYNSv1fi7/876AG89r0sLl9pLU0dHRmBfD78OU/WU9brUe+lU7Wa+u83QdNBbk2U3xUChH4Y0DAth7F8AVZpV9bDhki5rIesl9iQPuhc3tqpg6eegT9/bpm3Y3MRDoXCCIyNnXdeV4uUdb91pBvZbLiO5Hxl7Tfh2Ufg7G1w9duyZHOhT2Fk0qQLo4CBnkoxls9DanODo5yPfDr1Zr39ECHgyW/DQ1+AX/rPYDvhXn49nwfLwBzLks9myY9vvH6tpo50IuUyCD/kyAPw2Fdh/rtw1RuhPhdQQUcAmUKeTCa7xPbPz89TKBTIZDIrpr+e9igp5PMw9Sycug32vhImduzBSdOy9yaabYV1tcv+9U7Ox4aMjIwwPT0d/Z8zw87MmkIsf+lLX+Kuu+7i8ssv5wtf+AKvec1ruPrqq7nxxhupVqv8+q//OrZt8+lPf5qHH36Yq6++miuuuILTp09z0003EQQBb37zm3Ech5tuuomPf/zjXHnllVx++eVMTk7yqU99CoBrrrlmC0UfU6yGmRNwpgnHboNdfwVOGp55GIqPQ+VCCKtAchflx0dKNpK7Pw1H7obnfy12xALEIocEsb8VAD/8KtQ9eOVvwbOPgTMO+xKsS+vFWnTyr/8lvPAN8JOva3//8bvhif+l8QtljQTs/hoYK0l09iScAYqbkZkhQYjQ+dZi/zfqYLhiMSqZslltlCbhW5+Ar/97GPtJaHow+TjcczO88uUwbgO+ChyxEp/+dZh9Fg6MDzonw8W5Y1AGNIOB7VuLLyWTs1mwxpmY17/+9bz2ta+Nph5d1+VXfuVXqFarGIaB4zhomsbv/u7vRtP+hmHw5je/eck1H/zgB9uu+eVf/mVqtVp0TS/ktKZi6yECeOZWqFXDeD7z07CjmyoksJ0TQlCv1/F9f1Pu1/DCzXZCdHRiwsyEr6ptW4IIt5/x6d+GnT8OvyG2/o7ier3etvSsH75/A1g7w05McQbmp2D3RfDkt+D+r2m8AkgnsSIqkkvHuZ933gTfv8HgLZ/VKMjBXNWJaePEQ3Drh6ACjLVM1dTj8K3/Di9+nsb4UB5bvrl861PhQKgATj4Kf/sOqLGyT+55XtuytO1CtQSzZ2BiP9RbZyRXz0K9Bo7LiufrbBZrUn3Hcchms+RyOdLpdLSGLZPJkEqlohE/x3HIZDJRw9nPNYZhLLmmG+l0etUNcuJRdhsI68bM3HAeQ6FpWtQh30j+/UH4+NsgaIJhQWUW/uvz4YFbYxcNkdw2mme+B09/KxxRqp0Jl0gJH8onIagPOnebg+M4awsVqoWd5a+/F/6/y+DRr7ZG5BQRgQ//5zfhjy4LG/7u+KhK2erDtGZijn0HvvIuePa4S23OQsmnOwagtfzo8iQsTMGZZ0ON0rSWzJpKdt0QAZx+Cu7/FDRb70358M3P9deJcV136/maffDAx+GPLoH7b4Gbfw3qwLM/gD/75/ClP4TJ45CEEdIkHGaxajRNiw5u2zKokactgRCCSqWy4bOEC8eheBLcMdBMKM/AiSfh7n8P2Ql47mUCQ+kUAEEAn7kGTk+F8po5DJe+Dp64N1zuc6HBtqh/MrrOarFduO2j8O0vQqkGd90Eey4DoRzOCL8JJ0/DiR/A1Ck48hAcurLzqsE3+ImgNQs648HX/ytMVcA5afHsExoXGUpG3dCMRWd78hjc8YnQoQzoMgOvaOP0YfjTn4czxxffi1subQU7ViqV1nUP8LAQlMAL4Mv/DiZPh+95wON3wpN3wvQOk19n8J27oezECCEYGRlJyIGCG4DyDdp45EZw94WjTu0kT1CbddilAAgjbHLkVvjRNeFo3fcegqO/Cv/k3xr8bEkbzgq+zogAqpOwMAsLM+F7jQp85d1QbbJtzqbIZrOrnonRgMduhGePhA0YQGUeGqX4Vcmrh5tNaRrKU6Ekjt8Gf/v/wKUvhJf98aBzliyCAI58F578DsxW4dy3wvdrNY3v/g38zEu1WHVUeiWZO7PY/glg5kehDYOVnfDtzuRxmDrazX/oQMQOWo1RKBS25WGXehp8DZ49vfQzHyhNbXqWujKUPo6maSwsLGxLxdoOCBGuu5QcPw4c73l5opAzMRt52GWzEZra+mk4cgJKhEY6Gqk7Al9+t8aLszpjqoHj6P0w13HO45Pf3H4ukgxv2XkuxHJowKkj4VICyTP3wpkfwBaaBz8vZs/CJ/4FHL4n/P/rnwCvCSdKYYcvZLtpW3cmj8ON7wgjKnYiaJ0vIf9R4FXh+38Nt/wRxOdR/TIEtXB51NnHNZ7jsbhWStHOeepSsVg8r2hsw0gQwPRkd9FptOrqJuepF+bk5CSaprF79+5B56VvgiBgx44d2K2wqMNMw4NH7oB947Brm4wIL4cQcNNvwR3XJ6eSrAZd1zd85KZZD2Uz+zjME/5dPLPoaEojEw49DaMU15czd0K5YyXVklG5bbCcrFAoYJrmqqKUabQ7TwCVYvizH9lx3vqyW45jD8JT9yz6kKd/FL7GB3aVaQ8pzcHUU31ozDaoj/0wfw7+7sPhErI4zRL4tXA52WP/U+dyNEy1Eq8rIlhJ35bffLtjx45lg0xtRZoePPHQYrDAOO3SGoxl8zyP2dlZAMyJiYmhW5alaRpTU1OMj48P/WzMkQfg478EV/w4vM0Da7iKYt2pV+Hwx1cwOglu34IgYH5+HsuyNkw3m43wNb5N+P4/CSPXSAQgqp2nWCi2M3Nzc7iuu26zhGrZT4seVUz4MHti2UsUijVx5kfg1TtqnidU568L5xtYbGpqKjrMXbFItCdyAJ1nx3GiiZehdJmFEOzatWtLRIyoV8LerlfUlP1h+G2wruuMjY1tqMGTy8niU7oVlrqSgxwpGTqGXO/6YWxsbIMGrLaB8JajRxWbOQ5f+mD491A2tANAi1Rpm+vUCpzusk9B0Z3z7cTs3Llz283EQDiDtRxBQnyLoYwurus6Z86cwfO8lS8eGpTR3goEQcD09PSG6qbfWDxqQXZkOqMEL2qTOuxSETIzM0OxWGw7NEyxcQQB1Grxd/xtXxe9cu+B28M3w7GHWi7J9hbTqvCVsJZlJWdcW2FG4ezZs9TaK/K2YGVT1fI+tMHOAA5lJ0YIEa3v3jIoO7Ql0DSNTCazobrZqC85L44m7SrUpk7b3HFShGQymeiQYcVmo+ogwPHvQKPHZxVg9tkkbRlOAH2IQg5mKbojVy6slXw+vy2Xkq3U+RPy94D9i6HsxGiaxvz8PM3mcIfjEAHU51dWlm2FWIXBSaDlFkJQLpfx/RUDOq4Zv6X2K6lNAsWz5RgmGZdKJTzP63sm5qt/EgaOWBnlRvXHxtmEYSFYQQTHH9fCZSpiNQ3B1qVH1N/2a+QfamyiK3NHz2/bxsLCAvX6NjkRWSL67cQMHr3ZbA5dZ0AIQTqdHvo9Mcceha98KBxZbx8cTYp6bD4r2ey2aEgJnGHQNI1UKoWub9z4gN9lT8xS1FGEfXMePvjG+Q3rX3qpVArLsvqeiTnxLXU8o2J90VeIdfK9EwbVBByglxj66MsFiNDa+8ridzJ9Cr75X5YfPtBY3o6n0+mtteqnT/pbTjaYnrMQAtl3GdqZmGq1uqGj3ZvB8Ufh2GOtQSe1dQEIR+qWc5wCIPCTO+QkhKBWq22obgZ+aD7i0cmW5GPD7r5VSZrE1l/HPc+j0ei1mGcpQf+XKlYguRZrczFWDNgo2l76J2n1d30QfazWCTsxmhpx6MLCNMxPnl8alUpl6H3N1SIYnhVCummaQ9fL3CozMUZM7MePJOcE1EESrBDTfboBR48k1yWQMzEbqZtySYbHcu3WynM1iu2FnInpF9HXBL3SL29e+Y/9om3YsGly24SNJtQ9Zeu7YTmr2TPRXX6ZTGbofc1VI8IQ8csR2bwBjL5rmobsuwzlTAyEUaCGnbhBr9Y06mrkk8Bffuo3YOnhe0ljo6M/BbE9Md3utNh9UY1a/2x9Wa3WZgZ9B9jb+rJbjrknt3cnZjWl76s2blX0sydG7UjrTSoDKwVH1laY/RNCbMuIjv00F0L+UtHJVs+WUKxug0fbfEOj3+zHIUi+gDZSN1earVJ0ZxRWXm0/7DZlBVall8O1VXJg9DdjJS/esGwMjNXMgfiqY7w6+nAHlKR6Y5grn9FkrCDBrTBgvhZWmolJit4NbSfGtu0N3Ty9Gejadp4E747fWEUMn6TUog5M09zYjf19CEgsji9tece8X0bo3ok5+mWYP7n1a6JlWataFiFaAXkMetkppVcAoi/HXMkKwF8hyFP7Jmsls35mYhbQqCtPoisiWHlQdKWWeiv4mqsmFp1sL907giIhSxiHsmQ0TduCm60GrwxJoLMTM74HevtdyZPZZmzsF/5qnjx5MhoUvZr5U+fg1CNDaQpXRa1WW9XGftE63+2y14UdwN4Xbu+pwaC08jXKxQyJz8SYLCOXbaxPbXSZidGAXSOLjuU8yV9iPShkoKCVlpQtx9bzNftD+KGu7b18sa4WdkE62laZjEo6tCGWs9ns0AUk6CS+JyYZ6jB4OpeT/eP/AKN7BpadVaNpGq7rbuhGQL+P6pqMMZJksVw3Jdo/tIVnrVzXXdWhbcHCBmZmCxHEDtPRGdKRwU0iiM3E5Ogmq61b/9aC3G4gWxPZ6dt/RXx0XMpsey57Wo5Tj4cdvCwtJzwLL34dxK3gSrZ/K/iaq0WIcO+tDbzgl0AzIDMG134Unn9F65olR25vZv62QIjl6enpoT+AaLvNUPZDfCYmk4aJi8GODaOsFNN90ARBwPz8/KpGvFfL063zO5Z3yhd/b3taSiN1R9dhd3rltdJbjfn5eSqVSt/Xi2L42issbpLr4Wai9qj1T1BblJVpteojSpd6IY9euOTHwAJGTXBZGnQjkt8WHoRZLYEPD/4lNFjsBL7jFvi3Xwk70P0yNTWF5/W9mWvLIIKwjXRHQDfAycPeF4A5Fn4eBZQYsM4NbYjl0dHRVYULTSL6Nova1w8NL6wYLnDtX8GFL4SsDZYFI27yZxh0XSefz2+obs7+sH38I023vR4qNpnE2hWOJEnjO7of/vHHQpnJjmBNugFb2AnI5XK4rtv39QJIAVf+SigruTdGOZyLCAF+rDJK+/SCV8HPvaN9xDf6wjbGb/Whx/fAGz4JE8+B51wAl/+zJlZK2axORACaAD0d2qqf+3248i2w87KwU1OQ1w0wj4lHg5QVtpPplsDckeijFe3Z2NjYqmawtwKzZ6B4KtS53VfC3kPdrxuU3g19iOWtMBMzdw7u+i89AgBtY4tUr4aPbwM7D0JhJ7z1M/D2T8NVvzDo3K3MZszExGutRrhfofvGu9bvbe44oYXyOXQtGK226OCL4F3/F376l0MZnhlk/jaJ1czEVBZgKoALr4Yfe3XYabYJOzK7UR2ZiI6D0mUn5tCr4BXdOjHbnKAcvl54FVzxJrjwSkhPwMs/cA5rpAbbYDBhVbTEYGRCJ/xFvwzXXA8v/OeQGocr/x1YiNbqBSWzbmgmXP3/wn98Gi56cfjev/g47AEu+dmVZ+S340zM7GmoLsDBy2DnhZDpMvbVdk6MCrG8OoQQjI+PD3Xv+Ie3w0N3KbPTSb3SPsugaWFFuupfgN2qSEker9N1nUKhsLGzhB2P360Sh6tVlasJ4cnzhoDcftAsMHVwc/Din4PcjkHnbvMYGRkhk8n0de3kMZhpgm6HTgCEm2N1YP8li5s7Qw1Lbn3caBp1mK+EcnBTcNU/gRFr8SynkO0rn06a02FHeHQnoC1KJpPNYlvWttibthpkdDJdujoCTDv80Q3I71MDCiuhGbDrx2HXxaHcAF78RvjPTXjuPw2Xr0fnnXRhYmKCVCq1Yfnzm+GgUZJUXg7GXPYuSOfDPVjPeylkYhFemkCQgC7E4HOwBjRNY25ubmNHuzeYYPsFu+iLZq13k3/hG0KFXQwdvDl5Wg1BEFAsFjc0WIY8l0KuJ8+9cPH/6JpEd/U2mVZd01q/Dj0fRpYEi1j+wLOtQLFYpFrtL45RFNo1Jo/xF8HL/w28+mNwIJv8pZ2bQbMOC2V4XgZ+47Nw7Wcg0/X0we0uqZDaHFzwHHj1u8P/NUIHvd4s04hHLFHKFdKSg5UO/9W69likrVcC64amg51Z+l6/y/lnZ2c3dNXP4bvgI1fDU9/dsFusGV0L95C+/sPwa38O+YnFz+qIRAyUDmUnRgjBrl27cJzzCZw3OPwGnLyjfcZhcHEeksVynbvnvzocDU6ynAzDYHR0dGNnCeWKC8LABz/7oba3o88GLaczT8DZR/s7+XcjES2ncuRiuOin4cJXgdWzeLauIzA6Oko2m13Tdy++DC79RbjmI/D8l8Pr/i4+oLB9zwz3m1D14OBbw6hHlgOsKgT6xiAEHPk2TJ843xHe9X0Sn3BGPdtyhjQ9HJTZdSDHRftNNDX40oYQYe26+OfgzV8Il1hHJDAiwswJ+Ogb4cn7Bp2TdvQea8a0Ng+4u+bt3LlzQ33NubPwzA/g+p+H6VMbdpvVIUXR0q9UOpyR0TSwc+HbPoP3MWBIQyxrmsbMzMzQzsRUivDMk+1VJiC+P2YwZjzwWxvrB9iKBC0HIPdcyIx3fDgEh4PKmZiN1E15LIcAbBvcQpdrGGzYYL8J178Rbn53uLZ2oDRDeYzshn/9OXj5b4UnOcdZjO6zyXnbRIrF4qqik8GiON5+F/zTDy6+b5rxupiEpmwwBD40m+DuCEd2DRPSh5Y722pzqBbhL/4pfOuPwkGztbO+FtendchzayT8kpfDpb8KQq+w/x83ybClq+CqiQZg9sFP/TNwWkuqx/fBT70Ddlwc/j/IdrFWhgf+LtS5yil45PPw9D2DH7zSNBA6FEwYu6D3NSvNwm/UTEyjDqd/FMoNoCbCmd0kIAeTu838/fwH4Mo3gq2L/g8mX2eGPsRyEATDHZ1MQNB1ucFgzfcDn4ffzcOxRwaXh2YFnDT8+s2w66KOD/XkR0fajOhkorEoA/naTXMG2YYEQRjdZK4KzQGPNchDuzQdMoXWaHkHSdSp9d4vmc1mVxWdLI6bDetlHHWyOtGUp9bqtGg6vPf78Lr3gjMBY5dKm7W5MmrUoSKgejZZa+0DWvJoLVN5xdvhF94LaTfNrhcZRNoptm/HuI2WDeh0JncdhDf+AWRGWxcNkGefgr96PRz99uJ73Ze9bTKtPKR1SK1tAhpgw1ZWTB6B//5quP9TS9sfMeDJ7ShsfJdyPPgieNEbwtktgTZwAzOUIZa3wp6YQRP47b1+IWD6AZirQ2W+9/c2Gr8RjtSZXRxNXXTOoCeodW4RBAGlUmlDdbP+JIxmIeOA6NFYCESrEzNYGWkJmD0TjR52VgPXDvOXNE2qluDbfwH3fHr90iyXy9RqtXVJKwlOyrFH4PTTA29DEbQvS3FzYUd54jnwzs+HUaX8+BrQTc5bEIQ/fhOOPATlAdr3gJbudOhPpVrB85oDtxVJI2it2emcOY5IyDB0Dbj7L8Poohrg1wdfL/upa212rIfybVS0URGEP7Vn2rNar8Gt74fD31n3W/ZNtKx/mQo5yOId+hDLAI7joG+h0yI3ex7mu9fDh3fDiR8ONh+dBI2W49utaBPgEK+ErFwbqZv+FIw/H3buCRsKN790efSgy1FSL8GDX4PJEwPMRCv8TKfjrevwY78ElgvNREgrpNmAT78ePvWv4Tt/u37pWpaFsa7rnAanZSeegD++Cj73/4SDMQNzmFoi6NWpS2UHZ7M04Mm/h/+xD449Cscfhz/+GfjKhwYXWCZaTtYhFNOw0Ae9Bi+BiFYnpueeDjZ/lm8JQdg5/fYtcPufh39/44/h4dvgmYcHG8RIcP71z7btDWnP5Uz7/Nn2VRMnfghf/mN47M51v2XfBPFgOD2JLVcfoApGJVOpVCgWi20/lUoF0aV1kGdhFIvF6PNKpdIWTzsIAubm5tquqdVqbee7BEHA7OwsCwsLPa/pRb1eJxj0oss1MuCw2gA8/Sg8NQt/8YZwY1mzDjOT4Wdf+p1wQ+ggCFoDHl07MUOAXKvZrd6s2z2AVAHGXCAIlxb83g/g0NXt1w0yAF7DC5dMnn4UPvVWuPMj4UjwIBBVQkezi07pNm2hXpPA3X8O991xvnsZltJoNPD9/rRCjpYbencHXQxwQGHqKHz6zTBfgsc/Bx99C3z4Cpgb5GE/vexVJKfN0zC/Cf/3d2F2Hk7U4clZOHs4jPxYL8O9/wuO/2DTsrMEnaU6FdpMv+WQJ2MIRgg4+xSceHRwtisI49jSy4eWctQGKLNGY7HETn0ubHcqJfjah+AvXwzFmYFkK0IuX+z54QpslK8pl4ydFe1ttdwXPEgfcaXVnEvlObjMRv37T37ykzzxxBNtI3V79uzht3/7t5dEtHn22Wf50z/9U3Rd54Mf/CALCwt88pOfZGFhgYMHD/L2t7+dBx54gFtuuQXbtnnXu97FyMgIH/3oRzl58iQ//dM/zZve9Cbuu+8+/uZv/oZ0Os1v/MZvMDY2xvXXX8/hw4e58sorueaaa7ouddOSsJbhfBCDX/Ir798QUJyFm/8JPPxUOCJw7gTMn4Tx/Zufr6DeauR6zMS0zTgMuifYAyHEhnZiYKkR2XcJZGJnnjSBUpibTZeTCOCej8JUcdE4V8/BD26D0hRc8YbFDaqbyfJmIzm6VKkNtgMKYQQpXYPn/qPF85niDHKM4ZnvwtMPhn9XgO9/HlIufOU/wOv/AEZ2bm5+BL2dzEEQNOHZM4s6JNVejq56hMFlBoGg+0yM9DSTFGCjWoS//QCceRz+7e3hZvrNRjRDe9prJqZ9dcJgnIqgsVhcp4A6oAfQrEID6HPcZDDog+v8yU6MvHtA2FQ/+uWw/R6kmyttRU/XIUEueFQ13vSmN+F5XttIsm3bXTeCTkxMcO211/LZz34Wz/N44IEHMAyDt7/97fzZn/0Zjz/+OF/96lf5tV/7NZ566im+/OUvc+DAAdLpNB/60If48Ic/zKFDh7j99tv5V//qX3H06FH+/u//nhe84AXous4f/MEf8Cd/8ic88cQTvPCFL+yaccMwhrYzI0R75I7lNmdvBPUqzJ0I72dq8MNvwPfvX4yOplvhzyAIWgfjLrecbODT50CjBguTUNi1eIAWhB3sjdZN6TQZrc0cct9J/JYCqA7A0tRKcP8t8Hf/CRqxxuubn4bbPw12Fg68GA52r9YbQhQtsos4bBcsPTk2uXPpxem74Ud3haGh+z3XoBe6rve/LKIlEDfTj4O+uc5T3VtqK2tVuO0TsPcn4RXv2PxORa/qvhiAY3A2ywBufQOUaTlHDCbYRnRwIyypcLqmo+tax8WbS2kObvl9+MnXw6WvDlcnzJ8NA5QMKjiJaAL+8iGCF6U2GCsWn6WSp1BpTSg+C2eBL74D3vK3SwODbBbd9E3S9vbSaEvAxvmaT/09LJxc/F8Qdmy+/2eDj/foNyGd7t1Ot/lnAx5MjqrGzp07KRaLfP7zn+f++++nXC7z3Oc+t+tMjOu6UcEKIbj00ku59dZb+djHPsbIyAiu62LbNrt27aJSqfDYY49hGAbPec5z2L17N6Ojo5w8eRLTNJmYmKBUKvHII49w6tQp9u/fTzabJZfLMT09Hd3zqaee4u677+bMmTP4vs+5c+coFotMTExQqVRwHIdKpYLrulQqFdLpNLVaDcdxaDabmKbZNiXo+z6GYdBsNnEcB8/zcF2XWq0WpZFKpahWq9i2jed5UVqWZUVpaZoWpdVoNKJrU6kUnueRyWQol8u4rku1WsVxbKbPetTrewibF9kgh7/9RoPS3BxFQ8OxbarVKplMhkqlQjabjZ6xVqth2zb1eh3DMPB9H13X0TSNIAiivDuOE11bqVQpjLo89M2Ah780gUCnMt3kjv/l02RxJ71AMDVzjuwU1Ot+dB8pJ8dxqFar0T3ks6ZSKRqNBpZlhaHvdB0hBEEQoOt6JLtms0kqlaJWq5FOpymXy600qpTOjhPgUCwucPJkGdu2CYIATYNmwwAWT62qFItMnThBtkM+neVm23aUHykry7Ko1+tYlhXpiZR1tVrFdV0aDY+Um6Ja8WLXG8yetjl6i8sd/8fhle+c5CffplOrhs/teR6Tk5OUSiVGR0ejtOSzyvw0Go2orKSBFEJgmiaNRoN0Oh3ptZRxuVwml0uzIFxMT6PebOIFDrPz8/i2oFTNtckndJwqNGo1zp4+TSaViuQjX+WzS/3RdT0qr0ajgWmaUd5l3ZD/x3UglLHH098c4fprs0uMsPTN/UAwP7vAiRMLkd7E05Zpdeq1RJaDlEunfPL5fPR/vV7Hti1mKwENxpmZnSN1po6m6S0ddDF31Bg1dyD77JOnT6PNzFAuFslkMm3yMQyjbZbN9/2ovPqxIWF+7Oh70obohoYQPsK3uOf3xnnsgUWX9+wM3PjLDa694xxjEy6VSrteyzLq1J9Ovc5ms5w7d47R0dHIhnjeol7HZa3rOnMLGg0xxvSxOebmoVqt4dgO5UqZwkiGs5N+a725RqNeYXZqCl3XaMY2wAZBgGmabTY2rnNx+yR1IW6vZX6EEGGdtXWmj7n8w5/mux6yJoAzx2aZmWmDbu8fAAAgAElEQVRSqcg6HMpHlpm0Q4ZhRPmR8onb2s5yi9u0uA0pFT1qtTHOnSsyPQPl0qINyWRczp2rE5BDukvT01M0zo0gWsPTnfYo3tZIPZb6JPVLlluj0YjkI4RA13V83yedMWj648jmPSBgEp9KpOUBp07McMGswKuFNtn3/ag972wba7UauVyOUqnU1S6txoZUm3kyvsa5qXPkG+nIPp6bPEOltI+gZSlEzWNyegpKDkEQRPkxTTOST1xv4vLptCHSxsrn62ZDvHqF8mSOe24YwXumBuMlyufSlEsWdWEwOz8FZ1mssy1Zx9uxTrl0+iFxGyLzJG1BvV5vsx21Wo1M1uHEYY1qZZTJqUmmpqBWW7QhtmMwPW1EofT9oMj83CyVuodjWXj1epsfErf5sq1ayYbEbXzcD5HvN/0ac3N5Atp9RD+As7NhnTyxUGV+oUpjNpR1uVyO0orbWFm+8SM/+rEhcT9Elmvoi5ksVBzKwmRmpkyx2oiezbZtBB7V0uLpjQvTM9Tn5qjF7FI6nebs2bNomka5XI7qWS8b0umHxGUt65lh6KTSGvd9ZYJ6bE67IXxmZ0rUgwwCk/niHAvFJqXiYjlKeyF1GYhsZdyGdMpH1hWpZzI/zWYzSks+m274zM5mSO9Nkd9X4/TpMo6Taul3Cs8rU5nbid+aShL1OlPTMwSGHlllKZ9GoxHdfzkbInUxbkPifnUqlWJ6errrcmhzcnISTdPYvXs3d9xxB+Vymb179/LSl76Uhx56aNm1gNIw3HPPPVx++eX86q/+Kr//+7/P4cOH0TSNer1OtVrFsqxIKer1Os1mM+oYeZ5HvV7HNM3IofV9P6yksbB2hUKB5z//+WQyGU6ePMmOHTswTTPa4C8jFcgfy7KwLCsqYGk8pOMYN/qWZWHbdtv3DcNo+z+VSrUZ5zjxdA3DiNKybRvLsjryZ9As2Ggx5Y03x7quk0qlIJ/H0LQobzLdznw5jtPmDMu/5SZeKQvDMLAsi3TKxNJ1ROv+OsaSaQ9N18jlM2RzGo16+EyO40RpdKYZf2ZZHnHnXP4tZS7zJ39Cx8DESRnoTQtd03HTKXJ5Hb2VN02DZtNok5Vt2+RHRnBa5dWpC3GZyTzI+8vP5PUyL+H1Jq5r8flrUpw5Z/PWv7FwXR1Dc3joawZ/806b3SmD09MatWNZMhmBaSzKx/d9XNfFdd02ecWf17btNkMkkY21ZVltETjkj5s2MUlhGoI336rj1w3G92RwHIHTNQykiWkY5HI5bMPAaP3I9GS5xctL1m1pUBzHaasj8boVl3UgbILa8oeCaZpGynXI53OYphXVkXhZdSu3uBMavy5e36X+yXIIr9PJpUM9z2Rdcjk7DB/ZaqzdrEXeWJx2zGWz+JkMpq63Paes9zIfnY5jLxsSz2M3G6Jp8Og3dX74D4LL/5nG7Z/TKJbaZaZXTPKFHKmUhWG063o8LZkfKZ94HXUch7GxMdLp9JI63M2G1NKgo5PekSadFphmy55YJum0RS4nl/4IDEMnk8tCKkXQodfx+tapM51lF9fFbjbENOH2m1ye+F7vUdFMNk0m08Q0F/Whl712HCe6b1y3+7Uhum5AxsI0LbL5LNlMgKFbMVtokc87bXtiMpkMjUwmmoqP20Wpu/Hyi8sl/irz32lDhICUrWHEpu109Lb2BnR0kSGTCTCNoG0GpJteS/3RWu2R1Ot4/mT7KstcyljaENsObYiGiWnCyEgOy14s/9HRUdIpN8qnZhhksjmEbUGsfZX63Wmz43U1bkPidTZ6+lgapmkQNC2+/N9SXHylhYaGmzV58IYs//C/U2gIzJxGLpchkyFKK97OdtObTt2WHenO/MhnkjY2fn06a+LXdLymhqhkyWQCLMuJZG3ZGvm8HbWJumaSdtOYuVz4/C39ljLq1OtuNiTeNnbakG5+iK6bmFqq60SHfErbski74BPKu5tOd9b7uD7K9+Ly7LQnnXXFcRwsW8c2LSzNIJsT2K6Ppi0+r+XYWLaJjNeYTrsYmQxWrG20LIvx8fGw/Wy1r3FbGW9vnJi8V7IhmawGfoffJQyaxRRChHXXdV3SaR9Eu23q9Mnjvmcv/yxej+M2pFtaph1gWylMxyDlOhiOhq4v+sQp18BOm+hauBRE03Uy2QyBrkPLfvRrQ+L6GffR4/Xd930cxyGdTjM7OwuE/Qb5tzkxMRH1wgH27t2LEIKTJ08yNTXVNbRcsVjkjjvu4IEHHuDrX/86hUKBu+++m8985jPRzMzU1BSf/exnmZ+f55WvfCV79+7lpptu4vTp0xiGwY//+I9z6tQpbr75Zmq1Gi996Uu58MILuemmm7j++usBOHToUHTPXbt2sWvXLvbs2cOdd96J7/sUCoXIWUwynfnzTKIaLk+9li6Bphs4Tgonl2v7Tjq9+rnYXnJJWYsdJ9PQsK12E6Tr4KaypBxIbdxBtYv5SaVaf6UxCeenHCdFPpdqu86rgR5bJGU6DiMtOclnXUxr7aTT4abqsoBnHgS/apHZDTNH4CvvDx1PQwszmplIY5nhKbYQjkAUW6P4aymzOL3Kz2mtKR/faZHOA1g062CZ4djrZW+Ao/8gaEwC2GiWSaE1aLARdSWeprbShkDAMlMUCt3L6Xzyl8lkur6vE+pUyknT7RJrD9Ca9E1ls+A44c8m4DfhsRvhHz4PZ28N94R1hnzOaBrpVB7XPT/5SIc3l8utuDxiwQj3LqQLLrYFndUqnVm0IbrhkHFSdBXuOmPSOyS2BqRzDo7jsBYxSdmuRsaNYniwZa7gdlUb1wWdxV5pKpUitcFyatSWLi2VUY2l3BzLxbHBWcXxF9K2rlUHG15oN00NUna+bXlRpWoizGCxq2WaZGwbMhu7Bsl1XY4+Cvf9T6i/JrRf5TMWxZNWy7nVGNPANLJke5w1sha96Tt/Tmi/HCvdqv/tn9v24v40TXNI2Q6pfH7ZfJ4P3dq0lVZuGpqJhkmh0H7/820fVyIIwLHC9tKxM2RzS6+xUq3QlYCZSmFaS42d3FrRuSKpG6vRBaOj7ulV+PybHabmw7pqmw6mAT2Kc0OxjDBMvG0buNnOtjqDmYqVu2GQtp2+jMn52BDXdaPOtuM47N69G4gtJwN41ateRbVaZWFhgc9+9rP8/M//PP8/eW8eJclV3/l+IjJyr33rrupd3a1Wq2lAi7WDNoSQkJEwSGCz6Bn7gbEGY4Yxz+94bB/P2B5jP4MZYObZFjYwlllkGOORbckgRkKSH6tGkoW2FlIv6u7qri0rK7NyieW+PyJuZGRWZERWVWZE+sz3nO5aMirvL+/yu7/9NzIysubN0uk01113HVdddRXpdJodO3Zw2WWXUSgUuP322xkdHWXv3r2cOHGCVCrFtm3bUFWVX/u1X2NhYYHp6WmGh4d517veteaZD3/4w8zNzTE9Pe07NtjWgvHx8X+1zS6FJ7E/gWwAFl1coTe+t1oBq0Wescz4Cg+IgCowitLCMCMOxbRMp+dCGfQyDenYA9nsshfNsSTalo1U7J4Ut/w2/NW7BeYcgBXpPImQJE59FZ76b3bDrM3meHSKmlMCtF3Fu6a5jDq+10nstIClnzSq83nRrfSO4eFhNE3rLL7boUuRWkMg4o7gbiCWNMn4U/QCIWjkO0rUytHTYVl2mJFfjkI+nyeTSRLHZJpOYnrCyS08+hgs9Nmatt3Xa5hDfPPXrwhiCZ3wi4mJiZ7c5633kWXCwplGQ9g4YRnBc6OogNIfq96kxCQSCV544QWOHj3Kzp073YaSrb0FUqkUBw4caPpdNptlenra/TmdTrNv376mZyYnJ5mcnAx8ZmJigomJCYKgKApzc3P/ehUZ2VsAOO9auPZX4a9vjU4UMDyJsfMFUAot5Bl2s6pYUA0uiRjn4ZbVRKoCTjjEqC2WV1laXLqSewEL25rZCjlnMgk0DhYT1hPAEnDytC3QRKHECAGVqq3cpXvvKNgUztb9eUBgidB1oFAokMlk1mUF6+wcRqcoG/MhD8TEIDZTwrXXkEqyXCIT+OGfw+W3w+BYdHRYpn3+/eaqVCpRrao06pNFx72k4cVwStvqZvzVASUEMATsudj/dRmqGOc263Yp+G4jcG46mLizZ88yMzPTdUVGabn/atiV3foBpukUjegD/hWGJl3wkUce4Rvf+AYzMzPs27ePHTt2dLk5WncghOiZdhwFvJ6Y0V1wwc1ebbL3Jf+MlpPSOpqxAPWlnpLQHgEMUXpioj5X7rXqeGIE9iWn4FiqPVBVleHh4Z4p125fKRkf4vtQT4buCKITq1zUVS0FpAjoet0ncFpCrEG39vvw8HDbkLtWSIdUUL+mqM/h3DF45nvBWyfyxnpyL7dT9vpACJD8youjP4KlMxHT4XQo9yuxPJDPk816PDER8ge9ag9Xq9njehW+2KHYpVqyAZFMjSiOeKjumRKz2Y/jdBcINAJ16IlJ9yC8uJW3mqz1mMYFy5DeljYP9FFFz6ZptCyLPXv2sG/fPvbv38+uXbv6UolRVZXTp0+7jTX/1cEjxDVKcEaHMC/Lsg4/fDAaWprgqZnuOyFKw/JE09eekOIyQPd3rbebstabYJomCwsLPd+b7cLJwGbYDaYd7cUWFk4GzeXFew6xdh3XIOkRBPqg91CvKFhYWGBlZZ0NQpQOeJNw/+spKkUoVdu/LnD2X5Thk86/8Oa88e0r6YnxwiR6C7pdUMPZTy2barlYZHW1Gnn/oWoJvvO7tvCoVz1Cb8R0bBhqy50YwzYz6yHDbpSmiBahoQT6Dzg7O0ulUvF9bTNQtf7dZ5ZJoKLS5C+Nu8SyLGenaRrDw8P80z/9E0888YQbHvbBD36wo4SmKCGEYGxs7F9nKBmONb3l3MgEf/uB3o4fynSA1YWQB3oAP8WhFU0XTA/nSVhrm3T55Qoprcl5Tk5Mr/amqdsNSrM+wqXS5vt+Q9T5Vq5XoZNJiV+HWUOCSXfuifXsS9nTo20eUUy5J2HzEEtoS8A8rX02og3mOWN+I6rYBQkihcyzYi1/yuVyZLIpt1xwVFgtwIlTNl31Wny5oGFoG9bZB4y+NbKjFXGz1KCj2VQkpM3ZHB0d7UnUjzf/UeZGxz1XEsIKlyGE5/+oIUvBQ0tOzMUXX8w999zTVEawV3H9m4GiKCwsLLhlS/81whWsnJ8VVbRtttRtBDXumsrB4mokZPgi2CYSXafwegWKy/b37qqY4TKIZVksLy+TyWR64oIuLUHBgrwPHa0XWkPZiz6+PAiRemLogCFr0D/Xx1rITs6bxfLyMrlcrqPqZK7A2SakQPFRonsN7xxI4UPBLmCVTcLCSmf7rxeIqkhFpwg7YyprY/J7Demw89t65XKZalVr7KmI7kJo7Kt62f4+YmdeINxIRaX1Fzb6QIdxIzvaVQ2EoBeiQbASGEzcwsIC+Xy+69XnTCf/Nz8Mr70Bvvs3/RNOJkKqC9hGG0/0QozeGM2bgPzkk0/yqU99irGxMSqVCkII9u7dy7ve9S62bdsWG5GtkJ6YbmjHhg5PfANmDsP0uRFZNrzhZNITMw7MRTA2tK0ANnMe/PxfwKeviIaOdUOJztWv16BScgRIRzCynO7JEqYOzz8Il70bZKuRXntiJKvYkgMtZPvHwVasDriw1YEy2E241t+oY1W6BBO6spiyat56uk93FksejeYgnHCkBLD/NZCYgn3nw+E7YHgaPnkj1JYivk/l/R0wT5Ere8Qe4eEPRzFWfUrG5vN5MlmnD4d8OAooDb6gF0GxoEA/1dtr2T8tm0kodjhUpHPWAqnE5IEKDW4go0sMPXrDlURoKHEHh3N8fLw3nhhn3lJDcOn/CbM/gRf/V+P1dme4te9Rt6E4SUS2UirW0KI4Qpj3Ou1FWFnQPeV1sDS5WVZWVnjd617HW9/6VgzD4Otf/zqVSoVHH32Ut771rX2TSK8oCsVikVQqtWlPTHEBvvAuu8rUB+6H82MS4BXZuyWCG6g1+VUBzsvBm/4E9v1UT4feNJpLLPdwniynnDINBmy1MGMBzM3b8ymVGCGE26m5F54YCc1Pm2tKsBJOrG+0VhLRQThPlCEb3hDFIHk8Dq9Vp7BEd8STcrmMZVkMrafxQB8l9sucNAHsvRF+5nfsXguqCoun7fAoK67yPv1gEpcQ/mcsCZz3alg4ZnuZYwnrFKD4tAepVKroeqphzY/wGMox9Xmbxn5SYMLmoZmvxUO5qduFUyaBV4A0sAocvhlWHoK5J2D2KRi8Jlq6/ML2W6GskcTXYnl5mYGBge73AZIRAhaMboXb/hD+8w2N2katV5Gu627vxvUYotaLRAJGDiic906VM3MmiRbDkKJAaiLBRb82xsrqb1A5vIf62TNd9wAkEomOCng1KTG1Wo3jx49z5MgRdF1nYWGB/fv3k06ne679rQdCCEZGRrqiVFmmHdO5Wodjj8N5l9mXYi8hfC4ZJRsd37aMhnVafr30v8AFN9rzkZ2Iz2q9xn3ugTwjkTjLRMPyK9fKXF0rpLfOk6IoDAwM9CwMU3gE2iALXXNFgp6Q4gurJfF6215YnIWKpy+FFXHwb7tk4n6HhqNE0x2Bc2BgoGOeGXb5O0/5ftsziMZaaklIeuxX0joY1GeqlwjbWlFvPcuE6XNA1ODMSVvIfPcfw9X/Fh79OHz5/45HiRGwprcWQC6bJZ32dIGOCh4tQO8fEadzKOGJ6b1GdQF2XQF7Xw9nPwFDmu19ueBmODoKs/dAKYYcW4nwWQle+JGRkZ5EVginsbGi2Iaqg1fBwTfDU3/vyGZeg6kQrKyskEqlGB8f7zotrUgdhu27FLZMC1/dZDCvsOWtaSb1DMrEMNaWLV1XYiqVCoVCgYmJCbfJpR+aJK3Xv/71JJNJvvOd75DJZHj729/uJtD3ixdGolqtdsXSXSs3tnC9TCQ8VFigmk4X8SQ2I4pwei0DBoCdF8OzP7Q/skzyVBOw42pIdr/5cOdoYzZXFFAHwNMAu2cQlh1GJmh4rowCiIDqSGAzm1qt1rtuxNKaGaDkyRCWqJNkwWbMAtvqe/gtcPOvw9d+CZ59qqE0CyvSkPfwkII+y2eQ2LcLmIDqi3SFL9Xr9c4teDL0p93cxCAvCUej83NWyxyd2LwL7Sy9RBwe5Qxl6nDtR+Anj8GZL9sOtUzLdRm5XVLOVZo1+0c3dEwz7cxXxLGmDrwlznPYPTv6IUdBCrq+rzWFK8ajxBhVm09oWWxtOQ2DGrz6LbBwMl4DUlCkJyGvSVSrVawexMMJozE3qpN7mPKc0daIGSEEuVwuElk8oYIiIJX0N2jXq6AYCTTdsj9DMtl167+qqtTrdUzTDFRi3FdeeuklFhZsdfniiy/m8OHDLC8vMzIywujoaE/dVxtBMpnsCk11T+PH6mI0fQaEaYcmveeL8M7/aisQUfaw0Fdh5ip4zc/bPys0GiSCExoVk1UqyKYkADUZDT8UwukwbcKq02Bv9qxtrRsYcqzBwPAoTQmyMlYzlvPSD0fUWcC918Avfxl2v7axtw9eDju22Hs/MmHTY70PrhcZ04ZX/AWU6Rm4/V7bk+UNadwMNE3ruGS+Oxuhwnl0sPop49qLkJyYqCEATMiONvi6koKEU2RU0WKiy1m71gbBYIeOqAk3mMyJoYzCougxUtFQYsaBLA3DS9+iEQcbGwnGqt37R0vbd6GabBQjufidtkKYjaP+klSaCXASdHAOuiVrtkLoDdrUhKOQqg2yoqy0WCgU3LYQlmVSLM1jesqnLS0t8cgjj7C66q36pPSFzKEahoFhGFQqFXRdZ2lpiYWFBebn5ykWi5sKI+vlsepWeJupu3udytmIEtCcAdNZT4hUhEqMpduHJZFu7MGEx1uqqPGmBgTmLgxHQ4Ow7MtNr8Lj94JpwCsv2h6GC261FZgMoEY8T61V7ZpfdF6TwkIUBLXAXIZ0Gl7/i/alpqVgy2HYMgVv+i141Z02847UYh6SE0PTa/Ft/AT2nlKAC38e9l7khBp06f3XxTM91gTf+zsOIdiAhGkPvYZPy3CyGNICBOsQkiIKu7MMey6mttn7SklCItf0SPSQesk6GuX1mk7pSYNmJUYBfuaP4DWXgmHZ3oY4EFYeXmkKJ/N8mAhhlmwhfGirbcFPJ2FIgaSPxy1KePMh26ID+nqVSiHq9h2tqg35y+v16KRITrfwN3/zN/zgBz8A4MiRI/zRH32co0dfZqmwhGVZnDlzhvvuu49isUilsgpYVOtVdKMOqkqxVGJhYcEte9xrCCGQuosrOh86dIjTp09z6NAhstksf/Znf8a11167qWaXvdq/iqJQr9e74uIzPR3Gf3gvXPNh23rcUzh5Ft4Nq0TY8sYyHMuJ45VUaA4bUZqa1kSLQAuwIpW93hMnLFtoEgKWC/bXWtlm0PlJ+xnVea4pNUAIdF3vfQ5Zi1SuqjA0CblB2xJG08UWHfQaZFOw/4qGd/ndd9tfExq88Bhu5+6oYIVZ4+KEx1OkYkdjyNx02bTUL3xqIzAMY938PChCIOrpFJatoKtKQI+TOPhWWMxKDBCGbYC57XftPfSt/wKJmLsRuAK5z54yDMNX4Oz5tDp3sbzy5PaZfDNc+cuw+jQ89xQsz8K2A70mxoe8ECE8Do9oK+pnQMnAuZfDpbfBm37HvouSaShEVHG1HcLYQfNW9H+6W7JmK58QTj9sNeHxmEqjNrQtF69X7WiajUAB0sNrw4TPOeccvve973HJJZfwve99H0sIPn/Ppyn82Ql+8Rd/kX379pFMJnn66ae5//77+djHPsZ//vKfc/V0knMOHeSz/3AfheVlbr75Zt7xjndE2vqkqcTyY489hqIoVCoV9u/fz/e//30uuOACxsbGIiOoEwghSKfTgXFyncLrslspw8OfgR3/b2/Du4TArkzhIV9NRnf7mo4nRks33OVeTwxKvJ6YIDT1NugljU5OjAJkUo5FXIdDPwf7L4HvYls4W0lQFIVUKtWVvdkOfjKTmoA3/wZc+29gcLLhjekHeM+Sqq1V/HqNsHCyOIUAS9iW3hROuKTnNQVbibBEd5S+ZDLZccEJV+Dso3whYdgemOvfD5e+s/m12NYwzFIeHSUNCHuuVM0+e+mRhucdiC0HTFaL8os60LQkWgKi1kItAxJ1mAHOOKOngIvvgEwORq4B7V5/xSsShPAu0URXPNXJqs+C8loY2QLv/ovm12I1HDlaadDSCdXzYJutl8lkNmXMd9EyF6LsNJ1VG3ekoti/0/Dv56el4Nt/APf9+/WfFIEdIvmhp2HXoebX9u3bxwMPPMAzzzzDiRMnuPGGW1icX+HY7I94+OGH2bVrV+NjKDL0TaGu63zp619nZGYrB847j/vvv5+rr76a3bt3r5O69aFtieXJyUm++tWvomkav/Ebv8EXvvCFniQ0bRaKorC8vNyVxH7TaN4MKS2Cg+enxETIJGWoo+vCpFnQVGIKy4D1Kk+9u/Ass+HuzacbSkxmK7z2Vth3Av7ynWsT1IUQlEqlnpVYDpqfkSn7X6nUOjPRCQaugtXmDKlOAaKNUrQho3fYYGEhBz2EcPKuVOz+CtPbofyK4yVVuhtOJvfl0NBQ3+U4dgKh24aF174Htr+q5cW4haWA8eMgTRieYi2arYxqvav43hlkjoJTzMaLSmWVmp5EjXq2nLs4TaNjukpj7tKD9i+jzE/wRTt+2kGobK9RA/IBed3xBLl1hk7mrVAo9KTEsnDuaUX15MI4oZYa/uFkRh2u+7dw1Qc3Pm7WJyR/x44dbNmyha997WuMjIzwv556jLHhHbz5zbdw771fxTAMFEVBURQ7X1gIarU6dV1BN03eeN11vOY1r+HOO+9kZGRk48RtAE1KzJVXXomqqgwPDzM4OMib3/xmhocjSkJYB4QQDA8Pd6XsnVGP4YBJi5Q3HEhreaCXw9ftsdP5hhu9OTm9p8MHENaQB9rSoMn+J72FvgS1k3YOjOWUWrYMm8kkMzC6HbScvyemlyWWXctvyDONhNRod7fMDwiK4d6MJ2YjW1M41rh2NIkIQznXjG3ZhpQEdn+AS/8DXJuHHa+2X1doJMluFrLEckcKTEDoDzSHPUQFYWIbf9qFmjp7Kw4vctiURjpPwlb45NpJJSYhw4edSkhRT1NQOFk2myWdSjYqKprRWNHcEvqToPiEPiXStlfbikmJCQsnE2prTkz0qAJDCf91jdNWYgvbIXR0QF+3ZM1WCGDna2H/tZDO2bQoqn1XJXEK4Ii1tCez3a8eqygKN9xwAx/96L/lQx/6FRbny7zw7DG+/e1ZTNNE0zTS6TS7du1C0zT++r99jRdf/Bdu3nMlN171Oh597DFeeeUVhoeHufHGGxkYGOgugQFokrQ0TeN1r3ud+/P5558fGSHrgWx2mU6nNx1758eces4KLMBotlxEGbZh6bZladchuPrD8PCnmmPMFTU+T0wYOmlO1Q3Ij5+ikUQsjJbcIW2twGRZFuVyuafNLgUEluSWPTPisIGFeWIUJwYvKkHTm0/S0X0asQQsPTHutlLgsjsar0tltBtklcvljnO1wkoHryc5u1sQOmD6l32Oze4SNk+xuGHsuZLzZBmA2lBi4oIbTuazfpWq3ezSZu9RxpqCIeCq/wsKvw4LjvVb3jNa2qbGrLNBN/Dm6SNg2H7wpxo4JXn9DB5xheFJhHnZlfA5LBaLDA4OdpEoGxZw0c/Djf/GnjtDxy2ZLT0xwopONjz//PO5++7PMTExTnkpycG9p5jeo5FOpxgaGuL9738/Y2NjfOxjH+PsbJHrXnU9e7U5crtmOJRJUa5UGBkZ6V17iTbQjh8/zokTJ7j66qsBO8FO13W3wWVXYgG7DMuyGB8f70q9bENvbBqTxqXUS8icGO8BVyNKWIeG4pbKwqvfCI9+yicHKEb/b2AiYyIaxm04jahUGgKk1VqMQeZ3eKZWmYUAACAASURBVJBIJBgaGuqJ5aZ5oOCXm0IMIhTMZThGu9ACNRGxtVw0PDFtFasYw8lkGe8kjgWunU2m0/kKELQ2si9jywXwgbUKih5i3e1D40vUe8sywFyxG4LKnxXVo/xJgiJ3xTjD+zipB/J5srkUG+pttQnlQnpiRvZA/lxYeKb5ddluQBYAikmHaY8OhPBeQ2AX2+hHdJIPGTbH4+PjPTFIWthyl7essuoYh7yemKiQSCTYuXMnANUiTE/tZvu2Bn3SYTA2NkYqOUaxVCCvr6AoCjMzM9HmRDg4evQo6szMDFdeeSVgW+r+6q/+ik9+8pPMzs7yyCOPUK3GVFswAKqqsri4iK5vzsdbq8Cpf4aBSbjmA/6J2j2BU53Je64i9cTUmoVcBVnRyvk5xhLLcljfZo5EJ1Tpur0fVBouadHiPfOzCFuWRbFY3PTebAfZ9VrJhF1eMSygIDT8QU1Ev7fCypQ6TzU/HBGMul1pJoO913JDza+vO5ws4DOurKxQqVQ688bIvKU+Ek4sHbBaQ28dxCXMSa9iQPjkmj/oMcrLdmPeoQn75zWx9TGtqeu18uGbpXKZak3fmOF+M5/HMSgqGgxOr30rzam4YdY2McZmIHNeAoRwpeX5OJBoE0Is78s4yOqEzSlN4Xj+WFxcpF6vBz6zUayZM5nYn4m2xPK/NsgSy9u3b2/mGQ899BC1Wo1kMkk2m+VHP/oRKysrcdHZFpZlsW3btk2Hkj32X+G+P7KbgF39b2ArEckwJqA3C8FtO2P3AFa9ERftui+9if1RhpOJ5m9D5z+iC1j3eGJkOJlltnhifATyRCLB1NRU70sMBrqrejt0O8gGoSrtlU03byFCi7nrielDGDWol+0O1wns3lFeSLq7wZcmJycZHh7uKCfGHS5AeIoaslR2EK+MKww2XMiMTozTnTzPTN7+uTVkOtY8Bfx5w+jIKPmB9MY8MZuBU4UykYCB8bX7OpH0hJPFgNBzHzNjs0wnqKSPjB1ehE2frVcHP7V9+/auJ/XLsVvXT8pjyRl7z/VtWD+xbz0XqrfEciKRQFVVDMPgX/7lX6jVar1LUN4EVFXl9OnTm/YSFQq2PqFgM7GoKjwKA7tGuOfgR3mxWB6GLMOzYgsbaeNxafdsVHSaHk+MtCBarYqn1ojzdv/ONJmfn++dB1OOlaBzSTKq/BNh5+MmaL+fZXWySBEWUhBjxKylg1GB1AWOBc4nQla4/20OCwsLFIvFzh52xmsbIRCD58N01rFt+XvptooYfsm3cUIaXdYoe0rL14jhemLUtfO1vLxMZbUeeXUyl387ZW4d214j9C3mdRVgu2nboDkUNnp/h2XaxoV2nhgXcUV2dJBTFLbEp06d6sl9Lmjhr4onnGzEvhtaq59GhY0YzYQQCCGwLKvnVY1liWVN05oT+9/whjdwzz33cP/99/PQQw/xW7/1W31ZnaxbOTHeailRekKgEf+4FqLnB94qgZqxmY60oLQ2u4ytxHLYaxH5zvV6Q0+QowhjrSemlQRZ3a8b+Vp+cMPtQmwLzRdbNJzQ9cQEKJtqxIn94Fh/neovwU8R+WVrGU54ZxtjQjfTFzaUqxWYURzd3oJGwSo/JUbp5kStA2EKpohB2ZNN8uReetVboFyAkWnngZgMVrIqoW9OzECeTDaJkFpoVAxCFtlJ2AYE39MR7TZfAyUTHgobW06f6cmJ8TNIxqkEOuumBuWZd0Bft/KvWyFoE4KHU/nUIDKjTLlc5tlnn6VcLrNr104G03vWzbjuu+8+lpaWOHjwIPPz89x444097Zcn0cROTpw4wfT0NJ/73OfYsWNHz6orbRYyJ2ZsbGxzm8tjbZFCfJRVk5qTYqJjRGIVFMc7qkrhqcUrFHuzyzYemqjc1lKJgYbwVJ1rjsdXEmvvNsuyWF5eJplM9ia5Xw7YAW+IohS1F0LY1vKgcsaK6ghZUSoxFigjfZXe4cLSwaqAGkHlqGKxSCaT6ah6jHv+Ow4n6/2CSk9MYDhZTF6+fiqAIPPSNGee9l5o/1v7YJRUNYb0W79SqUy1qqLE4YmxbINiQoNJ4KrfgXOudB5QGs/FAWERWMRF9hWJ67o2Ddtb4HqwfBAXba7u2XEwkT+li4uLpNPprsvDfql0kgItY+dhRbXvnnrqKe6++25+6qd+ir/52r3cfN2dTI5P85PTP2FqapJzzz2XarXKM888Q71eZ9/eV1PTa/zwyBHEwiyHtkxSLpdZXl5m27ZtTE9PUygUOHXqFKVSia1bt7J7926WlpZ49tlnyWazHDx4sCth903LOzo6SrFY5LOf/Sy5XI6bbrqJyy67rO9CyoQQ5HK5TdMlN4jqyQ2JAvJwNVn1I7wEjTOgTjif2alL3uqJic39y1qlqglaNOtkGnZJUlG346K//edw8iW40KOXqE7lGi8URSGTyfTUAiEIEXodK3nk8eWOQJAg2BMTdS8PIWxPTNyhIX4QVbBW2oe0dZPkdDrdudFHtLcUgr2OufEkCmPQ6/wvB5YVEE6m0HAORYywxP7Iw+6cefItgBAj3MqfPrwhlU6R0mKINTUBwz5/asJuevm6D0PeKbARN88QgsBy+mAbqxRZoSBimCE5MXEr90JgN1dtg05aNuRyuZ5U6V0bWdKgIZEGo7T2nlQUhaPlV/jx8vMbGE+QVtNcNn4Bg8nmPi6KojA6Osru3bt56aUXUVSYn59naEuSb3zjG9x88808/vjjVKtVzjnnHFaWi3z5f3yNvcllSkd0np47Q8qRe5588klmZ2fZvn0799xzD29605v4h3/4B37lV36Fb3zjG0xOTnLy5ElOnz7NzTffvO7P0YomNjc8PMzNN9/M4cOH+Yu/+Av++I//mLvvvpvx8fFND9RNKIpCqVQik8lsquyht2pRHHHxTX1ivC/0UMITAqo65LWGFQf60BPTCXo8T+ooJM4AChx71K6HvybsTrT+naBSqZDP53tGV0f3vCs8RbeQneTEyFDFKLeXAN8u4V64XquIN75Vt3NitlwMiyfssudr0KVwlmq16nRcFqHJ/X6NCSsmVEz7haIFlcEE1cQow5loGpBIi2+7PjGxCJwxhxr5wTKCwpUJNpv3ENJ44ZcTU6vV0M00qpzQqM6h6RiqnNhhLeXMW2v+UJwJ1mH5JjFuQMt07sqQcLJYwtNlDlaKTe33UqnE0NBQ+IMbQOu6Si+qmgThU2I5qWj8/bH/yX997FPAOkvmCVDyg3z5zX/JoZEDLXQoLC4u8swzz7CyskJxuQgiyZMv/H88+eSTnHPOOUxMTPDd736XvXv3slot8sP/9RCF4QxWNk1OmJx7wH5PwzAwDAMhBJdffjk33XQTx44d44UXXuCRRx5h27ZtFItFTNPEsqxNG3yblJjnnnuOv/7rv2ZgYIBrr72Wu+66i9HR0U0N0AsIIchms6hqd9IAg2L4e4mmDaxEw4qEgAowotnCgFtNyisYxGh9CpuDqNbJskAdAs40J9d5x5eJ/V4oikI6ne59f6WQNVKIPvRd5sSEeWIizYlxvEOKFr9VtR0s4Pyb4Lq7YGymd+OkUimSyWRH1cn8UDEFS05RkKW6/a+SilZJhv5cxzC+5JIcwcYXlp1Hkehxq6p1Q0Y++LDGZDKJpnkmMSIGIQxbibEsePWbYce5kPREDcWVa9WEjhl59Bq1VE768Eh2DdlsNhpPjGfpEpqdK9mq/NUtnV84cAfv3HvLhkZUFJXh5NrGnUIILrjgAt7//vfzla98iQe+eR9aUuVXP/oLlMtlqtUqN954IwcOHODzn/9Lts2cw8DgKDf81Ks4/6cuxtq9k+9973uUSiX3PaUsJN9fVVW2bt3KW97yFqampkilUhu+i7zQ5ubmUBSF8fFxJiYmeP/738/4+DiKorj/+hFS09sM3ItH8WesPYfi+21PISyoCzteWpa7bW1OGPeSB1lV7TWLgFFboKZtOmQYyxq62nhiTNPc9N5siwBBwIsGmdHFbgnhWMsDLIdx9ImBkJCCRLRCZisEtgV4atfa1xTvQ5vEeqrG+HlimhAnj+ijK0k2Lg7imVEbEywLEkPtlRjXOh59tKk9vs+EWKYJoiUjJsomvSZc4CMXxq3DdNJyINbceckn2rweRzilhBu2H8T7O4hBDZU1NxgO5BtO5kBNOEqMz7CZRJpMorv5OclkkgceeIDvfOc7ZLNp3vfuX+db3/wWv/Mffod0Os0FF1zAgw8+yNe//nUUReH2t93JrsH9fOXLn2D1fz7Ire9+F6lUinQ6TTKZJJ1Oo2maq6gkk0mGhoa47rrr+OQnP0kymeS9730v27Zt2xC9tVqNpaUlALTJyUk0TeOhhx5ieHiY++67D13XURSFrVu38t73vrdnoTGbQSKR2LSCpWkei3UMOTFqDN4PIeww4KRqXyZb98Mb/h0MeSMG+zicrI3XuusQwq7gltgNZx6HjI9Ql2gTwt3rihwCwCckI3Z4c2KClFCLyMIzBI4Smgq4aKMhJRgREKGqauc8cz1eD9mBNU7ELW32EQzd9sQEVTCMZZpkk2cf9qiqCRQ1nsVrzU9tgup5KAbI8s/tENV92A4yNDiIhtiOpGjM32aUrFBZc4MLIFibS+QqhQkQESb2X3DBBXzpS1/CMAyy2QzlpSy7t5/H6Mz7yGRthcSyLG644QaSSQ3LzLJNTHP9r/065vgg6YMHUFTVDVWWnhchBIlEgg996ENomsZ5553HFVdc4UZTbRTpdJqtW7cCnnCyq666ipMnT3LnnXcyOTkJwMsvv9z7sJgNIpVKbVpYlPsyp0EyGf1haw0niwLSPZl0hODRXXDTx1vCpGI0nYQdWhHRdrRMm5Gk98BPvm0nfEJL7pBfbL5jdeh5acEOPDFdr04WcltJT0yQJ011lJioY6SVgL46Ue0p37Gdf0HNEru1islkcg0/D1zSoBdjtgCvgSPNxRF7H9QnJg5Dg7CAZEBOTExw97HPnGiahqpFX1HGPX9hPCCunJiAvQUQWzULBzJHU83484PYDW0i2BODN7KjTbJmN2TNjiEaBm6rHB0/U1WVwcFGmFnJAi2hMTQ05MqGiUTCrbhaLoFlCTLpNEo+b3sEAubIW1BmYGCg7XMbol1+U61W+epXv8rf/d3f8cILL/Dss89y7733srKy0tUBu4VKpYJpmpt6DykwD43arneFcCG6G5CM01tlZzNu1/WQbBp2qVLNY8JZY4WKOSdGaZckSHQ5MdLVqw00Rxp7z6kbGuVZACEEtVqtZ82eOs0LaFJgurWnO9gXQgSHz8TRg0hYTshYgKAZdTnqTtFNB0OtVsMwDN/3Dxu/HxA0B90Mu1sXZPJwH02UZdrnLNS7EDUCeFddr2OaHsYQV5c/H0QlF/hBgG1q7lNjgjsv7WiMlbjOPFlh6Ias2Xb8Vk+M8zWRAGs+5oiYjtYu/nPqitFnz57lxz/+MaZpsri4iGVZXHbZZb7NLoUQFItFVFVlYGAARVEwDIOlpSU39k1RFPdnqeFVKhXK5TLDw8Mkk0ksy6JQKKBpmlv9oVqtsrKyEtowcEON21pgCZgAbv5/mpP5okJTieVNHPb1/KlRt41KQR12FQWUGJl2kIs8KmFBOHHuCad6rEuT1xPjkxOjqir5fL6nHszA8AfPM+1+6hVk92sZnukHNYHbjC8quGU22+0dteXhiBHkiWl6aJPI5XId88xO+sTEIZ+0HVMKc1FbzKWg1EdCpmXRn+GmEj6bJ5POkEolYtlTgcsnQ6vjav7cYU6MIh+OOs9JJva3iQyKK/8KPDlYQby/A7q6IWuud2hVA1HvAyUmzMMcvw7TUGJGRkb4gz/4AxYWFtyKAqlUylcYO378OJ/4xCdYWVnhD//wD9E0jc997nO8/PLLnH/++fzsz/4sDz74IPfffz+qqvJLv/RLTE5O8qlPfYrFxUUOHTrEBz7wAb71rW9x3333kUql+IVf+AWmp6f57Gc/y+zsLIcOHeKDH/ygb9ycoigsLCwwMTGxqWaXloCxw7D1/OgPW6sgGhXzNnTbE5OYaP+MTPiPA8qab1pej8hqLiybhkS6mZTWcLLW/WJZFsVikVQq1ZsuvyHCZcvTXR8/dEQBymBAOJmjxES2v6RiFXIHKT7fRYVW5dgP3eBLxWKRbDbbWY5jyD4TSuDLkaMhyEU7rpD/9ctEgF1oIEiJiVGw9I7vxepqmVpVo9HzJBoEhbiBRy6Igph26M+IfsATGdCffdFDPTF2vkzw6i4sLJDJZHrS/N0rA7q8BPueNLC9qnFAIFitLGOag2hamw0YwPOWlpZIp9NtGysLISgUCmQyGVfGr9VqrpNjPUZgTYYXPP/88wwODvKtb33LDTmYmpri9ttvX6NITE9P8773vY97770XwzB45JFHePLJJ3nVq17F4cOHqVQqPP7443z4wx/myJEjfPOb32Tbtm3s37+ft7/97Xz84x/nhz/8IU899RQf/ehHOXr0KA8//DAHDhxg+/btfPSjH+XTn/40zz77LBdeaLcaXl5e5uzZsxw/fpxSqUQul8MwDOr1OqZpoqoqpmmSSCQwDANN09yfZS1qb4WJVMZC15Po5QSmaWBhYpLFsEwsYVKvNL+nHMObsAQ09V2Q43jH1TQNwzDc90gkVOqmhUUWXa+jGxaJhMCNPrKE/bmqVRKOh0t+Fu9n8n6VNHjp8dLcoMugXk9iiRSkTOpGHdVUm+YnnREYlkatolCvG1iWQFWb30vOcdhcS1pak73ke8jPZBiG83sT08pgoWKYdSqVxpwrAKpqC8ByqnSDaqWC5tCRTCab5lquhZceLx3++yZJQtMxjAymnmBoty2hyDF1XaeuG6gJ0I0khq5gWCZm1URRVJeOer3etE7yM1uW5e6V1mRB77q1fgZJn2mlsEhiCoNaXfeda9NSPZ40HWFaVGo1NGc/tY6RSCTa7mf51e+zePeEoqiYzvolNBXDrFGtAjTeK5lU0M0EVj1JrbaKbiTQ62v3tXfPeufJb/+0zo93D1iWhZZQMEx7nXS9jlCc9XTmWlVNRK3RrNGsVTF1HUPX13zmVh4StK/DPov8OwsFizS6XkPXBYbReC9NU7FIYAmNWr1Kva623dcSfusm58UuY6uxurq6Zh29PERVFQxTRZCiXq+h6wqmaVE3FCoVk1RKRa+pyGaqwrKoGzo4YZTe9WrHj7w8pHUv+s11Iimo1xMYJDFNnWrVQFUbfFE3dCyRQV9y+KduNp037/zI9/XjQ3L/NPNNfx6SSCjoOlhmimq1jmEIajXTfY9kUqNet5p0HF3XMWo1FA9fDLtH2vFW+dm8ZzehCep1DdPUMIVOtWagKo07SGBgmhkECQxnHhXFn19758d7rsJ4iHRfeGk0TQtLaFgihWVa1Oo1Empj7lU1YX9GyWlNk5ppQrXqeCqVpnOkqmrg3eg9b955bj2rAguLNLV6DcNQqNXsPWC/ZwLdsEBkMCoGum5gWf772vs1aH686+U9I977Qf5NJpNA1xWMcoK6XkWtq1hm47MkEmDo3o7LOrppYFQqa/bvRuannUzlfa963UKIDGbdRDd06rpnT6sC3UggSGEpBrV6HUTjveRXv33tPRN+PD+Ih9jvBZalYJoaRlXBMOuYlWZ+rWkmwmooJpZuz59ZrzW9Zy6XQwhB1b7QfM+ol3d0wkO0JAgyCCzqeg3LVFFVA8NIY6GhqBZzqDz+FYsr319DVRPouo5lWfYZlckzLbzDb4+Fva6qKl/4whd46aWXqNVqZLMZzt1zKS8eOcJdv/ouxsbHm3iMRFJTUYRdwtWV0Rx8/vOf59ChQ1x//fVNfFiObRgGn//857nkkku48sorAThy5Aj/+I//yPve9z7Gxsbc/VipVFAUBV3XXTpkFVjweGIuv/xyCoUCb3vb25iensayLM6cOePrRpNWZknU0aNHmZ+f57LLLuPuu+/m9ttvR9M0xsbG2LJlC48//jjz8/Ps2bOHsbExBgYGOHPmDIqiMDY2RrFYpFqtMj8/z9TUFLlcjmw2S7FYdMd89tln+cpXvsLc3BwzMzM899xz5HI5tm/fzvLyMvl8nmKxyODgIIVCgeHhYUqlEvl8Hl3X3fA1cBKSBurML4xSPJ5ibmGVWn2FCjsplFZZXKxTKKy475nL5VhdXSWbzaLrOqlUyr34ZShdMpmkWq2SyWRYXV1lcHCQUqnE6Ogoy8vLDA0Nsby8zMBAjuMnV6myi9kzZ8mdNkloOvqqggoYus7S4iJzmOTSaVZWVhgZGaFYLDI2Nua+V7lcJpPJUKlUmoRmeaDy+byr7Ml5WCoUSFkT6GKKcqXMiROnyGby1Go10uk0tVqNgVFYWBxk4ZTC6dkS9ZpBOp2hWq2Sy+Uol8sMDAxQLBbJ5/OsrNjzJBs8yvfSHSHQsiyX8dXrddLpNNVq1Z2f4eFhCoUC+Xye8uoKq7XdVITCwsISCytFspmsM9egaAlqpVFXeCoXixw7epSx4WGWl5fduR4YGGBlZcWlN5PJUK/X0TTNZZ7pdJrV1VXS6TTlctld65GRUXRzmeXiNqqrOZIjOpB3r4mFhXlOnlxBS6rMnclTLOaZny9Sq1dIpez3nJ2dZWBggKmpKVZWVhgcHKRcLjM0NMTq6iqZTIZarcEoJXMwTdNdh8HBQYrFIgMDA+5nWl5eRtUnMMQUxUKJkyfPkkplMAzDZQ66bqAk0ujmkMNULIxqlWPHjzPirFsul2NlZcWdJ3lGNE1rYtD1ep1UKkW5XHbXa2hoyP3qfY9MJktltUKlthutCLOzp9FSDcWsXq+TG9CYX0hRmR/n5ZdeRuQHKC7blhe5r2QT22q12mQAkIxL7h+593K5nHsmlpaWmJiYcPlApVJhaDTJ8sow+hmLU6cLqAnLvRAGBgbQrRLFk40yj6dfOYk4e5alhQVGRkbcs+MKgY6QB7i8oFar2fu3ZZ68ZySbzVKpVMhkMi6/sCyLUjlJnWlOnTrJ6FmV0krVPdfDI3mW62nq1jgnX3mF9EiO5WXbmyL5UbVadS2EtqKYdM9guVwml8u5vOOFF15g69atbhJn61zLM6tpCeYXkpjWDKdOnmRuPkW5VKGWzHF8YYWx8UFOzxoY6O48nDp9Gk1Y1Gq1hoLm0FOv18nlci6PkHMq957cR6urqy4PSaVSriAghCCRNJibz7PKMPMLRQrVIoMD9hwPD48wP1egpu9haXGFuflVlpftPSDnR/J+uRc1TWuiR/LWkZGRJh4i57qVh+i6Tjab4fRJnUppmpMnTnLmrMbiQpHR0VGHriHOnqlgMu1e8Gdmz1AbHcJyzqx8L7kOmUymiR9JOiTvGBwcbOIhUlCSPCSRNJibG6ayPERhqUS9sEguO+juxVK5wEphJ4YYYmlxicTJZVLJdBMPkcJlrVZzz+T4+DiLi4sMO7zWu27yHEoe4hUAa7UayWSScrmMKI2jW1OslqucOH6CgYFhVlaKDA8Pc/T4S8yd3Y2JASiI1SqnzsxCOo3Vcn/IfV0qlVzeKuelHQ+Rlfksy3LXNJ/Pc7awSpWdHDt+jOm5DPNzy4yPj1MsFhkaHuT06TqmuZvCqUVmz5SoVe3y+XLdBgcH3fD3MDnEK7RLoc7vTrS/lpmYyrKwlKY4m+bYsZOMjOUolxs8JJPVOH0qieXEupnWMnNzcyyXVsg6PGRgYMC1bsv9JOfHy0OkPBfEQ7xyiPyMr7xSxhR7WZkrMHumQK1qG2oTiQSmVaeyNITJFOVKiRMnTpNK5ikUCoyOjlIoFBgZGWF1dZVcLke9XieZTKLrusuPDcMglUqh67orh3l5iPeMSDnE3YtqkmJ5lOqLdWbPFNENg5Tz2bLZLJZSplTYg+K4apbOzFNeWKDkyCNyXX/84x+zY8cO8vm8e5/JfS15yMrKistDvHKId67TafucackEqbSKwU5qZpmTp0+hihy6VaRU3oGuZdFNnRp5jvxThR03vUIu27jv6vW6UwDAURgVBeFV8BMJLK+xS/6cSCAsi4SqYrUoNW9961s5cuQId999N7/8yx/ErIzx3e/9M9/4u79FURLcdtttnDx5khdeeIFjx47xphtv5bFvPYY6/zw33XYLuYkx/uEf/5GjR4/y0z/905RKJZ544gmeeeYZrrvuOg4ePMjzzz/PAw88wGte8xouvfRSFhYWWFlZ4fTp0/z3//7fKZVKnD171m2WKf+dOHGC0dFRTp8+7fIpLzTJlAEefvhhqtUqb3vb20gkEnz961/n3e9+N+Pj4/hBvtnExAQXXXQR559/PqOjoy4jXF62D9XAwADj4+PMzs5SKBQolUpMTU3x3HPPsby8zPLyMplMhomJCU6cOEG1WnUPtcRll13GZZddxrFjx3jooYd41ateRS6XI5PJuKXWJHbs2OFLbyu2TMLqhTAzPUpCg0FgYijHxDhs2dLRW3QESd/09DQA1k7IAbt372KnQ2pm+HksBFoqxeTUJJN79/i+l3yPjWDHjh3MnYCUAsMTQ+w7Z8i338j0VkiWYNfOqbbvtdH63n6Q82OZ8P0sDCiwdSrLyJbmzn8CyE+sIlucDo6N8qqDBwGYmZlpeq/NYTvPD0ImA/tfm+KbNEKiZ7ZNs2e3vQY7zwFjFrZODZF0jPmmaTIxMcHg4OCm3c9yrb1zfepFSCowvmWEc/aM+K7fagXSmizIkSSZy3Fw//6m9+wFVouQTUH21bBzxx7SPp7k2e2QG4Nzzz3E1DagC9tInvedO3cCzfNl1GF0ENRzYc/ucd/ct5FzQXnBVky2790L27axowv7u5O5PjFnV77bs+cctvsMOZ6CTALO2bOP6WmYnt54N8x0Ok0qleqo+3T9NGgq7Nl7DjPOx1isC7JOGKqxG55lFoBUOs2eHTtha3t+0Q0cnYFhYOvWAcadeZDnfmRgK9k0TO5IM70FOrwCmiDXaz08JFmB3wGkLwAAIABJREFU/BDsP7CXbTOwrWV5hgYhRck1vGzfsR32+PP2bmF+EgbGYWI8R37MXpPGmdjJyvdsHjI5OcXevZ2v2dSU/exGecgrz0BKheHRPPv2necUSbHfa2AwywvkKGLXrVcGcuyZ2QaD3a1k1ArxCuSBA/sPMDONu9flfJkFuwDPxO4pdmyfCswz2qgcEoStk3B2H+zfP0zWJwpUWPADXgIgoY4zs3WamWl/4aWbvF++l1q182snzhtnx7bxpmJFAPOv2JbywcwI+/aOAA0+3Y35CUJlBUYGYeAS2L5tgpQP7//JhMmyc7uPb59mfGoLzDQf4kQiwejoaEclgdcjhySBnDbEnp0OPxbw1rtg/hYoL6d4DBiczLNn1wG0pGBpaQktmyH9ne/Dg/+E3SxjPXAqkNz1IZhppi+VSjE4OEg2myWTyUJCo1BYYnj4tRw9eoxHH30U0zR58MEH+bmf+zke/PY3OfXSK+zI63zhvv/BuadP8uMf/5jrr7+ekZERNE1jeXmZ17zmNXzxi1/kHe94B1/84he55ppr+Nu//VvHWKaRTCa59957SafTqKpKoVBwq6ApikIqleLcc88lmUyya9cufvKTnzS8WY7e0rTlstks3/3ud3nDG97AwsICZ8+e9S0tNz8/z5/+6Z/y7W9/m2q1ynve8x5+8IMf8JGPfIQdO3Zw+eWXs7q6yu///u8jhOAjH/kIW7Zs4fd///d5+OGHOXz4MJdccgmLi4v89m//Nul0mg996ENMT0/z7W9/m7vuuovDhw9z6NChtcvgWEHn5+fZunUrmUxmzTMdL6mMHcaJ5Sea2Fc33HwTyWYbHltK44ElpOy8BcvqwzKd3rnp5TyZYFZg34UwPg1zp+3fN62Z0kIPuMUq0ul0T2JovWO3g6ysJj0xUUEm9isB1XTUhJ2wGGWQuRsX3S7uPUGDoLiSwdrAzZ/swnwtLy+Ty+U6UmLcyKBAuqLNFOgkbznqohFudbI2fDKWRPXQ6ihEd9m1Gb+VtJVSiUo1gdvuskfVHf0QWPUu5vwhy8nNbAd7KZ1NGFMOpID2JapjzCkSArcyZRDCcmLm5+fd6KBuo1We2HcD7AP++U/XPmuHbCl2idnji+uv3GFaMJzvKNHGsgRbtmzh9a9/PePjz3LixHFGRka4+OKLueiii/jSl/6GM8fOUBmAbft2c96BAzz51FPcc889fOADH8AwDC655BKuueYaHnvsMZ5//nm2b9/OG9/4RorFIi+//DJg58GUSiV++qd/mrm5Oc6ePdtU2bU19NIPTUrMtddey+zsLP/xP/5HVFXljjvu8L3whoeHueuuu/jABz5AMplk586d/O7v/i5zc3Ns3bqVfD7P2972Ni699FK3KY2iKPyn//SfmJ+fZ3p6mnw+z6233spFF11EKpVienoaRVH4zd/8TTdkrJ2CIoRgampq00KiEM4GV+Ph6a3VyaLQF4TD69SAnHOp1MUBN368ncAZ0Liqm7CcvaEkYWg3nD3tXBjexH4fBp1IJBgbG+udAuMJOw+qHBUXLOH0DAhYP8xo95dUrPq0FkJn1cm6gNHR0Y6LTagJyI8FVG300ptJ94+1w7/VQ2/RBxV6vLCMaPbTeiEC5OyhwSFyuTTxNWRpA0cwiFw5dtCJTSVWfu/Mi6L14Z6Td2VAUZdOWjZs2bJlU8bydpDGRj9o7e4rw4A3XmP/6zY9Tp6Jm/+CgqrYB0CGUauqSiKhcu65Bzh//ACvO7iFgS1jZEZHueOOO3j44Yf553/+56YcGMuy2LZtG9///vf5wQ9+wNNPP80NN9zA8ePHSSaTpNNpvv/971MoFFhaWlp3T54mJSaZTPKWt7yFnTt3NsXbtlYKSCaT7HfCUyRawxQ0TWP37t1Nz4yMjDAyMrKuZ/ygKIpbmnkzwqJUYoIEwl5BoUWJcbsV9/ZGdPs5hXhiMHtOij9CqiJF1nPKKbEs18nPe6b49GazLIuVlRU3dKfrdEnLV8g8KN5Eu6g0Bqkgh1waokLI3upuuSchbKG838oFN40fQXWyUqlENpvtqNlYIgn1QcEysFi3f1f1CnLO2aiasKhmwBBQt4lMqgqDAd3iewLFySePoXx3UJ8Y0ep1iOAshgq+Snx6V7txV1fL1OtawxMTIQJH9PEaRY1AXh83fQIUaQz2gRLzXhOicY/7oeHFao+lpSUnzKp7ioxlBa+b1v2KzqEYHR3l+uuvt/M760kufO0VZLJZduzYwcDAgJvXqWlJ3nrbz/B3X/wGDz72CJdffRXjqzM8+uijWJbFLbfcwksvvcTMzAypVIrrr7+eCy64wFVWrr76al73utehqip79uxh//79/P3f/z3pdJpbbrll3fPcdNUcOXKET3/60zz33HPk83m2bNnCxz/+cd9eMXFCCLHp8soSrRbauDwQUUF+Pr9cCgnpiYkx2qBDxtzLeDLs0paK/dVVYrwXig+DVlXV7YPUU8R9s/pAhpOpyRChPPTe6K4CI6wQS2EfzqWLLtK2nn4HZh2SisKSLliqt3+uYmK/XgOc52a6H3XROQJo7RWC7ow1yxcBU7XCwskkKTEw+HYKez6fJ52x82HiQFvPMQ5F/donpvlp4grxbKvERBQ50RYBChbQIvz5PzI+Pt71yArXg9VmchJy3iJczqmpKd7ylrcAUC3ANa+/jmwWzjnnnDXPjo1P8s43v4Mx4xhMDMHO7ezdt8993fs3t912GwBXXHEFV1xxhfv7N77xje73d91114bpVmUFAIAnnniCa665hltvvZU/+ZM/4eDBg2s6PPcLCoVCUxWLjcDydPJWiLaRsQKoMZzuTnNi4gix7URxCotv7RYsT68Fr8LnZTqq9MQI799ZlMvlnnX4dWPwE8GXQ1yufSEIbC6mKg0LWWQ0hT0QYx8Gd/u0E6IG7Ae6MV/lctktExoGU4ecgGxAiwA/kkdT7f9m0wjI05E8XJSJlm9JS3SAghz1URQm/a2Y+6BSrWLopsd7HN3YneTExBoyGNDzR3H6nMS13G6zy37sZSP5RWhOTDCKxeKmZc1WuPPW7p7E4WcR549KCMvuKdj+AdB1A1Gt2iFuEUMWDzMMo1mU3bVrF6lUinw+z8c+9jFOnTrVe4vyBpHL5TbfFT1MS+8xlDbCcS/hemICwj0UpbNY3F4hKCcmKqFAeDwxitcT00JLK4NRFMWttNETutZ80x6RX2zSExPg9egkBrnrsOzwqLZojvfpMTGd0OD5tTynXSArk8l07L0WAopnYUvGnzC/32YTMJbq4a5TQngDMeQuSAUzILE/6gaOocngcaUvBYQKp1MptGTC81CfhETIvMc4c2KC1jIySvxhhSkxMRPYUZGLEHRF1mxBp0Yp0aIftEtu7zZcw1rAcLLnWs9oaOml1Q5NJZYvuugiyuUyL7/8MpOTk1x44YVNZY77CfV6fdMxisKyreyKGq3Q7hcPGZkSY2FvzIBqTfaD0dCz3mHtC1g0HpZBr92mw5MToyYaU+adM794X7tXi95UYaMXCI+Tljb+6BbSDSdL9VfolhQyg0JGohQy14Uu2pDq9XrHyrUQUF8FxYCpjMLZ6tr58c6ZpsJMNm6Riuj5VtgRi8ETY5nxeWJD0WaudMPAssz4ZN52vEEKcnGGk4VMSpy8S+bYhlXniyN00c1XC2B5nXDDarXa9fvcMtuHVjbBDTtTSCaTLC8vd+xN3ygUBYolFaMOhYLTWLPl9VpVZWW1SEZfRS0lMZaW7NCULi20bG4p+075ve5bYnlpaYnf/M3fZHZ2llKpxB133MGdd97ZkwTlzUJ2Lt00AhJ+ewVhhYWT9e7Ee5sqt4OCR9npI6w99D2cJ0eJISCczL3gWv+2lxxbBF8aEg0yo4+RDkzsj46UJgR5HiONI22DIKVPQFeW0duos1OYJgxqsJKw81/c92p5biod3cr6jtR5Il1XIfMl2i5fHDQ54WR9p8gEhAsLSyBEHGn94YidpiDPY9NPMWhaYYpC3J4YOvE8BofjbYRvhsGSyl/I/Fj1xhrL3nM9C1V36NE0+PvPa6ycgDvvNlETYk3F89PHNP7nHY/wrvKvMvD2N1H7xO8hspmulkbP5/Nuv5ggNF3tjz76KAcPHuQTn/gEpmnyyU9+kpWVlbbNLuOELN+2GbieGEdQcBOpeiz3mXKdWwTiSMKkOoxhlVb1qBGmZEXFEy2TRq5EyjaIqLQoMerardKNfRkEd03CPGkuYugTkwhYvxguNUt61Trp5dFnlT3UFG6hjc1iPXuzNWZ7KqNwrOwhwvM2oynIRqAIhiXQS5tCLCsYsN8jz4kJsT7Hli8nx/ehTVEVVNWzclZMF1ALpGzQGtYTFcKEcCUmr7tEkzzhs69i1WEcD5oSYMBqqh7Ypga4qqpdv9NFSGK/+1ytQZIMVY8Cq7NQK0NS8y+zb+qwsrKKsvoS6uIyWU2zu4PHgKbl3bp1K1/72teYmJhgbm6O2dlZHnroIS666CJ27drVU+FsPVAUhXq9vmkXX5jA1SvEmW/SSXUy+8Gek7IGlgk157KIO1FWCgIysd+9gL2D+5RYluFkvY5dDduzUcfhS8icmL6BtBRuMrmzq2gJEQkMK+iiciDd853EGUu6JJ2a0hxWJv88m4Ax1bRdNv87QgpKHW+g3p9JGU7WTyGdYeMbuoFpWrEk9gci5nCyzuZB+H4bBcLkCT9DX9TYrCGhG7JmK8wWI1H7B7s6bOeIe9HWgaYrcmhoiAMHDvDcc89RKBSYmZnhhz/8IbOzsz2P8V8PhBBks9lNJ1s1WayUBr/qNVz5tjU0KYqxO+kTo9qWgqj3sWlArQbjw5BqU6Y1qkIMwmzsjXbdy1WfDaMoCplMpmeJ/Y2B1vGsFdFKdhKqqDZSmaKCVyFtR1OkaKEjLKygWzZWmdjfiQLjZ2gZ1BqVxxThyYOZn+8CdZ3Bq1itfaF7oXcdQ3ofQzwxUeoNYcng7lxFfaVLg4IPbelUilRKazwUtRcmxPMfl0wXxrsgXp3UTezvg5DcVki+GVZiOczY1w1Zcw1EMF9w912BWDafWE/D3JgVHk2WUNY0jfPPP59MJsMLL7xAvV5ncHCQyy+/nHQ63TdeGLAFxWq1Si6X29T7SE9M1JA5Md4ZjbQ6mWSMbZ5xw+qihrDl7fzF0I5nRDlPSsL+anh6TzSN70OLEIJqtdpRQ8GNEeZDRyA0KCzDqVmY3tLzCXQrNfUPuwgNr+nkIosLLn/qAnmygXFHaKM5ybAyocBUGsTCIqjRhDhI9NHWCtcwYwgn6ySxPzahvM3v63odw0zHtrah4/axRTymdLD+h6vFtH+kk3mrVCpdz0OxOng7GUYciyjWyb5TnFyiGMI+hRDumjQFfjz99NN85jOf4aWXXiKZTLJ9+3YuvPDCrnYq7QYsy2J0dHTTBQeE5SPcdGU9Qk6OzxhNbvQe7glpfQsLJxNWTCHJ63Wf9wheK2Vrg0sJv2IcqqoyNDTkVs7oOl1+NPnAvtgEMAW3/w68cSvc+yUY6l21QWkF7zernBAhzV29RzUqr5WDEE7h5mV14ywODg52XDK/XW6aDCszMoJUzYSFRZic3jxxHRHV/iVFafQgihJCENonJurj4Pa46rNzCO09ablcnmw2Rexm3RYoTsiw6G1BqLYIjZqIW3vxiSrxIo6cMC9cA9YmLLbdkDVbYfnkRXuhaNgRMV0ddR0I4mk0XuuH06p6Syw/99xz3HTTTdx666185jOf6dtml6qqsrS0RL2+ufbMQjgNC6E5HGHTCD62vuFkXRk3HE2J4e2gEGehk0A0HaxeKnsyX0qF/Qca09W0Tj5zaFkWxWKxd+dGWmbWFYP/os01ex0SKgXfoC7NMQhWwgr2uIp+EPbCQt26sNdXVlaoVCqdPRww3qAGo0mF8isxSXYBiPxSFcHhW2sEgQgIDG12GZQv00MEWZXL5TK1mo5bn6wPkvqB/lES2qBZSYgj7gjXEuMb5RnjcnZSYhm8BmR/IhcXFzcta7YirMTy9Othcj/EJX13wkPUkKpuvYQssaxpWrNIsXfvXlRVZXBwkPe+5z2cPn26b8srb926tTseIs8MBC5IFw+hr5UzMi3GZ2y/x+JKZuwg9CcSMjyfPZ/yKDEha6aqKuPj4z2vItJJnLT9ch0o2nUTtWhiJ4MsX5EX0XD+68uO0g6CLrNuJsaOjY113PdLiPZWc+gsHCI2RJlvZWEn9gdVkLKfjIYgwnNi4owMV/DnD8PDwwwMpoj60nHtiXErK23g5sQEPNMIhY0+nygsMiDueQ2t1Ee4SDE9Pd31aKTW6o+tGByHgQHnNMShAK7nGLap6hYV3JgXXdfZtm0bhw8fxrIsLrroIgYHB8nn87ER1w6qqnLy5EkmJyc3lXuwrj6JXTyMlvARXOT3K0V44inYu9vjJuri2CbQQXhNXB2KG0S0+XWEyp6s8CP7+bQO7UeLZVnMzc0xOTnZk7Pj58VrRYMxC2CVUN9wF9FpeddIE/sJEQK8VsR/ec4uHfMzN7dPzIoSXVy2+fl5crkck5OTnQ8fGIYRPYIUK+h5NG77Qdsgjmmy1pOUGzHanftCoUCpNEzCnbH++ABxz2N9NWRPe+lbVeCdvwD//t/BG6/rPXHQ8WGL1a/WaShxG5w8eZJt27Z1HIrbCayw6mRxh2uJ8BPYL3mkrrjx4osv8uCDD6IoCqlUitHRUR544AHK5XKc9PnCsizGx8c3v6laBK7IQ7o8cAWp+Tn4o8/C/EJvBu9Uw44pHyZMuG0SkOcW7HJmvSDFI/mqw7gnpbVPTCtUVWV4eLirDM8Pgfpt00Z2Qn6i0Bqk+z4gXCVyoaCDkALFGxf90GPwmT+F8moExHWALip9Q0NDZLNtyv61QFYn7KeqSB3NQdR8y/HEBBldmrZepfcheLJRb6iAFHkCkTO8D135XJ5MVkPIA/vwT+BjfwiFYqQktiLu2P/5o5AcCuCngEudocMj/wg/ORoJbU10hBgW4pQnwtsRBGNsbKzrEUlhng5JU1z7LsyIHXeukxcuf52dnSWXy7ml5GZmZlhZWaFa7b+4Z1VVmZ+f70pOjFyJKBek3QYWcsvOF3srnEPb5lTgHPq4EvshNBTCffndPwtf/EpPSJAeBWHBubfDta9f2xbGj0zTNCkUCui63hO6Agdvgmi+4IQVWdJ6v4VudVJy1n35dIHgTO3uIiysQGnddJvA8vIyq6vrUM5Cqw44qNTgldne51x1gMjlcgswAqap9X658/+AJ37cU5pkdbL+sJN2hlK5RK2qOwKJgKUjcM+X4aVj0RDQyT6PYUKtGkwc9G84KNEgvWR/SfXWgOZFWDheWChcFFA77QV4ag4WC2t+vbCwQK3L8lioJ8ZBbE3H5Z3ZUcRHvHCVmLGxMZ5//nmWlpYQQvCjH/2IlZWVnluUNwIhRHes3T6x8pEYrH0sUqriSZIyRc8ETnfsEEu+208mQoTF1wItZk0d6h0mKm8CU7vgZ/8J0tB0ahWFNZOkqioDAwM9q07WaU5TLIm7dGC9j0u4ClFiXBxbAd2IrHmjb2ipFy29ijaDfD7fcWx3qKXQ6706dgw+9O/h7Nym6OsUfVV1K8QTsybhubgKyyu9JUkmWveDhOFBUGJ/NpslnZF9YgB0SKuQ6P1iB56/uLxWEmH2lKb9ddr9XU8ICfp1v3jePXAVgFCjqPMh/vMfw+9+AlabZYrh4eHIPTH9eH6b0EeeGG1ubg5FUThw4AAPPPAAt912G6Ojo8zPz/N7v/d7DA0NxU3jGiiKwtLSEqlUalMJV2FVi3oFX1edd0cYZs+smq7lt8+s5UDHOYlNh6fTakvrJaWlOofLUDz0+VnJLctiZWXFvpR7kNzfkRKKD4OxeqcYexF2acQV69txWFS1CnXDPoNRIExZ6HJ1MsuyGBwc7LzvV5vHVMWuTmPDtPsQVXvjPe4EsYX9hHhi+sVa2YQYCWqnMKyWV6nrSVSXuCVQByLRWIP2TOyCZAf8tPGycxcavZAd2hARoJj2BToIJXZfrs7DseOg60Aj7LZQKDAwMNBxKG6n6IQ3xDW3lgFKOoCvxazE1Go1lpaWANAmJyddq/GHP/xhbrvtNorFItu3b2dqaqr3ncc3ACEEIyMj3fUSKaBE5HRy+ZJXSPY+oPculktYdJS0JXTiO0EdJIa7KFfWWaGhcygeLpNwHCtNy6KwpjCHrO7XUw/mhnMDerygHXiJ1C4K5Z0itNllU8iDbisxEXli3GloR18X2e/g4CCpVKojBcZtyNvu0UQ8l1i/XfquRbXdOrUSLCIwJljrUNrjgA8B2VyOTCbZCKlmFUqm7RWNnpy+gejgrl6b+h/dKZDetb5MUO8gH9Lm/R7qNG3Nh+m6rEnnNmpBPF7AVx6A3e8kJJwsLLi+d0in02zduhVoaXaZTqc599xzIyVmI1AUhWq1umnN2BKNwhWKR4np9Z7xcyU2bYFanAkpDi0xhJNBQ+BsxxTtqmoeygyjJ0qMb/EFmofxCycTQlCr1bB6nR8QFk5GC5OJqvVv2KUREwK3hwoNl0gdanp0SowVYmjt4rau1+udG6XW6xGNCIFjyvMYsYIM7ddJUUDNYRcJBLvyXY/3VmhlSRnSGUO8cDuDgq7rmKZo5lkVHbrcn6MNWf1TiKQFQhBs1MPm801kRpyb1mqQbXotznAycPu9tYPaaoxJrBU+VldXGR4e7i5tkm90+FzUMIGR4eACQi7tT5+Er98HP3MLDG68WvBG0YfiRjiEEKTT6c17iVqtHImIcmLwsXJ6v6/0rjFhRyV6lQ5iNvsFZg8JbYlLvfMf4MB1za+37hdZ3a/jcJ11wrV8heQ0qa3DR8UN+1GJ6YCmxnRVbeHJ6HFhBgdhQnA3c2KSyWTHuVphdKmtCbsnXoAnn4nV+BInQgzR/z915x0nV1X3//e5Zfr23Wx6IwmEkgChIyBFERFFsCII2IL+FHt/LIDyiL0+6mMXUZAHC4oiRZASpBNCJCEJIT3ZbJ8+t5zfH2fu7Mzs7Mxsdu4sfF6vzWbn3pnznXPP+Z5v/45dTyWgr89XWl6KT8A0jYK3ewzNK0YyEaazWaMauPYtFUOHm0RwiSem2pE3LRbR2reU5MQAmOOrAIRCocZHJNWR2F/BRtpc1AwL93Ii74OPfAjuf7QJRI3Hi03caC7KhZtIk4at4OUoWcw+hpMVxqvx5KXNtFnqqqKcbtefuZIVQjKOOgc6ZhaR0sDKUXWjzvHGnSnN8EvXoWBNl2WufsUqo/Zfk4SnmiXFCzf6TUkZvLDTiSys46oOjcL6jdNaoWw6Dv2C42eieQK04nZR6UF45BF/92KdeWnNRiH0tsL4ypkuyrwKTlOsaVXDJqvNlWVDIun7mp80fX4a9srhGYIPZP6agJp9y8r5mGH40p+vHJPa/i9Gq4RQOZFj55NUUTHTgJesEuM4DnKKB0F5FFKzBCwvzrXcEVPCvP1ijPVGFU3Dxik4iepxYRbe5A+hbi1BoMrwjVibtVDLgqOEgbJwMp8fakFPqjFvTRc0a9BUut6SqjpgEy2ZVdFAT4zrunWHORaGqxImMm6NTSemK/a+lieNCuEs+wch61+YVDWlatx904BKpEnpIpGIkhXlX0RCvag6jX/6O8w8Ap7+j38ETKY8vIcmh1FUW0fTEOFZOn6N8HShlfXCNMZ7Ymzbbvh5XivXyUucf7E6AKsq1k2GZts29jRpUFNBI8LJxgk3PlXFHTeuFwdf3GizZEHYvioxNRegmCZPTNH41a6VCE6O46vAWVU4yXtiSkYXgoDtYDy93t/GdjWWvkb5NDbvYdacs2lAPQeGQg5y/q6pYsga+7GR8zWZcDJq5OqMCyd7saB5+mcpqkyGGynbfcl048MViweoo3zruPc0ExXmyjAMDLPcE9PEh1nFk1BZ6ZKwqw8yO+APf/ctz+mAvn4zFb+8hvJiEWiLUbPoAOW8H9g7OK5Hnx/hZLX6g8GLQAGc4nU/IaXE012aJLY3HiMjIw3pE1PyJLTmLJjajCkOCX86hteTE4NAZXY1G1XCDTyMs2r6pcS4eQGyBgMcl9ivCZw77sW8cjXccQ+cfFxDyaqZQwGU5/KoN9I0bqi9yMp316xOVo602zRrZs3E/gZ6YhKJBJFIhJaWltp01Vhn011icyJUnCavYYQPYSIuLlFtH9ENeyEiocweKHSdmelhwhTxc9sHnlX0MOqraDUNqHL2pNNprGyg7JKjOnc2AbXma1z4t5TK2OHYsOEJFVqm+8P4aufzlTF3p861VWe0Qa2PyBNREWKaqhgWUIP3a1qZPfBvv4N1H4BTTiy8NDIyQizW2IT1uuSwws0NHbou1BzyRcRgDMMw/GvM5yNaWlqmTne5BUGnKQtGSpcAI5h9KaUsGAbzU88R8+q80wff+S38+GCIRat9lC8QoMKRp2Pz1LDqiHKaHB/zF+owRcgyeVdzJS2prOqZ8efb4PhVykXdKHienxq0VQy7a0ZOjKS6l8gL+2lylMiklBhLNi+huJay0MCS1JFIpP7eRd7zqZoT03wGUTX+fiLccS/s2AOXvUnFvDcQweAA7+h8Jws+vBkWdY3fY0LnrXteAHaPvWbZvuYteN22J1xTvo1cGxIQrlREFk1ByAwQMjRmsLfIsvriSeyviGQGmAX3PAZPPQMnrGr4+DVz5qYSTtaIhVCvMD4dj1HWmxNTRtyevhJBpCGyZjlpdcyHmOi+VBqGhqCnBwI+tnKYjAeryRBCFJ7JS097gcY1u2R63KCzrK18lNcSe9nOQizJ8WkLjaLGjZmUL0JnXZZ88uFk04VqAme5PuBnP50aqFS5RkpJdjRJ2HXgmSdVM04/yg5W4V1SgBFJEiEx9qLbPFdMLSffdGBSNPlULKISPBltUkpWIgG3/gNefjLMnln7/jzi8TiO40yu2eUEGJ8tr74fAAAgAElEQVTY7z/qKUta8ak99AA88DS8+bUN34vBdAYtk0T+4oeIc06seM8Plw9x2J4fc4pzHULmwHKmVzgvT8hsEkJaipPFLzjyvX9HfKj4+wtaZIqYDDCPe9AK2s3058RMOE+WBeu2wuJVEOmDV5wOv/s/OOfMxnpk6gjVqsi/XiSY3pAj9eMGqtyjg1sucGQyJUrM0NCQL80ugeqKAvn6KuWs4vLVcPuf4Zs/hEvf3Fgj6STwYkmof0kqMVJKOjs7pxxOJp0xBtFMZSYyuotoNIr42e+gpw1Ml9u/7mL86TZeydfUTUvngOnT46nj/JRWhc3zwnbI5GDpIl9c5wKXhaxl0VMPoH/PUtJ4MU26yclPbaWHjWMv+ihwiirWTO96pRLLUW9dPvoU3HonnPNy5Znp6oRgFY5aB1r1Uc7i+yy5+j/wWyo+y5DQOG/dTlp5BqX1OYxP3vEJNTwxTc+JkeSb/+XXSfn5LgQB3aaDwbI3NS8npiqKQxZzOXh4LfTthbe9Db70dfjs++seq7W1te7y3wKHAEOYe9KwjdLpEGDkNGLB/WjZogm1bH+VvwP96HQGwgFfwsn0nI2V1bHbWjGjlctb9u+I8OwRb+Dkjd9Ez+Xy8+SjJ+ZA5ymRhD37YN4cCNXpsZsE2px9nOn+kMjSmciDj1MhWQBC4OQyOLbgL385k+NYx3yup1nVyYAJedaE6UPbdsOjf4Wuo+Haa+GTn4CPfgIW/h4Ob1yvPYGDnstAogL/FiCSBj3GDgJ2UaEIT3pvglBTM7djGrUYkywnyus58pt3ot1fIRLBgOV9ARbxIHpx/HzZbZ2dnQQCUzu3y+H1cpr09EgJf3kK0qPwxS9DbyecfipMwHumAk1aYLvjQmQBhKsTkyMvCgXixUDDpOF5YkzTnJonpiwmVBSHkw0MwsAQLFnU8MPPSI+QmzGTwIknoM/tBKDvJsggwVNi/JIFiiy/dW0gKZWrvLcH3nUtyG3w65/DnFkNJ810Mrza+h6tz6yBB06gfBKELpD3OWznNJZyOwILhkbzpf0ae+jWLQiUybvSdcn0j2AGD4bZc+D9V8DcGUpwOfyN8L8fhs6OA6arU+zmTXwNjn83HL284iEvBDz0qE7CupLXhD9DaP+zeRr9Fcy9OaurQVYl5HIqoaaBliVNuBwevJvDv3Mb3GVDeapZVOcVT/XTxrNFLzr1x5VPEV5OzITzUuzte/gxOP+t8NrXKxpzgxO9qyLi8TiRSITW1tbqNAFz+A8f5XJmvX8UKrDYkBScnU0QJjn2Yq6S5aM5qLquMv4V2NDtHNLScYzghM5RAYjiJnpZ219PTK0csEqTZdtw/kdgy13wk5/BWS9vOFmGkyPjhki988NEV5+D0MaUmP69u7GyAe77SwdzuZr5gK9VOvM44Nj/nA3JLMw34cRV8Nc/w1kXwAUfg3e/Gt52/qS8pBPhLP1HzL/hF3BPJUkSOmydM9ydBIu97s0ssVwDE+7LffvhyXWwaoUy7vlgYAjZcY7J3kzL4QvhDaeO500mjDwXILnmBTrZNkZrmfF4aGiIaDTaUE9MveFkJRgeVgaZrgDsBHbug7dfDMsPgW9+R0V9HL0SWlvGlNhNzyuDxNzZpaEj+/vV757ucXMvgbOiv+WwW36D9liyQqEQwcKcw6z085WOhqbjgJSYbDbLtm3b0HWdBQsWYBgGUkq2b99OIBBg5syZJBIJtm/fTigUYv78+Wiaxq5duxgZGWHOnDl0dnYyOjrK9u3bCYfDJfcMDw8zZ84curq6Ko7vui69vb1T147LlRiziKl9/hr4n5/BOa+GV54CRx0BloCWDuhth1AAhhNqUSWGoHcWzO5VHgrPiiWEEl5tC0wT+vpB0zCG+8gYETRhlEVHFVWssR1fZM6ShLIqSbtyOH9vPAFHXwKRQUjvARmAH/8C3v8e6Okab4LxNs9oHEbiEA2rIgWWA0ETnnxczcWMBRDQYf5MtYkMHc2xwNqN/cHV6F++EmGOF2bv+gAM376FD2x7CNPqh7VbIR5veO6QdGsIAlBoCup6Pl/LQt83QMvD6yEUhh99BT72YcikVRf4W66FW34FCxfDVe+EcAjWbYDTXwZ79qq187KXQTyj5iYWhoFR6GqD3bvBMhHD/UhpwRvOR5x5UkW6HBs2/y8khvbiGOGxL9SUfK8aMcgTnWr/fgLe9EE47nD44EUQjcGypRCJjnXuTGdg7UYwHJgzF1qiaq9JqeZO09S+EYx5CoXF+cb3QV8Hg8czrp15BpI5h/90fokTst8hmNzBWHKP/3CL92MFlCT2JxIwuBOefBKw4e41cOWgEgLqQFXvdS6nyv4aBiJn0bH5aQadEcTnvgor5pYeZJoka4XZ/JrfsMT6PS3pF/Jfpgn9rahuYJZUIGFoZGo5YTkLtu1RfHxml1pbsShoGgEnAQgsI1L1QJd6EdGWj9UnKbJr1Gvm9Twwdz8CPA/DI3UOJNX5YFmQzsHWLWpeFixQuUfh8JhAmE5jxEcIOAnsYBSplda2be1oJ5PQ8yzKI9z/xMy6c04muq8jotbDgrnKG/ONa+ETH4VH/gVvfqPywB9xFGQs6O2AebPGeJPjhYIINYdmWY8S22bx8P2EFq9AfuT1eW9y0dgaiARcf7nktMCNLM3dpF5vUjEEqB2eLkTRnnQl7N6nGkrefj+8+yKwOuDYo+Caz8Cq5RAMqjyP4VEIBGDdczC8Hw5ervZeMKh4vuuOD5Uo8z7pjoVmO8Rf9mr0t7wOo4K4mHwcfn3VyXycc2hlXf6NpWWWe3t7p2Qsr4QCqVU8WN7cAUox/cJP4btXAxnoPQlu/R789Fa44btwwnGAC+e/XckMTz0P5x4LN94JpODj74WudhgcViG1P/4Z9G+Hr34TjjkSFiyGjjZwXUTA5Nzk95Azg8jjTlc5bGW0pXcY7H72QZYxgEE2H+UwPcqz4ZVXnkzi0sDAAHfddRfPPfccn/3sZ+np6WHz5s185StfYeXKlVx22WX89Kc/RdM0+vr6eNWrXkU0GuXmm29m/vz5DA8P8453vINbbrkF13UZGhritNNOo6enhxtvvJF58+YxNDTE6tWraWtrGze+pmkMDAzQ1dU1NUWmmsd101ZYsBB2bIUP/17dTFj9LJutBKg9/apc5sgemHcQHLYUjG44+RTFoI49BH5yN2TWQngebHoEDJ3IQIL9kaMot91J4mN/TGfTuGIh1Ml3vUvtyL9gwzWfVZW3zn0jnHCwEn662hXTuf9xiAThztvh2XXK6zAwpMLQomFY94T6mPBsiBhw1CGKaQRb0RYuJ7DpCbJnvokwouL+1mzQir0K+9K+NlmqVQWs8Pu55+HaL8OzG+HRx6DtGFi0AO66U03o/n740c/h6adh/Va49BKIHgrJPrjmc2OfueJo6I9D2FTKy/Z9sGAm/Gc9pCOI5bN4NjOfmWImE/pzhJL7pRBjh2ITPDHeOPVYgaVErZudu+C+R+CetbBjjTqw/vhTiMXgxFfCQcfBpWfAyCj8+ka46RbQUnDYYUqJXrQC9idh0UFw2Gx4eD2YAXjH6+CI5cqjksrAp6+Cd188fl8J+OdbBXtu38rR7v/k/XlNDGOpQwgohQZr71P/Xfcs3PI3eO0rYeaMygd7EUZGR4mEw0Qi+dCDRALuf1gJ6A/eBfv3qT2cThNct5khZwmhVSfSsWq8Rdlw4ebR/+ZVx6zg1McuVi9OswW4YiKs68IdT8OxSycvEEsJ6zfAF34Bj92mjBHLFyojzKc/BwNDmLfdRw4Ngh1MVPNt3NPI+azE1CGYqxvzv2+7Ez5/NRSH6VbD89vgiXUwmoHf3wzJvTCaUry9tRVWHKkEzRXHwVFHgq7B769H276XwEgfqVh7eaQwiUQSOxtAow30lnx1TH/D7jwcUMST54FfMkvtGYDLzodzXwY/+SN8+4vwfzeq19vnwHAKDp4Db3g3vP40WDAPvn+9Cpk2DHjiflhxEiybA3NnwmgSbvwl4WcfZuR9n6PtwvMIVHBQp4dh4+WwsCfN0l2eEtM8I0wBtRwpGrBtO1x6BdjzYHZOGQW6YvCf/8AbLoIVCyDWBtE5sPNpFSL1+AaI98HCpXDQXIjNhVedCdv2wxGL4dBFsGc/dLbCvY/DMYdCLALP70DbvQ9j7zaGWnppm4A+Q0CaHlLMHlNiyjAwMEAwGKy/KEodkBIwGV9tdSLc/k/42/8BCUCqc23WDPjmx+GMY2Dtv5Uh6ps3wZGLYHEX3PskvP2VsGE7fON34PYBQVi8GJYshVgHXPk+9flHnwhzelXoWGQxiE24r/sy4qvvRmjjd8jQesEv7t3N20Lf4Mj+H0ByFJ5+Cs4/uyHzUwtSSpx8WfMD8sTMnj2b008/nT179uA4DvF4nJtuuokVK1ag6zr79u1jeHiY1atX89hjj/Hoo48SCoU44YQTOOOMM7jmmmtYv349AwMDXHHFFaxbt461a9fS1dXFypUrOeuss/jud7/L888/z1FHHQXA8PAw+/btY9u2bYyOjtLW1obruliWhW3baJqG4zjouj7ut5QSIURJwyLDlOSyQXKWi+s6WJaLnQnhuBJXChi2kZ/6COmLLiD41zuR4RBi/UZ4fhfilt8j97pACF5/FrzxArjqy4gHHkBYFtx1M8LKh6SETFxNIITA1bsQIkcqm2HLwgs5CAMjl0UzXKQMUSxkuqkMlmPjJJPohoFt25imWfLdNE3Ddd2S7+b9X9d1bNtG13Vc10XTNGzbxnWCuBg4tk02lwOp5kfNn4sZlNi2gY2BZdtYTg6zOChStCO7j4en70c8fC+FpANkPhTIAMvBjYaVJL19K7LnFBhIwiEL4Lrr4M93I449DPnbG9AeWYPrSvRsDvgTQ06EYXsOCy0H7CyaphW+m2GA4wSRUowt3cERnGyWbCaDoWm4roOmjc1P+Xx58K4V32PbNoZhoOk2jozguGA7OWzLRYjSuTZMsBwDO2NguRJ5578Rv/49FMJrdCzpYkmJJiRuVwf6VZ/GEQIjmURbvxF36UGwbTv689uQy5ci7v034otXI885H3HHjch5L0Oc/3LkzdfD6k8if/IvElvX8i35M96VWcDKbBrQSta1evYCVwaQukAaY1Y/23HIZbMYgF20firVwBdCFK5V2leGYYybW8dxkYSxLJeclSsxCEopMQyNnAUOASwni/vsZrRzXw278wpyMIT9i68jV61Ae/cH0B74G+KuP8L/qKZFbjCK/NDHoasL8T/fQmx4BvHPfyovnzdOJICwHfje1cACDHJY7CB32XvRHAdh24Xvpus6YONqIdzZXbjDR0D6ecDGzuZwLAvHsibkId5r3md58+X9Xbyuiufa22+6LrEsHYmJ7aaxbIFtjX2mYejYjoYrDbJZrxlgEUa3w+pLYHUHMBtIw8rlkMjC8cvh6ENgwwvwocthXx+9oSBaRzsMDcNtd8Onr1N9LjSBGw4gdR3hukj9YHZlO/ktX+Aip4uYncPK2YXvZJo6luXgECYnxgwxbjpDzrLAdQvzVGk+JtqbxfNYnLcjJZgBSc7WsTFxXItMxkbTitag7eDKIDbgOg6seQrZ04nT3o6xbwhsh6xlIXM5pOOUPDfblYQsC33TFti6TXkTVn8Ttg8CzyCDJu7LzlWO8o3D6P33wF2nAhrJQBsP8VkOc1rotnNks1ZhbxiGjtAcJBFcRxa4uxzOYOdy2NksQsoCv3bK9mS1+fF+F69DxSMlVjaI44Bj22Qyih96Z4HExnVCSHQcxyaTcwjt3QfPPQtk8qzCwbJtpGWpcwMIZrIYf7sTrv0VPHMHYKl1Ewkr5bVnGfL7P4OrfwRPP6n22t3/VMqaLnBCISQaN7sfYrF5KK12GpcxXmKaJsIxkGjIWa0qXAYHadtkLAuRbyBcfOaVr6viv8vPxuK9O7aONTJZcAnguFksS5DLqTNA7T8Ny5ZIQtjSwXIsnIwLmo5IZAkNW7hnn0JaEwQ8OaSzA+fjlxF4/anIRBJt4/PI392OSGbh6X+iX/cx+LIFBMDMJ7zpulrkt/1RGT9dNQamRjI7mwFzFkHLRto2jjPGQwxDYFsCCOK6xbJDmpxt42azVfl1+fx4a8n7fCHEuLNxvBwCkgBWziaXswt0aJoGwsW1dSCAY0jkffcj7r8P9GXQmQLp4nz2k9gXnI3xiS/D7X9Et+JITcP15uSNl8Kyw+Ha6xCDD6Nl7oc/X593U3jN7PK9EHRdhSGoEwyJ4CleT844hBluDjvtFL6vpmlomoNLABcXpygnxslksCwL17LQDYPW1laEEGSKwlLHZKbSM9Gbp0q8rvDcTEEup+FaJq6jzkrplsohpmFiuwaOC5btws1/gc0Pj42vg+O6WKaBdv5ZOBeejS4E4gPvh54uHCHQbRsrEsHIWcihIfRkShk258zCCQTQUynEpi1oDz2O+PQnkZueQdgOmuPQLzoY1uexQEqymUxBpvLoww0wymyGWo+Efh2sFGzcQMbj/0Vry/v+pmliWVbJ/JSfjR6K96vHH3O5XMVmzVMqsewNdPPNNzM6OoqUkl27dnHkkUei6zqGYRAMBslkMmiaRigUwjRNAoEAVp5BBoNBTNPEtm1SqRTt7e2F9+ZyY8lqg4ODPPXUU+zevZt0Os2OHTuIRCJ0d3eTTqcJBoOk02lCoRCpVIpwOEw2myUYDBYW1tgESHTDJZOOYSZt4gmHTNrCTgsyOZdRy6JzSx+5bJahTJrgOWeQy+UwTzsR27aJXPVhbCGUhckwsHUN/S83ow8PE9u0DVcTBLfuhb4k8pTlpKMhRCjEaFc7oViIe34hefBjLVwRH8IICXTTwXEMijOo0qNxMvEEaccmEomQTqeJxWKk02nC4TCZTAbDMLDyQpa3STzmHgwGyWazBAIBMpkMwWCQVCpFJtuOS4RMNsvQ0CgBM1jKoHKQSAbIEmA0nsGxhukiMyY8RSNkfvJRaPkC4fvWQS4J6QHYsxV36cHIw49EbB8g9eoTsNpbEZZNNhxCEwLHdTGCQayjjyAUiWC94lRaJCQyWTqf2EAm4XLD9w+nZU8HPak4tp3FMMzCQlaKg8AtkuRchsmOxhkeHiYaDhfWQDqdJhAIqOeWX1+6rhcJiEZhQ3nrJJ1OE4lEcEmTSxvYtiCZSJHJqM/I5XIFRmQGYXRUx8q2EE9lCQ7vJ1zECF13H8mRUZKuU1iLoVBI0RMIYC1bjI7EmT8HFs5TPPnN5xG44BxymiD43S+QyeUIBgI4H30HWmcn6Q9cxOCmGO5rO0mPpBgeSWDoRslh5DgOuqbhuG04moaTV2IcyyaTzhAfHiZomoU14f321k/x4eatC4/2bDZb8l0ymUzht2EYjIzaOHaAbDbF6Gga5JjAbts2ZkAnkQCbVgaHBuk1R4kWNYmTQCqXw+ruwP7Z92kdHCZ8z6Ow8wUgTerlryR32nHkchaRiy8g8MJ2zC170bcOoGJTbJxXrEDs2Id+/S/h8WeRi2fz7zWnkh04iBUjQ0h7TEAMBoPYboZ0XGIHAri9PbAXwGJwcBA9mSCbSpfMT7ES4x1clmUV9ps3T94a9ObYW4uBQKDAwIXmkk6FcdEYHh4l0qGTzVqFtRaOhEilwJFtjCRGsW2r1Hd78GFw7DEqTLVvAMI98PR6SOZgy4Pw2wwQhJ+qPLsSO6IehTNPh2M+CjM6GT3lULI9nQTiCdwZXWz8aZCBz7YyMrSfZMIknR7jIdGo4kcOATL62MGTjSeJDw2r4hVSFvaZbduF7+/NU/G8eGvQu14slHrQdIdEIkiOEIlEhoydIRRSfDAcDpNIpLCdbiQ2yQ0bCZ/8OgT9ZC95DwZJsG3iw8NKcMrzglwuR/DONdi/+RXGlq3oWzcD+UZ32kJYORO6T8V+52pGXnGyWsMI2m/6B/oL6yHWywudp7HmIyuZPdDPaNwklUwTjUYLfNp2MrgEsaJRaJkD2Y04I2lGh4exw0H0/H7z1lHxfBT/9nhHgYfkeZrHzwA0TSA0l1QyRi6nk0rnsJyxs1F9Vpp0ph1XRkml4sQ/9kPMv/0GnTEBbWh4CBmPY2cyBFxJ7kc30Pm7X2NseUatote9BpYdDZ0RkuedDQNDiGiE5MJ56Be+GgGE+/oJ3/EIYnAYumP0n3E8/bu6eOSSTnoTLiNDwwSDY8+vb98+NCI4RLGLXA6ZdJrR0VFleMnzI28fefNSiS95661cKZZSFoSpYChAPO5g08bg4CAzkkES8RSxWEx9djjEyKiFJEjWTRMfTeM8uQHt+99HO+xoTHpIL5jL6PAw0aI5TqfTBOfPVWtg+TKyZ59GMBhE9g/Q/Y/74K6/QyQMr75QKSwzO3BsB300CZt3QTIOPTNhaQc/ev8qZmXaOHuoj5wZKJxZnpEjPuLi0I2zZ39hzpLDI+TicbKWRSi/3zwZwpsfj8cUC5aFcza/Fs2icyKdVus6lUoV5JBQKMTIsIXrdpNKJYjHLWxbKQq6ruO4NoYWwsUg6zqks2kiuOA8BXlyLdtiKBQg+KP/xk78Fz2bXiDTGiMxqwc9lcIOhRCxGM4l5xFE0H7/U4gNeyBiwva14FgQ6QQjqgpS7NyRj9HVGLK6ueuGs1k2qJEYHcGxnZLvpowhMRx07CIDcjKeUPOXX5s7duxg5syZRCKRkvOswEPye9Tb98VzXSyHeM9NNwSjIwaO2UpWZhkejqNrZmE9q8+IYrlBHNtkIB6nPVtUuCF/9ozEE1jhEKan+JgmuUiIQC43JtPs26f2iCYIzuhWPCSXI5dIKN68cD5i8UICZ5yMY5iE9vQR6dvPF950Civ7BG9Ox0knMyU8JJ1Jk8m2IGUrMlfUFV1KRkdHEa5boqR48xOLxUgmk4X5qcTrvL1arCB6c5xIJArKdUNLLAshWLVqFcFgkHXr1hGPx4lGoySTSUZGRti3bx89PT1EIhF27tzJ4OAgiUSCjo4Ocrkc/f39DA4OEovFmDNnDjt37CSdTpNMJmlvby+Ms3jxYhYvXswLL7zAvffey7x58wiHwwSDwULIWUeHCrDp7KwvRjwWg85OaGtVP+FeCLdD+x9uQBvcSKitnTkzeuufjN4ZcHBpZRIBeNkaXv2Izi4VcdXTHaEtn/ZjBsAqUmKiba1E29oUsyuC910rhdnVQmdnJ4PrlbgXa4kys7dyHklHm6K1sy1CSy5vNfKgCcKmCWecqH68WHPbQdN1pdgBdRUyzTfdCwMcvBR3EHLXQ6xdRaFVapoYjkDa0PGyjTUMIoEgkZkq5MWbl+K1cyAIBkCEoK0twERT3dMNoSi0tQUJa6VNhjQRpL2lhfZGFEDIr2s6O0nvVXanaDRK74zKz891IKxDwsygBdWT0BMZYhJivZNYz5OEllE5+W3tLXR3VQ6uSXUpYbp3xmyimf6S0CcRWETricdArEX9zJ8HKw8vhEbEyj1Gc2bDyaUvFRjaea+AeBzLiHLfOTpHBoPMqJxiR7QdRvtd9J42WAugM2NGD7R3qJ8DRD1rMBpVNHd39lKJbbV3gKHBjM4OzKGy0NkVR8EPvq9iyG1bhQ4ODKmKMv19Krehpxse+DfMnwsPPgodrXDMSpg5ExYvVHlZQlBOaUuP+rgZM2bQ3g7eV/F4a0eH4grB3rH5CUcjhLu7oMHx4x462hUvbWsN01I2V9FIGwETgq5JTNfRSAIW0RvXAPsAQXdnJ7TnN/OT6+C174H9ayGbAWbC698BV75VzeHKlTCzG3QdMxSkuzhE78pLCkHt4fsEJjBr1kw6O8ZqdnhnEahq6ObMHnAPgf6NGDmTrvZ2mDHDl3lqaYV4BFpbwpih0rMRoC+mnOTRoEbP/U/ClmdL3t/d1T3Gc1Z/CH7+Qwj2wh9uhUOWwcIFhbzPlqJ5KeH5vTPgiEMLe7dXCBIZ0AyIRKC3t5QvaprAzukYaBjhMVU9HAwRniA3thHoyq/j3hmz6WiHjvbSsUzUeRnRY3R2xBBrboBbb4W//xnaDyEWChLLP8dyOaRwcIxtHli6BN5zieJ7plmIZSscdeVJJteqtMBZsyqfqCEddFyMolD0lpZW9fzKKogeiMxQDu+7jX1XdeR3dLbTVSFF1rbUdwtrGpGWTspFzlBLjFndap/R0QHz5npB++UDq99vLlo3zkXqt5dcopWWC5U7BPJ26OqC7gq0AeT2gUkOvcg81NrersbLnzfz58+nvb29rrwYj+fXkkP6OsAMQjRiMKNn/DnuOhA1IGNCb3vnOGHIaI/Q1dFRm4d01Hl+efctWwKoPdEeg5YItLV4t4x91vYh0AWIlEVB7tE0ZtTYq15RmQOVX4eHh0sMiXCASszw8DC33XYbW7Zs4cYbb+Tiiy9m5cqVrFmzhu3bt7N8+XJe/vKX8+tf/xrTNLn00ksJBoP86le/4gc/+AEnn3wyRx11FCMjI/z85z8nHA5z8cUXE4lE2LBhA9/+9rdZsWIFS5YsmZCGeDyOaZpTilP0moIVIFSIKv2D6g/Nn+JtrsO4YlrKsVwUf+NXkmw9FaRE0a2OAyV0UVpZx4vBDzSouojnHa5GW0ncv38VbGrW5xdFIdtWjsLkts6Gv/2kIdVpylHXisgno0ohQM8vtMEkxJNV39YIyPz4Ne/z1lHxGhdtKnGzGLXqXE+ESEj9pMDRq3+EAJVoHPaUBH+bERZDyhrJ6t5erEROwFTadjBAgaF4Ro9Fc8fuO/IIAHauWkE4FKKrs7P2nNbTJwmQxc3WnCb116nFalyHgkfFejL/WhFt6Qx85mrY+R94/YVw5fvhtOPqX2fFa9L7utVoiqACAT2vlZXJ81X/UM9XEZoOWoXSrJ5h6m//hN/cApe+D67+BMw+AINMSeK199r427LZDNI1gWjpEvJ5nupNE5QayNFBxE9/CzIDOSAkJ59mKET1MvvjCuXUl5dZQobT5E7VVYYqkQ4qgMoAACAASURBVDO0CpnsUykDXanNwwF+Xgm7K5s7zzDf0OR+SdXiSoXbBMoz99zW0gtWvm3CdMFbd1b125qBA5LSW1pauPzyy7n00kvRdb2gXR177LEcffTRBAIBzj77bE488UQMw6Alb3G/8soryWQytLS0YJomZ555JscccwymaRbuueKKK0in07S0tORj1ivDNM0pN2wrr6QkNND2x+Hv/1ZJZR1Ts+ZXG3dc00YBJQW5bX+YtycM1bX8JbB/ANjjCy0Vx6vBtIUAKTTGJtCncqWSccmn44nJ3+e9wcOcRSqp3486/Z6hrg6dUSKQ3hZ3mpjsWeVrlxxqslwI8KmJTD1fWzCWP8SAquLSDMga51glIcWDaY4JxnXA0HXFU+tYlzKf5lZT14lFUf6R5LQ32ctvx7xEUka4W7TW/vkvuPdu+Op18L63T6nHQl1LK0CZMm75WoykZi68t6Z0XVUQG/cBQP8AfPkquOB18LUvKvd8Q4irvN51Xc/z9TI2Nc0llgvVtQTKQ7ej31d6ylHeBmLC+4r/aKYSU9QnpiKZYsI/fEehXU7NvmUaslggK5u7QCBQMW90qrSJfCpP1fsEyK2b4bG7xn+Aj6hnXwAl9m2/PPC1cEBKjK7rFcsfm6ZZKOGp63qJ+wkgEomMVcbJ31Me+lV+TyV48frlbqVJo/ztYdBufRzBH1WoxRyfQm8kCKNUQFDM0oJwBwRnq5AQHxdqLXYiATc9AO+7Aopr0DcDtSxPmmBM4LV9sdbV0ytMwNgaymWoT6SZGuqUx/PVyUB63sSc/92vpVexpxptWtEt5W94x9nQXr2HyaRp8v6p9iy9w8QoWlP7BxpKx0QoNIubqNmeV1xOs+GXt1Ji6AiYk+qv4DhOoaJL7Zvz49dQSK2TVsHQ2fCnPyieNZ2d6AuoQLTnJXp2E7zpv+Ddl8GH36WqhUwB9fRGUvKRGCsVTs43I5UiiqrrvVSurHCjpsE9D8HTW+Db32qoAqM+f/wlx3ERuKpL+WGL4Nm8YtwEj2hVT2geUkf1aWJr9Rsbjbq3U9GN2VzTDAr1tGwAcAOoiqbFFVibAVk5LL0qyubOsqypy5plqNkklLHplJaNcv0VwaG53rYJIIvJmoRBrZHQbNvG9tEq5Ae85KqGeGKKFQkNVAkaCYsOhSULpvT5E8F1GcfIVak9Z0wy9ot51yFoFm7NZVUPgfL3+4iaFgBPIChMoD8MW7p1GKy1MWsPG56hpM+PXygLmZ4IhXAyz8KUdvwVnIrHrsdyaAD/2QgjRevrjOMqW4abQZMGJTVMK5SV9AN1lcMVQHwE/vFo6UXDmJQS4yVE1kWXt1Sq3R7OL0fv8GrS+poIAm8/5t1IxXAc1Yvjuq+BNgrveMeUFRgYe35VhZEQZabqfap3lk8ob4U04X0ukK3AO/v2w+e/A6e+ApYf3Di6qpw9ylGlJsg+5UToPLyISP9QdzlqDRhorhcGqK2QChDlh3rWar5XdAIaC1GXAti9t2nkqEHre77jlqVb2o+n0V4YyNNVhyemQE85rOb0fZsIBXZWrDo0cc1JKfF0l+lRnRoAr9LUVDCuoaGGKvEIEOhqaOfw0oFBmKUvqX3iKLOBbvrmEi58ZLUnX+2axBe6YOyQq+b+1QxPOPdukv4oMXV8RSHyFrq0DdubxKDrnHoNFU5WKETv+t/92js06rIumcCmDZAtUmICZqW3TJ2sOjwxUlCqEFjNMey4bnVLcMET8+hayJb1MZik5UvX9foPZC/kutq8BUBqlCoxPlsH6wgjz3uDyp6fYcC6jXD7nfCVT8KKQxtLV631VZwTQ0L1jfIJdUYgqWdVqTHiH+6ExDb4/JWqMV6DMVE4mZY3HEhdh2ieb+VyFe5uIGpazYruqxLe7hdq6XDF5BVeyWSb5hH1IoIn5F/e6wLVS67ZqCFPFPJHy95TvEgbIWuOIyufj1011M2jq9ygrWmwsLN6blUDUE+YcwmmqU+YNpUSy9MJ27Yr1oyeFCq+PX9MiiB+xXBKFygLTRcCcgvOxf3E5+DggyDlE/OuRzinisPm4OVw6OLG0lQ+fpVp1428QFDcadKPzVNPOJlQHgXz4Sfh+U2Np6ESWcXu+4ngWUmEQBa6abnNYTK1JKgCbUAuRckmDDSumdhkIDTygqYLegTMFiUINMNdX8/zBNU1vpyeSVoIHcepn2fW89W94b2T2Ock7JpWVe8/2RylwdpA0IB161QzvbNPn/TcTUxU0XqeiC4DQFOCpdEBWihPo0+oYw8CecNGZvz1u2+CZcvgkIN8II6KtNmOgxT5vjcIWNSjLuT89W7XWlOaViRMZirMVRNQnxRio7zuM2B7f/NorZd/ldzcHBRyYmp4sqC6J6YhqQsVaKvrnPToKcYRx8CP/luVXJtmyGJ3UhM9MV6JZcMwXpqeGCklra2tU1a+xi3wQqgSoAXri4s5ALjSO9jGoGngLFiM87HVqjxl1l/mXTMGGDXP4yw677wYFs7zja5am1vTvY1TtHQdn6zm9Tz+YYn+rRtgcLc/NEyAusLJEEULza1sdW0gCudZvYdGuZnRzwiuajRpeY+CY4MZhVArZJujxBSqk01Em3fBNMdPrDk5z1UkEqm7mqNMMyagV6FNhUXkFWXL/+pktfIXpAR2VfCK5mzY+BycuAoOWtgwejxjT9X9aAAIlTPUNlPVGJ7OxH7vvr69MPJw5Ysf/AC0Vi6TfsCoIvCGQyFC+bUpcgJu+RmceBok/Qu7K0EtT4LlwprKHd19RR2eBAUvRn0+PDMMqbTvpFUkowKUNwHYtKM5xJQNLqrUMqlosC2TeVpbWwu53o2kq5YnxrtNlhuHeufAkoWNM8RMMG49MoY4fvFYYZRpKuzyklRiNE1jZGRkyrk840osw9gLwvRPqPKedZknxrVQqY1CQMb2J5xs/NDjIAC5DII33wHrN0CHFxdtQtSfnIWS8asJnKbniSlWYnxI7K+nxKzHAf0Uvg8QWosKkZIFLtm8nJhacIHgTX+Bb/4S361zXohiPfcKQHNVOKflz/4rR80hCjHl3nMMwBGr4N1XwMWXTGqsZDJZ0nW6Kl0uiFreSEPdM+aJaVKJ5WqIJ9Fu/Nv41zdthZ/fDSsmUUq5DhSU0FrhuUIoocPMF2Pw8cCv5wlIQNvcD/HR8Re7T4Njj/RHSJqAuHQ6TS6XVXMpUWFsne3KI+ojauU0ibwnRt/8POL223ylpRLqOocQyNYutc5iERi1/C9NnUddkQFA4Nd/gX/d4zs9JaiH92sVrpfl1I2MjGBZjTUq11N1bkw/9Z5lFIiACPlmYK8X3vDO6Uugd5H6Y5qUmJdeHBljnpgpa8du6ToSEgrCsZvyLa7U9awDxWNr4KZBSqEubtisXMKtLY2Vk+vUYqQG2BnAhqs+AS0mdHbDcav8swB4JpEqH69r5UqM5ls4WV1MJidhb5OshdQ+dL1rosPzxBQrMU3I86hhOfQSKfU7HgCaUwGsrg1UWHsS9EBeiWkCaR4PqmIJli6IZ/crJfTEC+BX/w0HzZ/0PoxGo/XzTG+pVJs3r9KcVwRhmmKiPQhA9A8jUhW8C7ufgdmz4dTjGjpmPUJcwfCiCTDDionZdu1YlwNFReNcET3etfVbYagoJ80w4fyL4dKLYEZ3w8mqlj8RCoULLRXUlAqVg5LLJ6n7dObIGkKul8AscxZI//tslaOyobUIGmhoyFNOhr+jZAdyzTMm1Bmerj+wnnEVtvyG9DzFE98ixm4dQ5nc19bW1nBPTKFwUBUPUeGSZau/Xv5KOO9s1X/Op/zRupG3tbtdc3A/81G0r3yraYpzOV6SSowQgoGBAXp6eggEppbcJIpz9QIg2Q840Nvpq7AuynIEhQA36ymzAjKbVFM2Gmzor0MIBhB7QHtyK+DC4cvg9Jc1kooJSasZ957PiVGKTBAwfNs8NUPuNND7nkP0/d6X8SuiQuGlStDC3nx6C81pTuO4OmKQK182fEucHVfAYyJoec6sG/kclHzymo8oKKUT3SBQysGTW1U40uwZqvT7AfCmkZERwuEw0ej4DtHj6PKGrxGGR7Enxu/E/ioCSSFMUcoJLIIOzF4JSxf6QlqthoQCwJYQjEA25qvCV0swL1zcP6CUqfmHwpkXwpx2+ORqiNVeH41GMpkkGDKByBh70zWVO9QEgXzCcE5vvW3vnx5PtqxeKNFbd244qL5EIACkm17qvKYublVY78sOhlWH+6eg5v+px6gmQVkbKuSO9vf3EwwGp9RYfRxtXjhZtZsEyIyF9r2/QywG3/0SHNHYgiRTRk6Hy94CdhKu/z2MxhsfhloDL8lwMikl7e3tU86JGZcioINgFJBwyZkQ8ifRuFCZomgFaxrILEVCgT8uw7qqbgGMgHhsc9ELTUCetmp13bVCYr8GBADdt3CyehL7BVnGVUJqBmrsXD3KWPlnAFz/PTGS2m7yia4dd2pDy7nWOywUGRSErno0RVrySoxv5BRQGKKaJ0ZKyIwCLpx3ygFXpYnFYoTrLGFdUxAGxS8zwKvOVCXpc3b9CRkHCFGFJYuS/1XYIBee0/BqW4U+MbWSAmwHBrNgBlRiv48CsXRqK1UIEEMDgA1dx8E3PgJf/GBTFJhKtIUj4UJOTMFzqptqnnwUyGt50jxaxTPbITc9SkzVHNF8OJTb2gbHngQnHwR6hSIgftJXK28HIJ6fu0NWwqsvUP+/7htwzJH+hUbJ+jxtGjruaS+DD3wYZi0uGI89tLe3N94T4z3XWvM2OIrYsV7d26QCXPVGexTfi2bCgw/B2md8pa0StP3797N3b5Prd08RQgj6+/vJTbH8Yrk3XxoSjTRC06fUxbmeccsXr6aBOwpSmnD0ISANf4TOenibt0Bn5TXqZsdfVhlOVSn1TuEwCBdSja/EUm/MqsSofWMDUe/ZpAWKPVYgsX1P7K8LxZYvADRYcQ6ccBR0d078vqmgjrwTLQ3ivz4C6+6ABbMgnfVdIIexcLKJhACpAZaF2PIo4MJBcw/YYzUyMkIymayr0k5NDxGoePIU8Ma3wNHnwVBm+ptdZh1EMgcnvBnu/Bf0zoTowSBCcMLKSRdDqAeC8Z71YhQML9EQRMLqBT+7qnu8q5oQAvkKVnnLs6b5X0K4iqc2kUiQyaULidYqnMxs2j6cCGpfSiT5ZsZ6ACJRaOuCC06DGT3TRhvkOzIA9uyF8NC98MYzQWvenBWGqbLWJEAqL8u85Q1w7TUw7xxYuNBn4qjLEyMQ5D7/Kfj8J6GzSJHOY//+/VOWNceRljeS1mpHIPYPIbZshLe+Dz8LKk0anoxYeP4CaI7hDyCbzbJ371727t2L0dPT85IrsSylpKura8qhZOWxw0KTBNgPx5/d0Ao244b1wltKxgaZyC+K3nbAJ2udt7GrnVd5QVMk/U2qrIRayoPQQcr85M2MQSoOI/GGx5ePWXBk5Y0pACEQ2Oqe3lnwmtfAg49iz+xGhIK+BiLV+qZaECWwXXoBty28j0X/2MShVhOUmLrCyWzE1mH1wjGvgpt+AJ0d/pFUK0SR/L4LxiDkKmHObk5ODNKmhR0E143ALkrHFBDdojGHOC3kDU1TCENqbW0lEAhMrudBNQGgUGIZtTEz/oaTSUB2TEyTC2jZHGRTEAqo5PQH10DfINx8EyxovBBQq08GACZI04CfX636w7zr3dOaP+QpCtLJ8y7ZnCIW1fZTNBolFNIVXd65rAeVd89PxVhazGIdbX/dAesY13ZBE7AMgxk8BDhw/NvhK6vhkCXQ1poP3/KRPIe6PDFjFnFdGfaa5ImRnqfKddVzKuNf3l4VZCAQhmgHrFgO625sTthRPV4ivDWXJ7gsHLW7u3vqsuZ4stBkBi2dgzgV230YjobuNexqjVYPUWkkbfVE6+RD4aQX7TmjF0ILmhaKGgwGmTlzJvASzokZGhrCNE1CodABf46uZwgP7IedFrYT4mXy3yzhB+gLL/SXOcmCDFyAJkBm8pspGgZ3F4wmGj903kKnp9KQdkvbKUiQMYlum2gEcTPNT8SrJTgqq6YGxOE974Ubf+ZLBZs54Y3M/t31kBnC01NKEIRl63XOYhSDHBx6KHztq1gIdu7ZTU8wQOPbxE3SE6NpyPPP5OvLT+JTj2xgueP66jMqdOSuMYjLMGz/j/rjpMNg8UIfqVKoGV7jQcvnxGQrPfTGY0Z6K+/ltUTP31Fx3pbbsARJgLy3cQrCSTweJxqN0traWtf9tdaKFB45AkQA9vobxqKRpGPvWiJ/H4KQKDn4NSFYNpwlxBOYDEA4f7QdtEitr+P8qbZVh9NDGYwcYOkh0LpLKck+lkfFHRMuK8IAHYeAzPPND53X3Dj2CrSlkimEbiJoGVtTujmW2O8TQoHdvDd6OdH/eg60WAUPhsllJIiQQeBCRxusWqk8as1ArfMwXyCo4GQ3NcBnxa8IUT3JCeKnLH7nwzAH0PPuBU1TCoyp8RayLOIfsORV8PY3q+tt9fGgqUBKauZDFq55lggRyBuPx+ZvcHCQaDRadyhuPTDTaa7Ydy5zz32yYtqlAC6JKx9gkHjlEvs+oR4W7inPjlfTaMki6OqCBldxqwcvSSXG88RMJU4x68IbrS8w63s3wJ/aMNBZuiNDav4K2i95A8JPJiUZt3CFBuYCeOyvsPvaGG9LpuBDV8HXPwvHHjXp7twTYaaxndW8h0NeswUYf3AJ4GTgUFqJbn4BiPgSglEN5V6qYmg6yJYYPP5X3LYg2v/9aiw0o4Gb/BXB/yPS/VukfWw+gblsZ7tgt5t0Mozw3A+aht4So9WdQcCvOfPCfGosB80bXsJQysI1bNjyghIIXAmGT0n0UF2i0/OhNd4G8JsxS8Cp8yADhtIuMmPTmU7DwCDMmlUj4WFqCGX2Y9KF/MOPEfNmlFroNVj/QIC7r3ici/kg3ezLWzsPbK17nph6UFfUqVbkOZ0VApn1tXjEceI+TnOvQHx7fr46T6nZ95h9DjHWopGCgDGmKAjhX9EIWXvNC33s+u7tOjMsHeOrP4LTTlQW/QZjtrmJQx77X/TVo+PpErB0Z44vWo/Q++zz6rWlk690dyAoGDkqIBqLEgooT4xX2wbDgE27IJWCXE7lMzX4OZrxHMGkC/+8QyVNF4dw5+M8r+11eeWi73Dazh8qRaaJqGerayi2bjsOa1/YwpFuGr1JEc4z2Mb5XEd03hGwcFnedZR/isKrKpfBwQIx1JR1VsBkQuclEA6BORe27FUVwfIRSt3d3Q1N6gdoT+2gzYzDR6+FY5eO88xKAXd9VMd87s+cwc8xallKfEAtw4wmwMkHwRAwwcgqo8NTz8ID98Cb3wQ9ja9yWI6XpBIjhCAej09JidFsaB98gfS7PkzgEyrR7E+XgT2ni8vObMHwUXApWAeKw8kE6C48pv+bx+b+hos2OogH/whf74Gff71hlrL23B5CcgPWV75I4LRjKjLItb+Dwe98hzk8Cu//NBx5eEPGrhfVZl7TQQoBiw/iT9eMsOL5Vpbojbc6RZw44qRX4Pzmf8bL+3kl9IV/CH7/rxE+xyuIuMqF77ouqVSKcDjccBf0ZKCZirnksrA/k1OZO9+7UXGfLbvg6g/A7FkNHVPXHNr1TfT8+wWIivH1DjSI9gvOYA3trFWvvchCWf86dB/OyBou+/NG2Pgs/OL7sHSRb+MZuSR2sAPnoKUYS8Y/j9wLsIG57OXndHOHUj4PUPFLp+tvgFfId65nKCGgNahcyekMDI8oS2uDFdQYg2gHHYH85Q8QPW0l11xH8MdXurQ++WMu4ir0QPOSYMu96uUQhnLu7doEP75I4117Olgs18JPb4XPXN7QUEoJLE/eQ2/gbrRlb4OgXmqVFzCk6/xZHM+FXMMMdtN06agCspksumkqSqQKEkiMQs8Df4XvnAJ/vh/++g2YP7eh45oZB0krdHRN2AE9Cex/1ReQv70PQZMtzXUUmNHa1TpMOBmu2fVLbpC7iGaaQ2fATpOVAXLv/yTBt5xWSmte8P7N73bxHp5gRbPnLu+JqUdvkhK1SbUZsOZ+WPMILF8KM3oKHuypRP2UI2AncFpj5E49ldDph1Wkfdc10Nd6KCeF1xBrZvjpBBH0xfAcbe5Q/gVDh2AO7rwfnn4Cbr0Jnu6D734KGjhvlfDikiDqhCslrdEYhl1kgbdt9RMMKqtNKqP+tmzYNQDtEWiLqUP20ScxP/Ud5JZ1jF50GW15IWW0laZYMNwKITdCA7kDRpc8ysDht2LdrWpv0bdHlcKMRhpihTKdDFkMrOUrCBx/eMXzK7EGHuP/8YozdxG4/DzVYfoAUEdk0bj7Za1EPK+sq4Tfb/43mt3Hkt/8QVWO+X/vBLMxS1qXKZxIGDcw8ZwLDaTeirv8NFjRA6EgQgjC4bGeB41G3eFk+WnIWC5DuRy6A+x9CD7zkLpwzGJ444XQ3tYwL1/QHeDD8jJCv9sNf4tVJDZow7G4GKQhOAdOOashY1fDZCqm7Uz0ExAJGNgDD/bB7r3+KjF2CjsWwNHMisx4LNpBQPvxU8rVC4fDDa2y4xliMklBaiRMZ9aCN34QHrsfbv0dvPqMhlrONWlBZxS6O6CjLBzFBkuHfVxIjh8SNo3mhF/U4RkVeVIGBnJsdp8iI0fBHoZvfBT698EPvtDQQjKR1BCpZUdjfPADGNHxhpT9d8MTN8Cp9k+Y0ZbxtYhNCarMVTAYxNR15aMVcF/yCZ4Y/DMfJ4XxpQ8AS30JG9ayKWyC6ASrFoqSms60iEt1yK5aXgceHJIMijQIB85/HXzpG3DOqSoEzqe9YLo5XFzsUJiApld8toIAkhYVot9sfbmOxH71H6U06zPbCD/2IJx1GrS2wuNPEYvFGl6dLJhLqMKqxsSGTgGgG0jTbFqOE1BkwWLC51Xc3xiJUmICOlzzCXWhtQt++QtY0AHnvQYOnqtkcx9geF3vXzLJ/UKg9fVjfvHbGFvWwUlnqhySJ5+D+HZYeTI89TgMb4NsFjI5+M9OmNkCs3pgaBQ27oAzjuW+LZ8iYhzL/LGPbgo8T0zxeLqWbwHiwGhARcAHAO7/C7xlP1z4VnjX26CjfUqCgWmn0aSLEwhMqGRoAjIcyegv/kr3vAOflEm/s0r1mgJtupo/acGaN36H16zZDA9thmwGLrqwcU3a7Awy1l71FiGAsE7q5v8mtkSoZnGOg2VZuH7FcRczmCrQTHWr5dpgWwTKo3w+8kG44Xo4723w1nNh7uwpbwA9ncNKC4yrv4dx7vHj47IFxPcKvr/K5iOrPk/3nvugx//Y6FpmpeIE9R1DcWYWAszj0NfnJ2UEc3GssImjTXBIFh6JhFOXTalEsGVZaHWGc9TliREqiuCWe17gqb88yNey6+GxNera6vfB5e+Cc8+Ag5dAW8vUvW52FmIhpGFMuPwLjzrQHCWmMF6NcDLhwo7gBh694p3Y39o51uf1T4/DdcmGKhKBTJycFlQe60r0uCC8wiXnXgCHHtKwsQ8Ulm0TyFfqkxISdpJho7iJsPRFkAukh0gRAT3ERAHkHk3ThhrLWETUmZjI5dBtRyljL2yGS98Bb347/PAq33KeDDeDI9NYgdCEdOp0Y190FbzVbHiJ82qQrpKnqrZsyLPDYBC+ets/OeSRp7mo8AEScjkyhsBpcJhsNDtI2nCxjYnTFgTNyMocj3pEDC0fTuZFN4+rbvjKC2HZIvjG1+Br34Vzz4NLz1dFHXpnHBhvLnqPlLLwTF4imksRhEB/7GlCt/8Joevwz9vVBBqG0gT+cavSCg89Bt58qVrJq1aoJ7JpqwpzOGwpLFvM06eaHF4W8tIUZlXJEyMoVGZZ2xllAI1WXDBOgq7ZcPVn4NMfBjrgMx+BM06CObOgswfCgTHiXakki/4BSKeV9cMIwC9vhM9/BUEGi4Nw2tppmWgdeXGi09VGqMqwWj5JVubAKjZThUz13G0vqTE/yaYx1h0b1Gta3p0jRL4PgQPpHOzeBas/BZuGcPZvJfHBD1XIGiqjM4ua36KdpGna5CpATQKFqml1KDFIsBzV5NIuv//ab8Gvfgaf/xB86n3w8gvguk+p6iKxFshloLtbxQlr2hi30vILFQkjo/DsRti6HWZ0E7ryGuI7tiNnL6R11syKdLlAGv4/de8dZldZLf5/djm9TJ9MJpkkpJBCEkoCoYXeBEUECwIXgRtFBBW9eq1cvCDiTywXURFRBGmCIFJDT4EU0nsySSbJ9F7OmVN3/f7x7nPmzMyZkuqP9Tx5Tmbvd+/97rXXu97VF/qEadC8/DCxMToYKa5c64J4D+i9ENUTlGbpKgk/eBjOOUMwXtsWOR8ZXKiKk3OTs8FlyrZkFDjbhlhCJDxGnIpsqgKr1sHW7YT2dtLi9+FR87vcs/X4sy9zaDgAUBRl1ErMqHYyRbDcFb6XaD7rH9gHUn3DI83wf/fC/XcJSSIwB178lfAk+UJOBTEfFBf25RxlXGbxBHR2iPjqtjbxW1yE/eESzEAIeYjSihJOqKkkCxwfxZDggTDsoxx2Y0q6sJL3g3T/TSdDY5nk6IGEm2nmaZgQT0J7u9g0CgrB70PSdEK7d9I8Y8qQSky/b+r3HTHv9YgwTE6MIsvIkoyMULAiEZOUmTtYP/QS8bk4i8TE+7e3w1fuI7TiSer4NJIcHFKJyUz93wG2PrK8p3gdNmPHcWkGUmayZids3Aa9MSET6EZffquqCJkpg5uMST2X4aS1vgbAiRTE4+IbRCIiZHRsBdLGTSiGRawwRGBIclPRPvlJ+OQRQMhBgG2CbQyvxGSWnmLAuql/QZr4FmTsVqYJu/dS7JLxlHVAgePR8ofASAmerigQLoSQX5xTVcH7c2nVtkUEUHu7wOnWHXi/fwfx8bPR/EEKBs0qB3we7LFlYh8+1q0uhoFsYr+zVdqShJTLBBUJvn8H/ODr8NNfwh/+Ys3wEgAAIABJREFUD577g8DpeVfDpy8USs6kiUJOVVWoqABLAkODZELIbZk61Hv34162DOm4qkF4UFVV/fh4YQAsC/OCs+j66V0EysrwrdkEoQAcN0F4KTZuhapKIeAP/OgLz+j3p5RkUF7KsYBsieUckOW+cCpRIcWhjnlj4PHfw6698MZSaNktkqYefwaadkLZTBgXdqq42KIk5cQK+PAj0HsQXe2DUOCBK86gY5/Ckztv4nK7gvxiZo5C9e80AwwFkmMgMSBt5CgxjU3w3GJYvx56m8UCUFWYdCo0b4NE3Kk8JQs3sWGIpoEt7dDRBdXN0LYLFiyEswrZ/PqFNBuXccVwU5EQlYAGzHk0fTgOGUbhrYJMFTfAtEi5Dd6shHMaM/phCM49HW69Ed5fCWu2wLI34LQrECbiENAF886CiZXCipdICqbt9ztKoQWrP4JuCWaMg7RGuqyEZTVfY5Y9maH6CmdkfP3ShVDRLLyjRxlGyllINkDvbojuBdPWsHOV45pGePld8Pmhqws2rYJUUmxGFWPAVKCtsc9s5nELuovFxUPjSdhcA/EoxJv67ls+E2ZXkXq/gT0nfZ05riFc7bnzPky6Mk0T27axbXtEJXvUoaA2mFIKTbYwydHlf/kHOGU2LNsmQvN2rYXLrgEiQBXQCuEKOOcUIWBJsggXUmXYVQfV64ACOHGmoxDq7I1OZP3Em/gUHvIW8pSA8WXYJTOd3fXYhJONZFSQ5YzOq5AMh9AmB6Fzj3O9U5Jyfx2s3AT7u2D/CvCEoXASjCuDoFt8kIYoxGPQXSNobssBqFkPWOAaBxPKoL2JxuhYtsz9BheNpiTrMebxNvnXom3bWLaVLXfeq8dJ9SudqUO+EvGWBfVNsHIjtEb7cCVLUB+FyhDUdUP3bmith2WbRSnwWDucOpuuc25k8fIv8gm1gKG6VInpynDKBJgx8YiF344KRsHrJbfAmW7pWJLVPwKt5kP4wn+A3wONbVBVIQTv8lI4+Xxo7YDoPmH0TGt9HkFNg7114l1DAdiwD3qagTh4QlBQCR3VRH1zed36AafKY8mfUeSQ2L+jorgFjKDEZG06thgr5c4zkYDPfJKC0mkiibrtAIIaxiD2Sad6a/lsmD9FRASNnwmxJqHkgVCcDQN274Pq/TBmHEwpJzrtVF5L/icXuIb2TEmAHQ5hPfMkVLqPabPLEcUwJyfGlqCtFmpedHFKwptTkdURIkMBuP9/YNGN8OZq2LcXqtfDSy/C/hao7xKGdq0WQuMhrjqJNj1ApfObgglzUAIg/eeNIElIkpTVWz5G2ksf2F4PCa8Hn9sFl57X/+QZ80d/o4FJX8dK0bURjeJyFShnHrYFRu6KtxGWsvPOFBZh0xALozcurJWbtorEqYKQ2LgVGZathm9+XVg9E0nB0ItKYPxY9j0nsWeRC9Mc+mX7GUaPIWQb7A3niXGsmroGMSunZHDtdvjGzU51GQUoRTCa54EiBKnHgBT9Ms5nnQF33ipKBI4ph6rx4HbxwackgsYo4mBN+lXltG37mISTjUSqspIx6lrYtk1cyWFMs+YLAdznFeE+l58PsUXQGREeGC0lNrRf/AmefwlhmioEfM6TFWFF/909cOlFIj/BtonUKay9QmW8NjxbkQBj/llwy4Jjw5hHKZHbNmi6jtWPhe+Ar98i7mFZYOoIw4APIZC7gOmADCVF0FkNdIL/NDhtPFRMgEdvF+uz1ClBKctQMRZCftY9mGb5w0FOHmqjzRg34LBDpHRdR1XVg/ISjmakjYnusvvLKYosStEuOEUgNq1BfaMQwrU0BAKwdjPc8xfYvxyogDtuhJp6uP46+OSfIRCCyjFCiZEt9v3BQ80f3fnn5CjHtteDHS46Zn1Yss1KR/BY2TYouGgLFtN+26dh7T1AEnq3wqxzwWwRSpzhxMpm1pkiZz05mJnYDRNKLoL/WQQL/ySs65YtDDUuk7d+PIuEFeaSUX69YwbDeGJ0XYSTyTiOcUND71fuWOurHGZZsHsvPPEi/OkRMLpFU0zT6u8SM2xQJYFTTPBOEaFVc2aCyw2Tqmj8wMfe5eqwnjQJwJaxX35IuLiPYcGWUfXscHi7bFjUV0KnAv6MvldcBFXHiz4jt34FNm2Hbfvh+RfhyScdL7KJ2DMVsoK5rxC+exdUlcHGHXDfPULBsSxhBAyEINLFnjUlLL8lzGxdGZLa/m3+Ax3sZF9+aD7Iyl3Ov2BnzknZBXfeQ/VnL6CyrJSQrosGsb29Tniew3SaWuGuP8P6xQh5w0YYAnsBH4w/EX7+Qzh1HhQXg9/DplcUdv3AzQXDyGHCOCJBuACOcNqanhYylC+QR94aBc3JTn0Z2QXLfwLLnpMJE+SkzIDCYF8FVEkS8tUdxwn60R2DezwpPHyKDD1dwsMny2J9KQoUlUIyLuSRyvEk16/FaqgfVHL9Y6nEgEgEHHVoxBAwsCS87BL7BIChAzasfwV2LIbrfyd6NR0sNFbDBw/D5T+CcFnfcwduerIkWIlhgIWdn45kh2pcLiGAlpfAzOmDx11w7pDzkRy5fCTGciQ8MYke2LcEplwkFk2wSBC/rokH5DM+jxT6I8mOomeA3k9Q8cIVd8KvvgKTJ4qbmCZ0dQ9uSpZ5McvKH7IBWKNYGVnPu517TMLtdvejzWiHoB2vYz42NFEIZTRNuAbCaD9JpjqZYVtg5SkTlvvKkiRilQfGKz/3sPg3WnAJF/6o3kuSDql0t2WB7vRNS8XA7RXtJIaDvsal+aF8LuxY5kRWmBpJTy5dlcBt/wVVxbBgLiyY1xd+0xsHz+EJNemwDzs/CQJi3rLihv/4HnyzBMKHHlPudrsP3us+3Fp0vE+mpGGoFv3t5ANc3F4PTJvc/wYnzIKbvjjqqdgKg3IJB41RVezTz4RpRdnvZNuCn6uHuOaGnZNDW8MaXhTABlVSQDOInLoAOAFYB+gwIQzn3ATHlUFlGVxxoQjSj8Vh2SphEbYRBSamHidCwHxDV/zRw8LBMxRIEv3dRyMw+mRMXOPxCd6tuvsb/2wLtr0DqXY4+QsiNTAfDPcUl0sV4Y7OdIxsxnAGnPLdza3wm9/CA4/ByVVwykyYeTpMPw7OPFlcI8vQE4VJVcICPnGciMwIDPbfDdtPxwHJmZPkL8jb0wNEz2WPT/D1gwVDh/oNUDgRipzwiHQSql+F3qaRaVZyO9ZzyyLisohIwtcJQGEp/OYnUFEu/r7m0+K39WfQ2Cz2ykOtJFheDFtGN3Sob9/bKaJLB+a3Z0iyt0vg1dDA4x88bthnjjKcLPPmsgl7L56C+WISpatJ8PZPnImvqhK5qCgv/QBwIvCJi8X/TXNImSIX5OwaPHzIiDEgbNypuJA1FFWESdeuhKkXiL0yA69/F9Y9Ad/cCmUT+t8va0webv5yn8Gh9aoPWLXrCb5UcwCizoBLFubvpSTLfQn+uTxs3JiRX9Sdn7F8LJUYSZJIpVIEhiKq0cIAC63s7gtvX/cC7HwJ5Ao4sEwwmoFKjGXC/i3gC8PYyfnptn4HrHgQ5l8nxqmZQhMDiDiTaqBrJsg5tuAjnaA6GstO5nFDjLVt0JLw4aMw5QLw+qFhJ8x2/p+Bj16CV78GZ3wDdr0On/stTD0bXv0eNG6AL70IoRKxCb55O6hzBdPJhEHmnZtjldRMq79GXjgZHvjP/tWbFCV/nfLMzQ+zctJQYRHpdDrriTF0ePg8mPZ5SKyGOXfC4rvhirtgzuXQuA3e+g5c+hCMm5b/OZEW+OAxWPgVSHQiym6OsLFlmL1p2oKb50JKP6r9PIYNrZEOz/a7ew28eR98+h74+81wzjfgrFsGjzMN6G6FbH+yYeZ0yd2w8iERfWBaGt0TTCFfAsw+HX68KH/51dDhdyceqSO3JAMuGeuaC+gzc+Vc7yj9qYQQ0jPfvbcL3r4XzroDKqaIY5qWRlEyZv3DDyfLdm2WDHTV7l9R+4RpxzTsJjNXSVHhv74MhVLWy9eyG579JlzyfZgyXwg1noM0SJmGEODd3sElW0cKJ8v007EsGzveweb9m7g2o/IVLIRn/yTKuQ5kKMWF8JlPHNxEQfRFGu581iNyAkyaOiwf1FLw4n9Dchuccz+88F341E+hYy+c9CkoHisEzLcfhNhSmLBQpHC+/zCMmQyBSigZB0U5Mko+3qVpGm6vKpQYyylIMtCZVt8IP/kJvP8OPPpnuPxCsQb9vqHfYWJV/uMZGI0nbQgwNCEDdLfAX66D+WfDBT9zDFSSI4D7+wuP+aBhE/zxepg5C774d3FNdzM8vgi6GZnXy6p4D9OyaPVavPXzbzH7Wy8CdaKBZ751OKZM/DtccL7RiPjLw/Tb6+HhT8CFP4KzcmwZyV545jNQ9WnY8BJUKNDWCp/4LUw/QzjDvYG+Z1pmfuNGhsyHDSeT+sZKms3mKz+J1tyB77Wnsy+WSCQoKhg2c6UPRilTZGTAob5tRgayM5MbAup2wAtfhSt/CVNPg/1vwzM/gKt+BXMvgj0fwQvXwZ2boHRS33WxLuiwBK7zPXtEyPB+C9pnrqH5hr+h/0WFHQdzkyMDH0slxrZtgsHgYefyDLQay64+o3XLXmjaDBWZEv4StFRDtBkmnS68CNF2eGIRlMvw5eWOxUDvY2LQ5+2xTHjoHFh4p+OKG2gMl4UnJpUyIRgi/fvfgRyGebOPaHfbrDw7goV1KE9MKgbP3gbuMKx7ES6RIbIH3n4IfrwRJjuCVrIX2reITXDfX6C+U4TUpuKwe4Ng3FsWw6pH4It/gS3rQH4JjPDIc8skrEu2Ts1VC7F6zkW+7hzRnftIwSjq88Ng/iJJEn6/P1tiOZ0QkW6+TVCzGOQJULdWhGjbn4D6NfDhW7BjHky7Eq66D9r2gmTDrAuEwNS0Fd79EbRtg9XPCof/SN6HTGK/ZQq3VUtVEdqc2/EpvdAcBf/hC+CDcDFMuEgWDpO37VsDTbuEd6tuM9RVi+asA6GnEX5zGVz8I1A8w39Ln+PcsCzQdIPHzzmVu9QTmbxsNfz1XigZKlr+yIA0nJ0iN2Y7j2bx2E0w9gTY/RpUngCnflXQyOQz4M0/wMSzINoihHApUEBTg4vwpdLwXmV7dB6GzFwsySDtyvHE/O8v4MxTj/hGNpJnOPs0l9sp7SggFYPazVC/Dd77KVid8JWlECgQtNRzAKZfJPi2qcOyv8G42TB9AXTVCuNWyz746yXw5aUw9dTBcxoxnMwEwxJhTU0ldVg/X4T8wSZ44Dsw8/iDQ8RIMJIG6nxb661H4IJhLEaIfavzAOzbDFN2woGNsPUFWPU3KJkMxRVk+1G5XfC70+CUO2D1/0DBXDiwBS79Olz+MzAdD3y+x3m9Xlyqkk0WtnVIBmzM8grUnl7QeuGaW6GyHNasE40pjwCMqjt5nnGWCa8838LLr2/g1psXUrslRFE5SA/B/o/g6l/DryfC+T+Dc+4Q13v8/d/ddvIptV7hkYjWQTwCsU4natwZN9IyUn2QaIVETCzcnpNPgNKPoKMeJP+Rdz/mQJbljzDHfGhuroG67dDT0v94/XZYswoOfAgdJsQNkRnR0wJL7oEd78B/vOAYhE145mZY+AOYdbbg4ekYrH8NyhzZbTjvWFYOM0TotSK7sCdOgKnTobEeJIlQKHTE88YzYajDwbBL2EHonndh22qY8Bw0bBX9Jmu3wOJFEHzRiVxIQ6oXtr8F616H+Z8m+0GiDdAiQ9m0Pjy174NMQOuQc8soMTZgyVi4MasmQEcE2pqOaZTqx6/EMkJQjMVih99F1ezPIGQ3kMi4ZsUxywTFB9E2+N1lgqF/ey3seQ4qzgctAQSg/QA0V8Pmp+Di78HEnI1OQlhlatfAzA6oexEo7z8VWRZGDd0QHW8Tn75kaNP8EYBhQ7aGiTJIp2D/RkhuF8K0pIgw0YFDl/wKlv6fUMwiMXFMVqFxO/S2imf0rIJdK6C1JkcAtsU9h5ybLAR83TSRLIPqC88jddnd+P1HmH5HYYoejCeRNB2LJfC7/az4o7Co6UDHOvFrGX24inRA837xd1svdDwNC26GD/4IkeUwqRri3fDSfwvaaHw2G7E8bJwvCCXHNkFPixjUfefPo+vz32KcooqPWHgUShs7329URaHy0FZXE+xfC3MvBdcA66Wu5YThDbyVLQRULQ2TTxZGAlMT3gk9PvJUMgqhoYNmGiCrJG7+PFx6Dpx0wlG1Ko02dSrfWuxuhU1/g8SnoW4DeIpg8yuw4jEIFIl1kuqBZf8DRiVMXlDAhn/A5FME+gvLR7YSDwuOscOSTGpCsOOSGZw59yq49IKjhzOZvOsyFz2DCm04wqJpiBoe5n5hXAkUwOsPwPYn4L+2QeVUsdm/81M45Uswfgb89WaRVjD5k8JymegccG9bTGm4yGbZbbCuax1GVwIkaOqMEv3ajRR+a9FRya+wR6hpkLXwerzDmjHTCVj8HWHMi8Rh5QNgabD9TYE/SYGtb8Dup6Blm4gIie2BthrHIOf82hY8fTPIrYjShPmelU7jcqvZEBWXZvDeaT423vpbTt9QDw/eB24bHv+/I6bAQI4SOsz3ywhruXRlmjbLtWX8Y/LtnMazwEXIssSBJ2FHJ5xTB70m7N8MXV+C1Fj43L3gdwz67fWw/hlo3whzbhAPkWX48EFY9y58/td9S2ikpeQOw/onYUcbcAUiuf+f/4d87y8g5Tu6HtFReGJGtR3Yjqyl0m8xS4jMwzTCgByJQPtaWPxL6F4Bl/0ctr8L078A7btg91tw+k3w/DeF9y/F8PIEzuMMQ4Reu9pTpL7/Q/x33AxPPw1TJxHr7SUcPLKloW0LEdU9At1l5jcQ1r8IretArRAD9yyGxb+Gc52ohJ21sG0xFE8BqUCkRbzxY7H80tUQcdbhqodh/2r4xiqoeQ+mXQyrfivwNhqqsQGX7sPET+99P4LUdHjmKZh+9GRX4GNeYhmwLIuysrLDbkCU6deSAVntq4xqmoAmBEHZA09fB/UHBMLqVsCrD8OMVWAmYXsd2N+GdW+KdN+5n4EJ85yqjo7UqaoinPbAKqjeClMuox+VqLJIQ9/0uAQXW5gDIsyPFIw2z2UkN2b2dK5lyRb5Cg3bYdcykUYP0JAGLxAIw18XQhNO/60AWDJ07BeWt5p2UNpBGWZfl2RHODcsLMvGsqwBidhHDkasCjOIy0goksquGp3b//ZnSv73BrCEFf9AvUDV3pVOGqULXrsX3nmoP5rNlKCZdJuwrDz6OdEPL4QjEOAITSMwZsUJW9R1Yf21JRlblhzl5Sj2ZhlB+RsOp2v+Ba/dDt9cBdNO73+/l++BjU9C5cnicEYZzAinr90PXc/CtyKCzjJgpgVtDQfZeGILdHRIJ9FOmAaXXTz8hUcAspvZEHiRHc/jIBK3Yef7Yo2ZGk4eARhJcU8zDZYO616DZJ0Ii9ViooLlzhXw5PXwue+CexaMnwXHnSy8ENuWwK4lYDWNIswmOzebLh+88+uvsmDWHSgjSQ2HCMM1Lc1E5+blBLkGkgHXx7ug24Tt78CS/wajGPRGiDTA4vsFPqZMAVcF2Ck48C+YdSGsecnxKi8DxtpIij2oLVJmYvHuBI+ddBOVe08HyyCha6J3+VFKEB+xuWsGhlGguxrhsQtg6+4+nO7eLX4b9vd5J5b9Ada+IY4H2oSRZdMTwmATDAFxEXq8620oiA69pYRCIVxuSShYFhimSbvfRdu08XD+J+CdZSBNgDPmjeLFRg9Zj+NBehJsQPMlScrdvNCymGn2+bR1qIRi4qSlO/z+bTC7QXPDvIth1uWCdz92PmyvETLBhMvINo7t2QNNO6Bu4+iiJkB43dNAZI0NlwOWgX32fPj7nwRTO4KRHPkgs/aGg4H5x5CjQAJLfwu1H8Fl98CL3xEGKNkjzjmF6Xn1hzBxjpAf2h4S59ouEQL3vqXQtBvq18IJV4rx9XtECZZhU6cdj4JpgaXA0j3V7J2rcdq8aXDvTwAo7+4+fIP5ALCcMOKRlD/h6Rh8buMvoaYb5n9W/J0ZVvNO3/BN/4CmLWKt1iwWaxIg0Q21a0EKgmYLo3J3M7z0c7hCEnUyshMYam5yH7+VbEXsP2PKYPx8OOsgimsdAfj4lVhGeGI6OjooLi4+LEVmYKqAnGMFsE3hXYmuADkG7c3ilA4s/RlocYjWQjIimsUnOsR1KeCf/wuechE2tOpJcZ3qEcSU6nAEUcejkAWviemSSG8GFnay4sAOTiqfiuco1fA/VE/MoLE4lk5E2NMrd0PNq6IuRy5YiCIH6Zzr5KD4z79+AOjCSiAx2Ao/aG622OSwTEzbOipV1EZ1zzx4Mgz4sH0Tb8rf49TpUzl+5yeyA21g307x7Rt2Q7x2wDOB574sinYArH4IIl3ieAJooU9HGI0SI/BkgW0OVSriyMIQIU/9YDjzEmL9rPyjUIbb14pS2uPOgA2/gAYd6utgzBRhQUrhFAuzRdn+JkTYkNED3hKB5+UPQKpheJrKgGGAaRtkPGrHAmxbhJMdTGmfaCesfUTkLtsIXMk27F0Fyd2Q7IRtj4tLU3HAFlV5fT0itKBhNeg2LHteVOotKIWTrhQhaE/fBrGkqLkW4CAiUfIpWv8/gbZILxHDIN1TRDoCqgGbnoFZV/YJV9teh0QbdL8qwng++guUjRN8a08N7P2D+P/rj8BJt8MrX4BmQCdJ63nP8sMNW3Epgz1rblVizQlAoJ0m41Wwe0gblshVO1pgMWQCOjAqqbN+CVTvHvqT2sD+16C3o+9YQ855hT5vsawI418nTphKHprq7e0lGFZRJnuFVdwSYpmJJXpX/fNRUYXzcPNgB77HKD6Dkm+cZKOrGmCxq207Y+woXdXFmEmxfra8ID6D5uz3kSQ89hWY9zmYfCK01zjPB/b8C/Rk32fRkvD8nX0Gq5EgkwdnOfX+s0a94qKhLzpCkC3HewiO15TDvzb8FvROONALS58dWrdOa8LbYtMXkVDn/H7opLAMNAuMpKBmt6PMvuVezhZzC/Pti5CdC9va2qisrMR9BI0OmeJOhxLpV78dIr2Cz7d/ANjCmG4jjKUZUt2bU3Rhy4o+vO5eK2QtRYOOnUJW2/8RSCasfRYMpxPAcGsjk7NjmX178LGEj3+JZdumuLj48IlqQAKkpPR9OMsUFgBrz+D1WdcmvllNgyCM3CpbFtC0B2rWwK43oGEXFOAk3QLbl0CKFBuDq/lrYyOKIuNR3LxWsY43L05SUOsBK8lTvS9xk3UBHobvGn/QMLDoSx4YKbGfnNOxVuE5sIGnvyp6OuW7TAee/0GfNSClQ+1qoSzGB2g8wzGdTKiSrplg4iTQHw0tZuQhch48SRKYfh3Ll6Z5zCtM3XkxMv0VbcuCtx4WgufAR7Y09/295B99tzbIiZEexfRdLkg2w443bDjBcgzmx0aRGZWCPMR5E3j/CfjgeceLYoPqFVUZMxDdD9v3CVJe90coPU7QYQxY+gBseRsu+p4Y29wgvIAjVRa0EdY4wxEEjmV58YH5cf3O5Tmx6wN47i4odULrDE14kHu6INolcNiyX/zqScCCrjpQ6iAqw9Y/ivvUHxC/bc3wziPgekIoRBkhITTE83PnLfb+oxduNwhGEX4xEN4NPcXiM3Yy9ZVf0bnfxXgbXv9viDmeK4D9qyDo6+NPaaCxsY9OM78Wwkuf0dmSrh7WTPszRYE5nBSYiTnA5Ox1ueiYtRbae7IaU9o0sPKZpo8UWCOH0IwEI+mkNvDKb8nvfcqMcV5x3ZPQmxaCk0r+UNhgIIhbdfPRbX8gUjoWSXOsVZnKFWPKB190BGA0lZjyXwgxVwL2nUvL2GZa2IK34zwiiMrO7z0iaCm3WXJHC7z1kJAFMvZTC/jwZfGbO4eDoY5MOKyNsCZa0lGkrYEwGnmCwZ4YXYN373BCrQ+IYwNpLq4JXGbAtKCz9+B3+2FDtlxgFcE//wNqfiyBkialxhyjn/gipaWlR1SBgRy6GwXhDXzf+8/Yx6b4ZiZYF5P8IIgFHKgbnmZyz2UiZEwN9u0R929YLiIWtr03glc7B9zAprdhpabAJRySInsk4GOpxMiyTGdnJyUlJYdFXLZBP8TLct9i69f7Y+B1zm9miJGGfev6j9v9NrTuE/+PAS/8UFQa0QxoL63h7ZNvpWZHOW7ZBZJNa0+K3jPriAbPBktiXKoKxTpK8dIjwMDEftspBLZ/I0Sq+6xGMqJSVLFTeSYxRLwzOIJRTtnPRAJWvjl4nEmKTjVCU2pwkJgiy9R7e1nd1cv6y2PwrVascvvYeBmGgFw8ib8t0nYSTJtI+W6ScoSANbhCmjFCiFPm3oOPWfRQz8ZkN+1d+bmGhMQWT4Rtx++n/uH5cJeNPeHom8qzceOHEE5mGtD4Yd9GpuXQkjaArpI5NNydEpWnMrdt3wrpNMSaRfy+hfg3Uu6HHugllQpgyOIK+6DEiEOHbLn1kTwxtuiXufYpg86qet76wj2cueGr+KoXsG9FnyyREY4ydoFIvehGnfEiGxY0agyCgesz8+jRONWy3uujvQ7t0cWQD4Soq4tIKELzJgsD4cHTDHj5u9nbYiacFkn0Q/mIYKoGRoGfb834EmcVnpl3jPeHBs8u/QJrv3EjVnEXKdM4en2kyLGMH6RQUbsBmjZA2WzYvIT+1ebygDFCxLPV5YT8OHSVpJN3rrmTJ+sWU/BcuD/ftC1kZDo93XgLP89YTfQXso+yQJ5NsB7OcMbgfbOpp4f1e5egaGMZ9+GpLL/7Ulqe/Qknb/kWLryknTWWYLDebQxAbObW+5ohnGcPHVHQdRvYSMITg+3wrpFc4kcYDjIcz0hDryNNdw1xTVueBTjSmtSBra8Jz7yNTTTYwnq9iY5OKY83TXiDmsoDSNXTiK6Q4VQwpP6bc2dnJ263+4iGlI1UlRJACoAdGXDQhBd+9mXatfcEYDniAAAgAElEQVTpePinnL73v5Dxoh/iMsmgpHUtpON9x0aiHFkSdB3RILVbQrr036bDfDyVGNu2CYfDh50TM9ATI7tyFJSROHjufBicr7hzed+9TKD6g75zGh1MKpnMY+f8ngp/CUg2S7dUc3PtbURcCZBsQoSRh40JODwYrYvV0OHF2yGRhg/Gvsnm11qZXXctHjzC0mtAa+PoNvyRwMJg/by/skx7CP+rg90UsiwRjadovy2NlJDA10iqF0zjyC+fQ7bESyB5TYiUEzlxA++nfsT8VxbRI9dynHUxXkZZqnEIiNHMkuu/ytJtW1C355+nJEkkTI3EdRJjn/sG2F1A6dFX9RwNZFjBd4iTyV7YMkwowWgeDdBwQNxjw4uQiPYxZNVvYtlWP8segCIptGtdPPe1/ybxm2/QdJUC4WOnGNtOzMiQJcWd45IMW6o7uOW933HJZ8dQd8nLTJJPZkr1gmyIZj5or+uzqnUzevzqJNhy6nL+2NZIMDV4cl6/zQeVhczhUsyEeIGUpmPaNspR2s1sGBZX2TEDoDcWI9AjE3E4aqYYUi4uUoZQYAbYtQaBgaiolJHfDcVE98u45aEFHDmlUtwzEdkIYNFFyjKPqifmUG5tpOEXn97OysRKrlA/jxkpOKwVkFGKc++RJoJeVMuPTryXqyeJRPgMxGIxfKqX+975O9tfaSVeARSZWEfZmDDq6mQDjkU9XbSVb0axL2DeR9/G0xCk5j8epqLhTCZ0nZsdNwpbVRbamkXYei4kibDZqsbXqWGa/QVxSQK3ovD8ia/TMmUyE5tPBqSh+8wdDRiFRyH3VEeD8Bw1roXuYYyehzOdNf/KGG1irDrrPt7a+SLqrjy8QRLKRPKzRZz7y7+jpoQ4LNn95a6jUZ0smxMznFFmgOGtdq2oMNYejoIM+278FdGVXZz15ncIMPaw5lMzQIazAF1KoWOgDZCvJMAwJapvXErHg8chGcqREQAPEQ7py5imSUdHB7IsU1JSgq7rdHaKsi2ZhHtd12lvb8fj8VBcXIwkSfT09BCPxykpKcHr9aJpGh0dHbjdbkpKRB+GSCRCLBajpKQEny9/DEjmXi6X67C044GJ/VIOt6oLrqe6ci9FsdMJJgpwGQHARhkQdWmhY6Kh4kPKsbkM9001OUqhEqLYVUSRWwi1xa4gqmpAqAVsA5HFcBTDpEaZExNPaTzc+CTGxmLWfOYRlCv2U1p3CmN652THH8w2oxNHxoWCe5DGb5ImUroa34wTuXviF/pzRluE7a1/3+bJtUtpXvgoSNBhtpMmxeBo2GMAzufunxNj05LsRq2dTdXmhRy44Xe8e9ZT4LbZsXM+8169G58+lnBPJbIhkfTFCCQL0eQ4iuTGa+YPH7SwkJDR6CU+ZiWvfOYFzi86BzuPxCJLMnt3pZn92nU0nv8PCNdj28djS8eA0xyEATAVh9YtUHw8RPQ4B6o2YnZWEExUoOBCYfDattCxEd3P80FGoO/pyow3eOf0X/DI3t8TrPfmscZJSHqUWDmsi59NdG8CTrGOXU6Mk9g/JGRwaUHnhA3sv/gR3tx1JRT6aNnTxQSHLoa8P/1DEkcLTeENfPip6ziwvxyPMtiNpSpu9l9ZS6rjRna90wAVNsm0hW3ZowvkPxQYJW0N/HSR3iTk8NN8/MrKOT7clzeBx27I+VvRMf0SHmn4fUh8I7HdJgwTc7g4rMOFTLz9UHMZENLZ1QBvPWLwh9tvB9eHFNw1jknpyw9q97GxMUmh4EFCFjmQA8aYaNiKyUz/FGaHp/VLuG5JtBD2Bjg+OJ23Y+tIvVcGVwFH2xMziv0Q8imGDj0ZLtyEOL3xblqr97Hs21fi33E+Z/3rxxQlpmFLFh67cNQhlwNx/tHce1jse4bSN0N5zgpe356K4JpyLqVN0yAtH3Wc5cKo2aQtWlI8/DkwdsHMZ7expOopSpPzCWhTKGuficpgPmOQxETDTWhYPjfgUc61KXqL6rj/4vu5Zfz1g+QpWbJJdEpc+uTX2Tz9L7RPrgUbFBRyCaKnp4dAIDCkPHooMKriG0rfyyQi8Nyz23jt7wfgWhPcxxPeczrdC/7By2c8zPQ/340tm1T2Xo4sy2iuTrzJKiKBjUjIlPachoSEJQsvXXdoK0ga5e0L8WuFMGA/fe3cr/PCtCcI/yWclw9ItkT7rB7Kr7wWb+0kbEXCtv49vphDKrHc1NTE3/72NxKJBN/5znfYvXs3y5YtQ9M0qqqquPrqq3n99dfZsWMHlmVx3XXX4fP5ePzxxwGYMGEC1157LYsXL2bLli1IksS1115LKBTiiSeewDAMqqqquP766/MqKZk+McphNitkYPiEU/kKG5ad/HtW3/4CcnwcxY0T8fWWgSWj6mPwN4zD1zyZzhPXYZomWvlGyjdcweTdV6Lgw0MBIKGgYKCTphM3hVRXvYAku+gq3ME41YNq9xGOKitI3ghMrgdDbAlHBTL8bQTLiY0TRuZJsuxLf4Azq8GdRldh/TVfZcbr9zGx/axBwmRG2O5gO7vPegdv21hSY+uwVQ1SIVLj3kIxynClx2BrXmYu/QKq4UXFh4IXnV5uLbyAz1ddiZqnNGRRCna/MYdXZ76DMW4HB4L1pOUER7ri1khd3qG/MNAbNXn3yShrIxt4J/gPJF+QE7ctYsyjp2K7ksTkBrZ/4ed8cMdnkawgJXunIesykbIOipvGkwx2olo+Qhu+BMUtoGoE66cQm1hN0Y4T6TxhLZJbQ2spxSzQKVQK8SpDC07lQTdTAyXsHf+6kJ2OfjSZuL/FqOJ8ARo3wiNXQcFs2HLyYl759m34DpRR0DoRNTqBWcu+QWn8eGRcSECUejZf+HvMUAuBfQuZsuVsAlQiIaPgRULBctQYIUyBjUk88BGLTrqBa8ZciTmgmockSSimwm1P/Zzt19yPFeoEe8xRD2PJgJ0JkRrBE9PnItao1d4Au5P9J61g7poIPg4vgdcCNCKk6cZNmHZ1OzvO+TNWaRVPnvcEU8ODGwa6FZWvfO91ng9/AyZEwQTdMo+q8jfSnaU8g2wbtsf3YSpFh2wU0kiwc84zxIs6qVx9Ki7dT4U9DwUXptJDSYFESB2mBGsmXslpDx+1DJGwfrTgIARLgLc37eSud5bCwk6oFP1+RjM7G5t2tpOkg1RVgoYFj+KKHs+4FRfhjvsoY07W8xzhAC2lG9FKOvFKvkHk7vF4ULwSFftPwqj8OftOXAWSefTXoT1y5F1/02T/kWq0ENlRThe+ezfNtaezc96zrLz5egLd4zFlCPeIkoreuhmcuOU6XIiO0AY6ErKwbJNAwZvdT21AI0rrpFpunv51/uuUG0AeTMGqIvPLV9/micD71I7bCGbvMeNdmYnajOyJkRWo36TzXvdiis7zsHdLG3u/8hv22DLoRVR9cDXBA2czqXo2XorZOvctJm6Zxf4zXqN30kcEWs9k/PvnMIY5eCnBwkBGRc75Oha2g00Bpqqjh5OMcZeJsP084HIZeCNjaf7MQxCKQgJkq7/ccVT6xDjtPYbFm9tZoja88VOT5xr+xYY7HwBZg30LOPef9xNZWcvWU3/FjlvvA0+K6tij2JKJ7YtCrBR8zeCS8LYdB7aE4TKRAa2gFsmlEd41n3DXREo3XM+U/WdiksZFkMjUDdx8xm18ZdJ1+SeXkvne+4/zYdFWrGkrUGyLXet1GKG37JGCwy6xnFFUnnnmGdLpNKeddhoLFiygurqaRx55hFmzZrFlyxYWLVrEmjVrWLJkCT6fjxkzZnDRRRdx//33s3HjRrZu3cqiRYvYsWMHS5YsobKyknHjxnHllVfy4IMPsmfPHmbPnt1v4rZtI0kS8Xgcr/dwmhwgzLa5OTE51WUiVoKKVxaB4qHzgmeIGFuxg1Fsv42ppMWGJEvIvQqyqdK24H22yLdDrBiap+HSFSa8eiU11z4DVVtE6JrqFRupZTJNuRE1B/2yIiFJEig26GBKRydhfTQJZbneKRtbvKsn7lS8keg+cQMr5lzGin0nMv3xL2D5DXzJMFqhzt4L38BIhWD6CihtB9tEwg1IyHEZuXka1vhloIItGxy44p7MgyDhAUnDrX9mhFh8GWwFZGhPpkin9f4ZlEcCRqFDZnCoyPDi/lUsil2F6eoECVzmZaj4mFZzRXb89Luvo41NrLnwbaInLIG24yGVpn3OcuT607BKq+k45cvIlgtLspB1kfG9/5NpZNODpZigm4yZegXHeScOO7eyiRK/KP85t6zdSc+EtYyuE+VhQiacbLSemMIoO4o+5D37H7i2GDC5Gz06ny6PC+Psv9Fw2Z+go5RJz3wHb6fKrtseRiltBiSs859ml2VA0gcuDWrnQbQCqjaDmmbOA/cyxbyShKuJnuPaOa/4ei6ryNcWU8Al8Tv4k/9GCHWDXnbUynYPhIOxZAKiGsSYBpBAn7iRj+Y+yJQ95xGwx2GhEbTGI7orSii2jC1ZqLobGysrbNnYWJJOj2cfOye9xIEFH8FxK6CoFyxLrFcNJoc+y3HeiZR58itJM1ZcStH4s+k+52UwRcfwYyg+5YUMmmJRAxkZS7bZYuwjJM9jJPq3MDBVHcmUSLuTSJg0KMv56Kv3IlftAltm39UWtpWm6tG76SyJkDjlPc4uOY4ipWTUczRM8+jmxJijW4OyCs9cCA/v2UDNt78PdlTU4B4CT4acxlR1mpQV1FWtRk6bHPjPP0NhC5gKiuXFVN+g9vLfgC1D9Wko9dMpramg9drfQkEUT+EMppZWDAqj0bQ0Lq9FWetMKpZ8lZpbvgZa+KjnpmU+w2j6xICU7SGnp0R+WWXdeGTHY1zcO5niDbcxfvuVLP/U7fSUt2H7uuievxpssNxpDix7hRNeuxa3WsDKG34CZgDSbpi7FHXPfErXnEvxrrF0nVBPyzUPgttHlfsqJgcnDOnhLGccvQGN6tOWgaeXY2OxEjAqYx9i6ttKNrPspq+DORc5HsWu0Cn45y1YXpPGi/6K5XmUnZoBKT8UJNlrWigRL5LloX3Bcg5ceS9oEuw7E4rqKNx0LlVrz6anvAF/c5jqa95kyovnofoDHJi5l3S4FdeJe5nomTD03FQJ1XZDICqSB2GQsSMWixEOH1kjqTVSLiT0K87xxsX3sWHD/4LLcjw0CjIq41vOYOyrz5F+tZUYDSz54i8Zu/kkesojpHxJzl78RfZM/4DWE7dhu5LIsoW3eQwz313ArvO3kZy2jvhJi6lf+DwbLUtoTp3lKL52pvj/k/lFc5DzLA4rAZPMGSxVN4InikUHO6w3EDW+jy0ckRLLkiRhmiYrV65k9uzZeL1ePB4PwWCQoqIiampq0DSNcePGEQwG8fl8xGIxXC4XBQUF+P1+UqkU7e3t2VJ2Xq+XeLyvU93u3btZuXIlTU1NmKZJOp2mra0N0zRJJBJ4vd5+v5l7er1eDMNAVVUsy3KUILAsm3i6kPaOGN3dYFgpEqkCkgk3yW7oTcWZULeA45s/S+/Kr6HgIkknBmma5n+EZPrA8FHcOJbCrgm0VW4nOnsFcaUJBQ+dpTuoufX3jFt9Bt6dZ6JoHoL7LsbypjGCrUw+cQY9Z3aTTshIMvT2pLB0J8tQgc5IhEh3Dz3t7QQCARKJBMFgsN+7uVwuNE1DVVUMw0CWZWRZxjRNvF4vqVQKj8dDKpXC7XaTSMRJJUoxbR+9vTGam2O4XO4sfgzDQHVBZ7eLFCF6euIkWztExn5mscXGMvOp++it2kHdaf+i+vu/AlOBYCv++pmM2XM8bcfvYtIbd+IxxmD7WwnVnYxkKfg6QpRoU4m4a0GD6Lg6InM+wDZNepT9uCQffn0CxZUz6JnUTVpL43K5ssqr2yuRiPuxkZBsJ16it4f2rghBTSEQCGSV22QyicfjEU3UXC4Mw0BRlCx+MrhzuVxZOkkkEgQCAQwrQTI6hkTaIBpLEO/Vs+MVRcGyLFQXtLcraBSRTKTZ0bIb05XKYUqDF36Aco7jEo5772LS70VxEUInTpI2gownQh31J62muGYaPaU9BGJBXIZCx4xVlG4/g+6yLqyiem65+mxcZyk09zTjcrkwTRNJkrLWCUVRsDFxyzoerRQk0AydRDxBS7oZl9tNMpnsRyMZ/EiShGVZyLKMruuoqko6ncbn85FKpbK/fr9/wD1cNNcbaIkyunuitLVrYMvYto2iKOi6jtutEm0zSFFMS2sHvRPrWP2tr5BKNZEyJWTZw6lvfo8pzedRV/42bSe9S+2U5Ry4+QFwGZStvo45L38JFS8tcz8kUbGdJF00H1eLL+0hUVZL1YZziIxpY+v/fJutqZ+BqwsKXNDlps3dhmkJ/BiGkZ17qMDHhNWnUej6FN2X/hksg7aWFrqCZSQd/JimiSzLWVoEEVarqiq6rmfvlYunDA0mk0ncbjeapuF2u7PXyapJIlGIYbhpa2slmFZIpbTsWH/AR2eXiWGV0NXSi57JFs4YhKU09Tf8inrjATBDIBsQGwPIKCk37rgfLZBg3I4TSNFDgT4FCRtDTtDjq6Vr3laIVODrKqDq9R/jJojlaye073TspMaib5+A0ZOiS+/Kvks8HicQCGDLcSS9gsnvXsf6094EJU1rVw/tLW143X1rNoPrzFrMpbkM/WR+M+cztJgr6CuqSXe3j1ibm+6eJHZPGq9X4DoQCBCLxUjppWi2xIHGLu589yGsfWkuWHg+JNJYA0sBOmBh0E0NDactIxbeQMuknXi7fHTP3I+tmhCqp+LdzzHp2f8PTyJAPBhj00W/pv6mX0OygMnvX8XcupvonteDWZAmHhc8JJlM4vP5sKUUul4hLMaWU04uFaers5NWQHL4US59DMRPhp4y6zCXp8mynMWTJElIsklvcyGKahGNGqT1BB5P396YTCaIxwux7BAdrQlWJxuoL9snss2HCGzQiLFz9mvUzXmankkHINAEqokrWsy0176JFOqEWAnHrbucxum7kDxptPBe6mYuJnnmv2g9PcC0pYtwGV4uWngq5WYRjY2NWR7i9/vp6Ylg4yUSU5HTfqdShU4ykaCjrR1kCV0XfDidTmfxlMuPcv/OhLRn8CM7sWu2bWd5uT/gpjuioBGgsbkVJegl1hsnFAo538+LbmiYjCGlGXT3dLFjpcWO/T3UbU+QKBjL8TUX97P+AxSkx3HpC08hIZOih67ifUgpma7Z69h6zp9Z9783IWk25ZuvxB3zIKMgvXMtlmTRedpSWj5XjW/vDCqWfpJiYw6lRXNpntSA6nKTTvfxEEVVcSkSRsqEUBuonaBAe08bXZ1daLqGz6GfjAyRoadcPOby/lx+ndkbPR5PP/kjGAw6381HV6OOYZbS2dlNe7uBYVjCu60oGIZOMOTFpIh03KTDvRFCXdC4FUtOg2pT3nAe83ZdQ9M7X6ZnagM9417Fa1TiSkzA9rVQtv4C/OnxNBy3Dat0H92la0i6e7CjU+lZ+C96znoDZBtJ9+NpG0vN9x6ARAm4Y7iiRdziv4MKvYjWtjZMR84Re5Eb3dBQ7QB2Sgan3QNAV3cXXR2dpNLJLF1FIhFSqVQ//CiKkuVZyWSSUCiUlSH61lsf78/s1S6PRFeHm1QqSDSaxGqJo6ruLM9IJBKEwgF6OlTSup+O1gg9Sit4chR6U8mGKCooBBlLgEo+++wzKKiwo29oZfUZUE02vyzjvZq7BIwlKXqpp+ac58AXQZNipOQuSnqPJ+ieTe+4CPHe5CD5OqAUEI9k6oILuVULxOho68DGQs/BdUYGDYfD9Pb2ZvGTWcO5e0JGllEUJbvnZu7R0dGRPX/ESixLOeaep556img0yq233kpjYyO6rpNKpYjH4wSDQbxeL729vaRSqeyHtyyLZDKZXUwFBQVEo1EMw8gKBhmYMGECpaWl1NbWsm7dOoLBIOFwmEAgQDAYRJIkwuEwkiRRWFiYXZC5v7lg2+BFpqTYRbhAHPAHZQJ+ia2NTexsq+VUW0VCIez4yAJUAFCx7mQGqtAFTZOwmy7HdlJDTUXDcumoKR8SiuOyzuwSNtPG2JSXW7i94j7hoh4Ul9tp6w7hoJ9gOEzI60GSJAoKCpBlmVAolP0d+I6Zb5I5lhmTi5cGl4yCTDAQpKzMnxdPRQXgQiYULEAJaH01HCXAdFHaOZ2T9tyA/uFdIImlYcgxXLoPlx7EfFfDpYn3toXKkcWTAng1kfcxpvFE7EbhqbBEBwFUFKZeB4VFDP5uEvj8jgPedpQEy0JSVcrLy5FlmUAg0O+dh6eB/ucydAMFeLwKPq+LoN+D32vnuRcUl0i4kAkGFfRMwfyMITPUhEWeMlDOi3gpQAEUQngcN1IJ0yjZJDrdTsgpO1216nQkJCZEQcJm4tU2BYXC2jbkO2FTXhZFNUQcr2zLuDxeSotLsvR0sPgZ+DuQvpJjbFwuhYKCAkqKyXsvl2XjQaGsZAxmoJNs4x+3jdQj428NIgET2y5hwtsXcaIriaXqyNh4tQCWKXKfyjfORXREMDFcOrIt4n1dmgdTMdlfuoSPzn6GKctmMvuscVz0uUspKXEPeodwOIwsS4QLQWlzrOmyRFFZMQWFhYTz4GUk/Ih79q3RoXFt43UruDwSpaVl+IKDxxQXi+IDBSVhEu6ckAgJxrz8KU7Z8kN6pXr2nLAMX5OfptOr0bxpzJL9JEsaoH0adZc/C91FtPnfBm8aEiDVncXMp+9hdu3nkU0XLtPdb736gTPOtKmoNJEYzFuhALdXxR8pBssLchq/z09RSREBj3dE/OTiZTT8GmwKwhLBMRIFYS9ub39c+30BvC6FlAEdrnaWuJ6GSbXUNPeCajhV5wZYWGlmw6xf03j9YxjhKKRkaJ5BYvJ62HYZrs5yjt98ErNbb8BtixAgIjZTnlmIrabBlnGnAlSerjKm3MDjkygoKOz3bmCjuhQCVCLXz4WK3aAqBMNhSkvLRJTZEHgaCi/5foHs83zFMu4ABIMQVgfvjZHdMrIkIftNln3519S1PQFK/vIQUbWJD67+El1nL4fuANSfwtkP/oKx9gJkS8WVzvRtkZCQKd8xx/laFiet+C62S0exZULpAElbZu5sm5JiG8vq4yGyLJNOpwmEXRSXhXBZzj4pg8fvoshhJiPhIfOO+fbGDD3lHpNliXBAwo1ERXkFhQUSBeHCfvcCGxcybtVFOFTGenUV39OuR0ovhLiKe4gQADcivNCFn1BXJQBVa85gxqab6Va3IyFRljoJyeozx9uApQq5QdbdyIaCGxfjPwVl5daQ7+T1+GFSNXhaIQkFhUEKigpQJDnnXeVBctLB8P6ioqI8cohEuEhUDS0uLaS4mEFyiCwL6cflVQiFCoXBs6w2s6RxmwoqHiamz2TidrC2f8YJsZOd7VTMq3TX/6PurOPkqu7+/z7n3ju67slKdOOuJEggaKClaNFCKRRKgbq31J7SPrT98VSoQqlhhRYt0EKLhyBB4yGuG3azLmP3nt8f587OzO7YJrvI5/VaJsxcOffcI1/9fBsBhS2iKKGpC0LeFhzASyFCCYRt6rB1xwDhYCiDE77ip7p88LuPf0ZC4DECrgdSt6mwpJDi0mJKhR4L7e3tFBcXE0yqUZRtT8ynr4uKwOuXFBWblFUEU+Z7SUkJQgqKRwk8ewSl5aXQJhPyBbihqYl3JhFueajMIr1MY1g18VFKI/Of/Yb7+JqZ08KibrZD0A9B/2A5koikxFcGpbshoIvZSSF1WzP0j5SSQCCQ0j+Z+jHdWCwrK6Ojo2NQyPIhKTFdXV2sWrWKjRs38t///hev18udd97JmWeeyfPPP8+CBQuoq6vjjjvuoKOjg7POOotgMMjtt9/O9u3bqa2tZdasWWzbto0///nP9PX1cdppp1FWVsbtt9/O/v37KS4uZuLEif339Pl8+Hw+Ojs78Xg8xD1Ice/DoUAAlmUQT72wLO0me7D9YezYXiQeXR2dgUmxgpIyCLemspIJBMKNaZW2mSUkSYAjkFIST+sxLAOhkl6HdJCGGOQliz/roT5zfB+XhsQ001/DMvUzCyHo60VXxku6gMJBKhNvOHkBL6bEpw1oXRHdb5qAIzEgBTrqq5Pk1BzdhngSt0DLtTIDC5EQ8XPibdfTLt5Ph9wvA6BsMAyQ0shY8deyXFe5EMRkWD+VAMKF1Lx1Cpa7kXnQ4yc5MMIEZh8Hbz1FRlXHJD6EkjtCYJoCw8gdMlJWa+IxfaBgv9lOR6wL06zOftJhwDB0S03TIFO6mtl/jIlKEsAwQO5ZSImTcP0LJJ5oEKL6bXvRaWzxzU24aqARTSV1kLbFpAMraPzHCgTQsBX8goxtAl2MVsS8/UHI0pCHnXOX11h0c2JM00zbPtM13gspETL1hVsRP6V906hgBuNeWQGA8w990Sid2ESxKKSdzfgopZv9KBQBKggyGitNIm2KwcEQmEamLcJAGGDiAdsCE2ylENI4/FzFDJBSh/wahu6XlHabCXu4MACp5+Ke3gfA34JtLOkPE1E4bK6+h9Wf/BJOIETl+iWUvHY+tdvHU9k3jTAdFFCP4a4xqWlJAk80AFGt1IwvhZM+Df6gmXE+egrRvGh2vNFRlKkwzJHrJyH1Z7o1Ph4dIgyw/SGUTK/A2LTz7Jevpi24hjH3fpPZz11KAbX9gpJpgM+C7jQUXAKJJxaEJAeP3m+Ffo8DmmWaJoYw8Hhlon6WiKEMNWLjCeL7CVhW+vkHib0wFHW4v/tPRI29sPAO2Dm0yuQCgS9SyKjIEXj8cMzF8Oydmu47DiNmDWbgUOnfY/858QzweGicpZCGgTmgIvJw7Y3J15Ju5JppZV7ztbgtMITZnxfW/9sAJjCJhWRw3Zz4lQzl6ZdhrL40CRjRhKIhAaGyr/sxqTBiqQVUhdSeAMN9Rr02D21dy9XXWm7AlfHSH2sG9Fxt3WXwxkoH/CRNpsEhg3lGcWdoj+z/jF8nLiRDLDIAACAASURBVPukfRQHvHYASg5AINzP9Jurjw5HfpVSpjUoHpIS4/P5WLZsGUcccQQ+n49AIMC0adMQQuD3+wkGg1x66aXs27cPn89HTU0NQgg+97nP0dXVRXV1NYWFhVxwwQXs27cPr9fLqFGjEEJw9dVX097eTk1NTYrmmwyltNCayUKaD9LlhkgL9rwOq292YL6BwCLoB68FLZ2p5zcug933D6ZWzheOSyDQf28pUpSYEYsujycy5ug6BYQ74R/fASZIaCBntqdVCCoEnihMmAqbN6Sux3kTV+UM502yQjgxYiMQX65i+ed2KIcEEYMA9s5g/tOf6bfSjQJagJ4B5/lqsxM51dRBbw+0tqV+n65YXDoUVELFXMX2g9BlRYhkVJeGB2oI5QmUA7adVFRSoMNtMvSIELDsQnjzQdjfnfaQwefEPw0t/GaDYaGthAKgk6jKRlw8fHC0+Sxzn6VK0CnfG8piIGNPfCvyJlF5V6Kt44XUZbzFaKCZoVHC6vuZxHfW2EgVno0jx6X7zRrC5RpTgP8dMCAmE7V/QlY3b5x1M07LJJbf90MqDs7AaycS830DCgyPawBvBWx4LUEYFF9xqsbAjDOzrxUf+hZsfFZAzHCtEhEcNULELZBznY63VSoToQYyLsUVPcXK2XcQ6t3Mslv/Rm3zkkHMnF4/VHih+2DuJvWndGVYu3Sor4FhuvIZgIiCGMF+Iv+cDkPC7s53eG7/anQCmHv+IY5304SaxSD+RlraQIOkgpg53qdMtvgJnWvKu8FECagIOfMgBVrZad1pQkyksG6lO7YEbegcCptipmUy53mOoO7F2RhHVGPX70l7FcuyhlUBBHevFNn7Tbo2pibPTnZZL6T+mMf7LUePofYhti2vJxUgHRMcmdRdh6NGHToOSYmxLIsJEyakfFdTU5PzmOrqaqqrE5Zgv98/6JiqqiqqqrJX5xVC9McHHw7cXL1Emz2wN7KT1RNuQ8QKsCJllNaCHULPqiSYwfQvW6CLC7e+o//fJr1DxomlVjsWUrvjhR1EdJbguCTLww47dzJxfL6Go1FWtz8OBVvyWx1kwrJVORm2bkhrVMqJXHUOBCJh0XEcnBFgRHIiuZWY5N/7E1AFYHtSWNtM0k9vw8o+7T0Fgwujaat8fgqWaQk8BQa0gK0cbHvkC8flQ4ig0Btz1E6lMja7ixkdNHD6oMvRHix3jwSgbjrsehT2p7lmNog8vFaGRWJBli1saW7h2Fpt2BhJKJWYM+kQ/z4WU7y5rRXC7oBQ9LO2HQpMtGfLQXu3qk+D9kf0d40LYfMr+V2niLGIA/WohgNEbCdrBfdhQY4dNuPt3XAymwjrRt+KjFh8+C9/pCSanSADoLIU/HVaiUmLHC+hZjJMPlYgetAdbscGseQNJ5xY9iYZmmcFYhJpetMe3O7ZTvOpv6Lu+a9Q13xU+pplEkSeEkQuJSYWixGz9TyUEavfGDKS9XSAVCNKBkg3rGBnczPYbZkPHCJEakRQPwygSkCT2zYnx1CRItUKYsdZAt8FmVJp9vKM0QpxRHrhmbu6oMHOOYcz7ZfZEET328DakDkhoKZvLsbehdhjtBLjiFRal1Ao1M+ENVyIF7vMqvy5yl6o6B3s8j0DHk7hASrQBtJ0KFsA4dWDlZh4hEemtVJk+S35IEOZkORJM3qHj4J6KBgpRv8RhVIKn893WNpxfwpD0iAyTWiu2IJdvY7iXXWUdTVw4vVQkIbcIpNlVwLTztHCwJjpkL7qh7b0J6/PwhCgIFBYREn1dHqHZIc4BGSbPO5vkcIWtlz9Myjozo+a2XAFbHT/pDs0j8vkwdgkEpPHcXByrfKHAp2ik70VSeafLmM/Q7Vj+0qz30Ia6TeHfD0xQojEHHEcYrER5o5ygDw9WELA9jUOoValV9UITP7XOYxaUszkU9wxRGr/5GOUTQ407P8uD6VPOehYahdRIu+OYckNJ8t4L/e3Tauj3PjIg2B3uccKpPIcchOnLgUfg61YAhh1Yv6PXsBo5B4d9huxR7a+Ts5LJyuDAy2VLu3sxkmPsfHym5j29JUUR/PjAxVJwsahWP0MCxqPBVki3LjSGLGRotDPA6YXEBDpJm2dKQMv28b8g8IjPJwojnPDlQZDSFIYlLKhX4nJsGWbpokhTQwTJuw6EvZNAQmRyMgbXnJFJogiiEbgkW2vgLNvWNcFhS4OkNKNEqwkMqxc25s54CX0xCLYI8h+lwwVJqf3XaDtQ5sWPQRmV+YDk44fKhL+4KFfTMTj1/qRunZ4vd5hD2mMs5Nl9cRYes2zoyoem5+AUEhUmkpqyccM/soATv0SlNQM/i3LaWkPkipVeRYZyFNGGrK5uZmmpqbcR76PIIToJwA4/Isl/tlfdkNC4MAc/NFiikdBurDwTEI6aEuXADw1CYFKALVB8Lpf2FFS5opAIJTEsAQer3StAcM/KPIxAAqtT6FQKDmExVAlBI1Mgnb8iRrNgeWVEr/nElYEMmEusJ0RqbmgonkI467Q1H4A3upaA2Jo4zFQlpEQCACrANLVcs1Xd9fKpOx3fYy0EqOi+i+n8ofuqm1lqwgF2vs3kJLWavwlkunnZbCu5AhbyHbDbBSqEFd0ZHzgYztO/vTHh4F4WEGmPov/1BRtJqq2JUnRop8y+VBQVJ+nxS0PmC7JRswZIe9xnog/T1paXqmIiB52z74N79vzmbD1lEGheLku7gvAwiEoeP2nCiiqlQg/4HjA2kynyiMG63CQpZGmR8fj93akqUdm+9ltvcKGFbdw5KrLqHp2bNZ75JpXyVBk9tyEQiEikTCGCcXUQW8tKOiLOEOrpjwCkGV6nhpSDp8CEw/pA8o9qfuAMMBwo0EV+Xhikqw0EjrCEWIj7HWPI56ZEZcZ0kGg9/Qij3+wcSENDsU0nWkJzbmFC9cgnbQYDlw/urq6iEaHGmibA+mTflLbZuk2RaLOYMHNLcERv0TaZ09nAAXGHwe+XGWtciHuiUmuomS8exM1HA7T1NREU1MTsrKyclAo2PsdSikKCwsPWzseOJ0ME6QtEI5A2B4kggGe2n5kc6Mb5uBTTGD5T8HnEiCpAWFdUgiEMjANicewiI1UuMEA5Skd+h0MzoDnUCCiFoaTvj5PcimSgX1gAfM/BJVu9KB/TpbJklfMWVw4H5n8IRXOrSzEf3/kBxHefLNnSFKhAkZPh4pJUAbU1AzuD28Q6hcP/j5Xfkf/cUIg4wcrh+hIh5ORh1UTvew5EejmIMjEODfdApWZLq7y2EcOVcZY/jGYdZHSdQgiklAsMvKhUeQOJ8MVDt6pXYdd+VZSuF5qDt1QMTBMrrgeSsfFGzW0a5kxPcai75LilxUKlLTBSM3/khEPTRWv0jx+PQv/+ll8QygQGg/7CZhQXnuI7RJCm6MdAxzBnvaunMLpoSJXPp9haaG55yBEW0l93zLGto/9jcLOUupuPhOZpf6WyFOJSRYwM62pPp8P0/DQuAjO+YqChTGIQV8kOqJpVvE5nrVOjF/LnL3RSG6NIgmuwys9FNTOhPO+AXOuHXhDMNzIHBMoLht4cipk3JWrJHQW0t7TR3SkBlcmZFvD0GPFjy/vdznUdfxQY3IMCxZfpLCm2f2x7wObWFhYiGUNb1xxLuMVaEOwUhCNOImwHQlGSw1jX/sQXlHcP26rx0DhEEM7MyFHs/oPkraRwuqm3qU8LNDesZqaGmpqaj6Y4WRCCNra2g7LE9M/JpI9MZZWYgCwLTyAL4gbfw7jSHgP4rJhuheeKdcheV2x+1L/3/FEUFYbRRULqQrUEM1HYjsUxFM3sk0ed1T061FxxccHo565iOr2aVmvDan9I4GxS+HSW6Bkqpt24En9PRnZwqDnnwZHfVVgjHV0woStY4CHe6NzenJb/Q1DP/Kjhf+EokwB85nhK4SJK6BqMlRN0t8l94f0wMIrSEmn9QGjJ+V3fSEERpz5xHGIDXNc7yCowXlmadsFRKMQiSa3R+qwlSRFOMMt0o6Zw8WYo2Di8hAcnATN0wg5oWG+Q3ooh8Fxc0kQElBg2GmYfQ6jF5IjUBRQ0QgTTkz8/1BgONpCHbHtEfXD5HNtJwob3gxDVzTFvG04kl7PDko2LKKOY4Z24yxhH3lt+KDfnbLBmAyiCHuk1nfI7blwBc5dL0bp2tiTOpmMKEx/k4KmpVjdlUz5tBak42k0g66TxxAcNR0qPdmP6enpoacnRP1sOPkHgnkHFkCXScgeYWPCQENdGggTon2wY0cvxNLnmsSnsEnCWXrcl6AmQ8SiUlBUAcdfD1XjE9eQQKkX6ufp641ZCvPOyN4+GWcGEQaoSaw80EZPpDfHUw0f8ghYINSlSWryQfKQKiV9yOvAe4qkv8I82hSHYcExVzl4ZttJCbypE6i1tZVIZHhJcXLlrUEinCwSVQl2BwXVe45jySufxDJ9CDdSo2g8eCzddyXEGfUyXzvblMo3sd9QVsrRSrw3LtMPpBKjlKK8vPywteOBApdWYrSFX0S8TF0uqB6vx0+RH6ZemxC+pamH+pGXw+zG1AEp416IDLl1lUUw80zwJ1m5hACkj3nBKQStgOvmH4FwsrhCks1aLvTAWLP7APsPdEK0QR8fg4mjpuJR6SMxlZ1QzOLhZBMWwXifVmoMD9gu6ZP06UuWAXUB/W+f26xsSkxpDZzyBbBK6Lds2iMRX96bW4kREmwcnp/8NPhyx/qmnEuSJdOgfyYG/LDowwlFMi4kxCfqjPNg8tI87yFc5hqF9sS8S3HSufrNAh64oZWnHt9BPFcBIQc5stJdJoJmXcniDT9kKBuolVBu0RuOjnhSMeT2xFjxqRYy9TESiAYw90+kqD29NlsE5JAZ+5EcjpCvh6//XPdkwyVEiDojmxOjrR+Z+0oAHZsd7v6/jRDtSHIpQ9Tfw67ZL1C5tRELM+Ua8X8nTcPhhxIQEXgqvRi+UiIjGNqpctj2pKGNdyvX7aK17MlUKdEAmqqY9a9PAH5mHqc9Ckd8TDO8CkjE4Sd1YqacBNOEU66E0fOzC23xItgIvQ9/btUNjN9+Nj2x3hHzWAEJdrJsRj0f7NjewUrnKT2xFGBDwbQYlaP0qXOOgwB6D5swUY8j0wuNR6e/dMp37pg+64faOzPKhLJR+qfSMvAEsj9DCk2xt4RYWw89wyx0Z0I/L0IO7/s/fryHVVteSx0kNliuQ9Trg9LCxPHxcTb7cp20n4wFR+uE9jg8wFFfAt8EOGIBHPuVJKbCPJ4hJSdRQDxUK46Kigq86eK6DwPKlcGy9pvriQnH7IRFOQSFSwwKKg3dl5ZWXqYepY83gbq5bjfL1LWtum5wf2RSCCF33zm+EMikxUa+y96/+G3fk7seJoQQdHR0HHZOTFyQjCMeToYDOAJ/jVunwYA5Z8Ip34Ra180b3/ALK6D0+FTrsDlAt/IBM0+FqrF6L1twDpz65dTjxgUa+MURt/K9qVcTMCS7eyPYI2CCim+dGcs/AMKnN5I1zhscpAmiR0DzRFg/lpk1FW7pTi2MLrsaaqe41/Ql6mLGvVHBavAlLVxx5Sb+KQDDdZdPW6YXpNwxwPH/WODIkcmJyYedzACJpKCnaEhx2/GxYlkMYsfxW3Dy9VBWqC8pTfAVw+yTkqwreZqZZHJiv3Kw7REmi8gTJnDXpNvYNupe+s1fOcIRIHVRHdBtKdeOf2eRvzDffzGlAJOIY797OTFZVmHLB8Sga7tLR91cwXGbfsglv32MibvOAQaz+RSgnz35+dPdQgJHf3GIfZSE066Hj90EY1eg8xcG8sYPM3LnykFXWStblt6pJe748QpoeI32hc9S3LWAyeO1hTduPxg/XfdBTb0WjjJNsWRhN19Lb/+5SoCSeE0TC5PoCHqtcikxcaX5QLiLsB1NFeBMYO0JjKaBFT+EQCEpeYomMGbm4PFUNwfKvXrMjSJpL/RC7VFw/t1Q5dEW6HSIF72O46w7YcwKg67eCM5IjylP9vcpLWhRB3DE5hTpuKrMoWyWbpvXJWlRgO2mGDthGDMxq6NVH4c+pn5+Yv+MY85Z2fMXIDnBWoDwghoZxs5DhaiCJxofgFGrUzuiAxZ+OIbXAF8RlFSnCtAX/gpO+9rg3Nmyxfo7AdSgjVrHfBbMYhhzCQTcfCKBrmU0JKQJi2pvbx92T0ycnSwbpAF2DPZsUtArITYOmudjUYIhdaqDY0JRABZeAn5T91ug3lVikmVbYOKRepyppNzlmkaYPE33Zy0Jtv981jdvewnGpsXIt48GCc67GE6WjA+kEuM4DqWlpYfliUnHTmZY4BgxkKCsXhxb4Q3Ax34HZ96kGR1O+6srHASgZIwOCVIxvSle/CttPZBW6obXcAx8+u9QVAY42vpgDVDsiwJezp6/lPHFoxBeg959G2huG36XcFw/GLhYJkN4dV225r0h8Nj8ZNbVfOORl7lx9RaW+48nXhDPA5xwLVRPgfIKOPmTcMav9eSrnQ0TKgd7VY69CgoCUDwRgkXupCvXXeWvBJ/HFdyyQMarubnO++H2xCjl5t3lmMmGAT100dW3PmUmmQVQUg8Tp+lFNDgTSmrBa+qN3jDh7P/RHpU4wYMnCLWF8OXXYMJCGDMDRk3UbTB8sPgyLZwqyFtOFAKkFWeSsImOZG0KElbNrNYloZXk9vJW8KRWWRqUo+Z+SsBjJPLJQN8nYMFoX+L/C0rhwtvglI/oselFlzdSTp5dFpdClCRiR0euVlMSlINLmZ2+hZYPcBQvNe8k6o0x33s5v732Kv53zTiOP9OPAUyfpGtZDYRhQLWba1WNax3GfUcShAWLL4Q5c9Ee5/jwyHN8zTwBTvw81E/XEyakRtgTkwMO0G2G6QkMIB1VQNluCsuKaeiZySm/hKI5Ojy4FJh3KZz8bbCE7p9C9FwzgMpxMPMzCdKX+NCuKYJRY6BsfHaDUD9sgbAFfsuLZXi1EjNCfaW6yBrmJaUeC33Fm1Gl3cjOQsy20fjXL2T+jXfw0ft/Tu2iYhZ8QhtqFBCshJrp+nyrUM+vmYugwg2F8hbrtdsASup0P1YAUulxVdEAJTMy58QEg0F8vsTCb3gEprQIRWM4IxhPphwSIQAZYJZCy5YwTmtkkMQUZ6iWPm1sMoCJl4PH5S9XUo+lJWel8VTlISl6SvIwpqmkRkkLlJ2WdW4kkJcnJgC9Th+DLH3dQWac6Kd2Uvolp3omVE+Exd/Q46l+sqvQuAcXAUt/oPs1eQ4qN5Jk2cmw+GN5PkiSIj9QiSkvL8fjOVRTT3o4dm6DpLTAjik27duPaLU5bvUXuObpOzj9vq9ihnzEKc4FWp5c9mN93tzzoH4sYOseN9HySGk9lIzWxlOU7rdRjTDmJH2NZT/TkTHFQW2oqByTfYgeXTWfi+64j1N/cxvF//wUPX3REWcTTAcz7s0YWBn+/Yy4J8Y0zcNy8w2cOKYBnfVNOEUxatYt6A/krZucOGbKkVBRqxevS/4FgQK49+taMVl6Pjx8DRmZy8rHwZKPw6TlmUM3HBxsIiDCOCNQ6CtuAMjGiSC9EDEVj725EhZFmLPU5MhnS/EEYM099Id+uVFKIGDmGTq+N9wL8g8w7QRYtwq6O8Bo0DWuhIBxR+gY6fHHwP4tsONxmH8ubH0TCsrh8jtgzLLsi6Ihhfu75ikfborl+PqfD6NVO9uwq17Uq6YNxKBuus1VD9hMroeX7oL6SfD0t6EjrF3mnU1Qe4Q7TgRE98LJt0DoKqgeq699xT+1orl/KwRNbTEpY7BSmA1CCF3l3X1RsUxm0GFG1k1XgigcUMBNAH3lmOi4CcON7V18Gax7BGLvwDm/1qF0j30fPKNB9kLIA4EiYAuUj4KLb4YZp4G6AF7xQy9DtJgLoUMJlCRsx94dT0x/yGn6lnp8IHHoiTRBSDFpZgm10wRBL8y6BF64P6F7TRgLLV3gxImvFMRTe+JXjw/Tika4+A6dX/XJlXoTbN0KLXOhbIwbn58vgYTjATtOsXwovXD4cBydpN0dAqcTrZ3Eo0Js/e/Zo5dRKSuw3TbGcxCkoTfttSGoWQZbn9GnldbAVX+GxiNh++Op9xu1GM74CZTVDTZIpYVUKGL4vD5ihmdE89Miu12hLtPgd7+PyU6wHSq6zuSIh6+lsKmEK3/cyEOfH7zwBWugYTHsWqf7xgJO/Sm0rYdNT2rCg7KZ8N+b9fESrQz2kVizzvk/XYA3Hfr6+rAsK6XAtaEsQrHoyHpi0Mp81v3GgKYJ24hVNKUIDZ0hwYmftbn3IQhUwcV/gYObYdaZsPk/mgHQ0wHFwPRl8Op9WvAeqmkyR/S3VmKEAEOA8IPqfFet4rnC8QQkQo0kOsfW8TL1nu9SP2o53VbqeBtkzPLo0y7+PfzxrERkVdwYA4PfnwSO/hHUjM/jAZQAHGgbBREHR6R6XTo6OvD7/SlK9uFCxcgZfSBNCEWjrCtcjS9g8pkLTmDOmMlICX/7GGzbnSqjFFZrxcQbV8rdrb92Clz2V22QWXQR+HzaI1ofhI98HYwiWPkzCJbC9Atg7wa47t/aKJhNBjruE/DAJz2MmzqRcacczV+23sQb+7azaOyEzCcNE5RS/bV7PjiaSxKUUpSWlmKaZr9GG+/saK/Ou/C6Fox4fltyXGl3G7z2KIRJHUTSAGWGIAz14YmMniEHbVCFZeAvBjuSCKM6/gsw48PaEqPQG4jPAMsP878AsQ49IEtq4KKfZH82U1l4Y+UgbEai6q7jauDZao0IqUORwl4DhEKYAn9x6jGzz4ANDyTF9Ls1YnwFsPTSpOfxwBn/gN4unQMkBHzyXiitglW36Xb4gwlrwvSPDA7HGwgphS6h7Joh7CFSG+dCOi9dOhgGmJiIWOog8ZoweqqiyA8nfkZ/98x39fXqjgbjKah0F9eZx0BJFYxfkCoMBd0CQw3T4KtvQUExVC6Fojwsc8noP9RWI8d456J/tGbb0Aywy6B1o4R6tIDZ3EDDyydRY87EicHck2HruXDyNyHqhbd/C1POgGAxlBdDYBGIbnjtZb3Bmab+bewi1wIKnHgzPHitm3uVR6gaQPm2yZTuPR4Z3EPIibx7dMFZ4k08XjBQRCOt0K34SOOR+C1tXOmnM3dlmCOvgY1/h30BGFUGezZBxWzY/yx4TDBcYV6ihcnZ56be68TPwXHX6GuVNcCY2fk1f+Yt3+CF/TG6r4i+Z8mdhgmTPwWPXwOiT8HOOVhGJ9G6ndBaDsEOLq47ic0q2N/VYWDxt6BxKbRsB/sdOONx+MUc/ZtZBEXVqRu54VJOCQnVE8CfZ3KWsmywwlheA0OabqHX4e2DOGLotSmjDuOOl6jshKhD9YIgPzh7Gh5VSMN0eOTLiWOlodclw0zMI2m4eZ8CZp8NP2jVhofVD4O6GRovheBDUDADDjyYuNbkLHwKfr9/ANuoQCiLUCyGrRyyk9EfOtzo0exEN0IR9XaDofrzskASiXgYsxg+fr9mmqxtdK/pwOee1HuhcmDuNbD9X/rUFb+E9Q/D5qQC7P33TrLMGx6tk2Qr5RDHnBmFTN50Hnuf8DJ2UhVrq+951zyicQUr655kAVIXRqm6/yIqX1rMuq9+nzEdcxjbUMy2AgiUwrj5sHOLOz6TKIhNjzYWB8u0jhbphimfhtd+nbhvXA45FMioxRk/+xYduwxWXvLNQaRKJSUlw+6JUf0dl/kYw4QDoWY273kc/9jRTFtWwFg3GqGyALYLLdcKjz524Yeg6EUYNwseuQSM0fr9eCu1ETRQDIXlcGCzHpcBD1TOgIISOPF/YMxcaDsAe9fpdS2XHBavCThmIdSdDR2PbqLNsw8YeSUmGaZpmh8oLwzg1onpwGeW8sSNXmqnwJLLdKc/9AV4/W74wgbtFfjzxXoOXfmI1iz3rIeVt8DjvxoszJuWQqkevEzmay+XMm9M+vtbwdRwrAlz9R+4k9qAwhk6VOg818WXr1VTOIKKAxNR3UFiQyyeGIdSyWEqyT/oCvBWjvYImTBODEw+q2iEeR+FycfqjbK4InOs+gmfhdBe7clKFgSqx+hzTr0OOs7VQrzhA395bu8HgNFfJcoPUtEnu3Naq4aCePhRPon9oPSKK4FQAEQf/SaQ5Da7111yKUy+LfGcc8+BuVnuZZhuGCJw5X9cg1u+UZRKQl8RdJWDUYA9AgVUHQf6OrVHJK78ZYUA4QVPC4QcIDSKaQ99jaXHjuOK88FTqhfVj9+lx2igEHyjtaICcNV63XeP3QDGq3DiDXB8mzYslIxK3Ka0Wn8u+SV4XYNCLix6+jz8607jzuXXEI5F09cbGWYoxw3vyfT+DUDEaC99FUwbr0jliVJA1XyYdRHMOg/e2agTXK0+2LcNTrgetp8FY46DyFtAN5zwcZh76uB7SUOH7QEsSPN7Jpx0ci2Pravn7diWEfXE5BJUDA9EfSF6S7vwBZbz0Zu+y8sT/0CPv4+9Rz5Ag7+WLUmlDaLA8ddAWQ107AbvaFJYFQ2Tfir9sct0WNH0T8C/bx965o/sMxj71pGMqomyduIDbk7McK5aCcTI7omJy07xGjGOEWb0TEW5H/q6U4+tnA5X3KWp3h/4lt4S5p4NSy9MeI0L3OTsmMuGXDEOzn4TXvgLbHgYvHkoeqFQCNM0CQQC/W00MAjZUdQIhpOFXXdttnEVeRtsEQFD4X9rAZXbp1AYms7k8GKsI+tZOIA9TEi9p8XhL4DAaCgphqIqmHI8lI2DYtcrNW4+LL8WRk+ExeeD5yDMuVrnRU4+KvczzJ9azaOn38if/izZMu2frOe9rdc0EHY7UB0DZTF/xmyOLrqEv99bw1fvmMecE6CyEfraoe0deOZOqF4CcxdBhcvsdsJVMPdDUFWPNsKYMGU+vIZWbGqOcj3WbiL8UMv5GBYsrVxK76R2Xisd7PeLe2KGM7lf2bnlC9MDEStEn7+L8xZeSl1RqhvTWlVr8gAAIABJREFUCcEJX9HrfqBIX2/KYv3bgq+BvxqeXsmgzvAEoagUCscmwvDO/Jb+fHuljogZSv0nBEjHglAxRiQHC8UwQQjRr7d8sLSXJPj9QZrWGzz1OwjG4IWvw3nPQKwb9nbCT6dDlw2dnXrP+vlyOOoL8I9roatXxyQaaIN+HMobo3vKWo6atIjJYyoy5mZcdGvCUj4QcY9C8STo6UijSOSA6YGyEi/sFIOKE4Z7tUcjLqBlwv4tcOsJcN7fYPIREOmDLa9Cw3StxJhkDycTOkqLSGdk0G5duxCu/Kve7I/5ROL7dIL1uPnA/Az3EDD9Q/rfoW647j9QOzl7u+KQUiA8MSpCEwgFOwnTTW6ne27EBTDl/mlhx0lL8Rn3/tlEUJ4OClfNYeEDN7Pf9woNp/kxl1VA0nw++v9B5bNQOytVgRzK2PDmIYgnQ0Y8HPO7zxN74kKe/Og3ianhS04M9+nneOZPsOo3cPmdSZbaHAugLXoI1b4NAiZsvJBvnXolYxZIFn908LGnfUWPs7ig5HHn5LHXQePJMH4OeDOsmwqonwONC/J7ptNuFCxsh0cfMojE3p1wsqjdzUPB+9i2djtqAIUyAlRM8oer2whXvAm2QCmnf5SPngZj/DDncph2rD7+3Jv1ON75FjScDlXj9Dsxg66SUgkLv5wQoIYDCy+B2n/D5p0jKzxlK6gHcW+BA45NwRjJt1cV89bfruetf/Xx1k2XU32CznhVDoyeAtFRbjgiMP1kqH9Ge748wIqboaQBSkfr34+8XPfrgR2ZFc6ssCWL1l9LiW8/G8Y92N9PPR16LpVW57kW5FjmmrZDCzA52/ou4kqMG28XTrUyC/c+CvD4YfaZus9qy2HqVFhwfvo9qKLBJUtwPRsLzoUpx0Lx6NyPZVnWoLpvUlmEVGxEc9Pe+EsXf5p3Mze/9Bwi3cIloO8UL+HYBrBjlPcdx5H/vZ65DQXM/KKgMs8Se+OPhm+shYIKV3BUiT1z9AI4d56enys+r+8pJVR+I9+nEIydIfj6avjNerjn8dTctNYmiIahsj732hxHuBc2vwwNM7ShciB6u+DRGyG8w22B1GQCyWumiOdeNYOa04u3u5QVZ8/hkwuKOGXlOf0CdzyiZfXD+rNmFpx5Y8JwVVCm/+wYfPQW7VXo2AwTl8PcD8PRF+vw/g99W9NVRzrhqGvzr+kkDbj0j9DUpfj1g3LQGhYMBjCHzBCQHbEu2M1mnuzci98ZbAg2THg9KOjCC45Nic+DkbTwFB0D5hYomaCNfgOx4uuAgKevdD2pSfJZySi49hG9l/oHUL8tvQgWnJnYZ3NBAVgQ2D0Vs3mKS7s8fHCc3GP2A6fESAOadyluKC+lFR2N0ge0tMKbt0PTNrAV7GlLnGMDW96EA5dCF4n0st0lL/Kn0PM89WYUE4sXe9axec4DHGV9CStLtubYWZnb98n/wujJeiBEw0N3cRoeGDfeR+jNXfzyhjV8+wt1eCNeOg/Atjfh6f+BC38GU86B7lbN6GF54a0nINwDC8+Alm2w6x04uBN2WLD+Cfj716HGgM6KEFsan+cPzdvwdItBk0cKaO2VrB1Xh/C0DmqfEFrRAjf8Tun2DFXAToavAKYemf/xpvLR8Nwx1D+9nFc/dgOOsLXnSGmFKJ787i/Un+E+3Uctu+GvV8Gp34TJR+qNOdQD+9dCrBX+/Xvo2AYfvg7Wnv4oNxR/Hx6E/sKaKR2BLoz4P81Q0El523iWLZ1F+8Yjse4D68bUwycfqf/eTZgemD6rgrf/GcRvSzp7e4n0Qcc7elPY9Dg0LNWWwnCfu1nlsEo+8Vvt1XjrVoiYug/3vQE7XoS2jZoCOVuOgACUDIO3A2w47uMmH11mZPQuFVXov3y/j6N6HBx3bp4x0S5MD3gDAmkZvNMcZcMjMOc0vRnvX6u9k83rYeZZWnEKubWEHEcbQ1r3QeVY7RGOhHQoa7AkYdXa+IK2dM06Bf71Y1hwOjz3wnaeOvNH0FSP3ywcnJDrSIobdnPA6IBecFAoFAJB3WS4vjt1kY8bXhoX679oGM65ERqWwDvXQWFVnjkcQ4BAIPCBHcVxrfsH1kMkAnWz4MAWkB49bprXQdV0PedNS2/W4T79aXq08PTyX2DDCzDnKAjWakFo7JGwdts27p91C2tebEGSunZJCbvoZdXFe6DoHcoNi6LRgjOvNzjxugI6myZRMQYuuwvqpsG8k/V58WU+UJTwJn6vR/djcr/GDQ9F5bDwIzB5Sf4bPehCouMXmoxaamJJyZp1O2if3cdzNwfZ9CSceqXOq5x8fPowDsfRng4n5golBrz1L9j9Ihz/FV3PLNwDD1wDXSLMXv9OXu+MpJ3LB0Mx1szaxMHiFwGbKwrOp1Bobc7rh6POAHNCguUJ9Bg+6UY48X8ze/FnHgvXb9LCMug54s0QzTAQ0Wh0QAiUwFAmu7dG6OlU9O4ChA7DTR6/8QLL6SzHSuloiFhEj7HeDnjoB7DgNO1xlIWweVsLu1fcycmByZRZdYMEWIFkbXuUtwvW0heDcSvgy1eZTJ4lUvonF0xL50+lQzwcG/KP2BgIKTXDl8c0Edj9YZ2xCPz90/D2k/D1DZq6+eBeHVYkJRzYCmX1g8MiWzfBH0+D8++CRafDhmdhy4vaWOL0woan4JEboLC+iT9+9mpufW0t/nUF2uAnhDYECoEUkp7vh4BNTJv2Yc5fPB+fX4cMD8TME+BT90DjUenngGHCfNdDXNsIU1a4feeO8flJ3uMJi4bWf5YXfGELw/TTHu7FVg5P/sigqw96Yg4nf1rhq9My16bHYfyxOmcuH+zbBFufh5ISeOnfMGU2rLy3mVs/dSHPvRajxCoYlPclBXR0CTZ+ZgdYe/GYBjJpMp/2XTjqGijPYCCIj6Mr1uk92pMknwmZ8HINhL8wtfRHLlSM0+RWo6uD+KsVjhmmrbuXPft6qCsto7jMQBrakN7dBrte0Pl1tbOgdTesuQ9ee0Tny42erOesxwer7oDWdVqm/8STsP0Z2GsJjDQGyw+cEiMEdLcIumAQJ9XDNw7+Lg4H6Bjw3RtzbmV/5U7Mvnk4RgxfrJwjbvsVp1adTMA8tJ1+5vJDOi0FQYLYJR3cFfwUW6/7Lqf3XkHLBhPhgeYO+NNn4MMh+O8vYflFcOwX4blboXUNHFgHwSo9GFZ+A/b26gXcBvbY0HJgG/+97HO8uq+Uid7Rg00AAtpDNhvPfBXkO7BvBt6D1VCVtqkIAVUNh//MQ4EV9XP8n75HZGwvbwWUruehFAd3C247XQvS1TPhwl9CXxPcdRmMOx1aVsPGJ0Hug3UrIFANr/wFWvZCrAdCERAKbrkWNk94kxOvqucbi7U5bODmZkpo3mnwuy/t5L/nfZ5RC7u54vuK3u02W9YcxFdUhKY/eO9gmHD8V2H8MsFTL3ezVWziiV/ZPPU7KA4aNL0NF/0F+nbBmltg1mWw6e/wkTugZpzrmnct12374dHPwGvPwKRToXc7bNqbCBH/+/XQuVc/cdZYWgHKjKJMTafqDQ4hPG4IaJgHdXfmyRyV0jyB9Ju8+mgXNzzyGksnLUYIyTt7odSAroOaWe+Zz0FbWDNaOQoaToXVd8MV92hl8K6LIQRMPAKqZsH0k+DBC2FPC7zwG9i/Hd56BHbLTipLx/GrJTczpmBUqiAnQEUl37y8mT+e8FG6Jrw4iOwjl5XK8sKyT2kheMWPDlBQ4cVfmMGNfMgQCOVFiRC71zgExsGqu+HZP8CKb8Ird0F7kx4X7ftg9kLojMGy67SSd98XdQ7hrIvhrT/D9k3Q0werbwerQI/DqvHwVGQtG772JJfVXE6hUZBSx8c0BVvaFE8X/RyMMEFpIl2XRUFJwlo57egcTyIye/ZAewQvus3NCxlCyMXYufCZ++AdBD962OLRpj/ztUtOpvbVRcga+NuV4JsCF1fD7jdgwRlakTJM3W/P/R6euwVsByxTrz9Nu0Hsh9bNsPy7sP5JePM52O19mkerv8jPH+5I67qybYeW09tQhAGHWQv8/QqZNODUWxP/TumbPMJ06vIsxDsQUkpEkpAmAMOSvN3zCi+91sTj3w3hb26krtLkjFtg/Gx4+QHo3AV7HoCK42DOuVDv1mHe8ipseBT2vACxJhD1OqF51b3wxn3gRPTYahE2qqCIG+Z+h3nFM9MoMYLHXnL4zXc28NilF+ObEGXCQgi8t0t7RphCQkwR6dWutH1rYOuLOkLlvrNh2mfhX9+B034A9Y3wi9PhuC+D3QVIKKyEcUth3ZNoAb4N/vtDePQ30NEMT5Rq6mgnqmWKnQdbsIs3cePir3BsxdHEHO3d04ZEhcdQ3LvhID/fdxUs6tZ0dRng9cPiczP+PAhDmX/5wFJeDFnBw39qZum9MV75hUVTFCS11DcKXtwJG++DbZth4gxY/Fk9JxqXQFGlDn0GePk+2PkImNUgY7B5JWx6RefKdvfBGz5oCrdSU1nCTUdfz4KyGYNymISAVXcJfv77jbx48mWD+s0bgKo8DAQNGeqSDxeufAR8JbA9YhBUNv+5yeHuyNM8VvV1Tr3nL3zoo7PxV8LWR2HHFmjbAZ5CGD8adrdB2249jn5/vmZ8VEqzpT35G1AhvXy9ci/85waoulAy+bTB4+cDp8RkQ77BMjFCtJXt4cCMt/nWuKu5dvb5AOxeAzdshqLooSeJDQdMYQIWkeIDvGC+Qe3KCJ6kV9XVBQ9dDe3AX7+p/0CHQWz7li4OFQN2bKM/0CqOCJ2oQsX9R/yYo8qWpL3/tlVw5qpfsW7eTznjpf9lzPkTR+Q5DxUFxXDFQ1789X08s9bg7ps76Hi7lX2PVxAvCrzvTXjndYgq2LUeNr2ovXAKWL8OWnZCuBua01y/R0Ek3M244jqOLZ+bsR2tXfDMwSk8s28WxlTwBQVV8xTB+hgiy2L9bsLrh9qlCmNTjFue+SV3rHuD3hPeYcXv/0CFM5X7z9G5Ae3AG1/Ryn7B/0Hry9BxAMonQvkSePaH0IPuv6a10LE3YTBwcBVBQmyY+w++tfd1irvloDA8gRb477jgGaLR1dDnxbe/djgiAQdBiKErMLqNEhkJEmq8jYc/8wjRmx6gMqx3gjZ0COrdl8L2t/XzS3Tz33pTn///FkHACy0uK9i6lfH4fvrL13Zs1791tUGkso9ij49CGSRgDHZnOhJK91bi3V9C19hqgpHSforzoUBKKB9v4/U6w762CQRBj49Ib4Qff+d1YrEuJjWdwsF9Bdx5jX7mZP/Syv/oT9MH+zdr7znAmldTrxtGz1GA7WsgPD7MvIpxXDDxPMqswWbwV9fAc7+v4smrLsJvmimWy+FEroTXdDBMKK6Cgy0SlEXE18TD7b9kTscXmd43m0ivYO9q+N488Fmw+zlY9UdY9FE49nPwzJ9h62vpw+mevhteuxta0b+3B7Yxb+Z0bln+EzzCHCSYt+6W/GpBMbdcchSMfWPQ9Q7VG3A4cBxnUGK/YfiIlTzHl/71M7Yf9Qof+fndHNzVwJp5UIles+K1m9UzcP934WM/1wnK//wf2PSEHnc24Lzhln8Dety6xH1hsEttML14lMe96+AxUzNdUtE9DdkxGkaAMXQ44TVMhH8b3zz2Vb751QZWP+ijab9eg15YBfv2w94d8OQvtPB5YBf84zotOyn0OpVc6vGej+t5GM+mjDSl3q+vN4ySMKdkCnOLp6RdmXaP2cNv9pQwJGrN9wBSCIQqYVfX03zn0V9QUtlIw74VePDz50+krmFrXoU1l2j67Ci6Vs2sL2sWur+dnV6uiLgpzp0hCNNN0Gcw2ldFlbc8zdFQXwWj9k3G11z5nhGm5ELNVP0Z3G/gK2njp8//lFjDWijdyv3Tf0DzDTdREK1PGRfhMLzdkpAnAJp36f01Bqxdl3qPh2/Qn2vvFIxaLAd5XT+QFMuRToGNTS+teChGIInSjUJhEiBKB/vL19M0fiPK0wflOwGBuWcqsWAXkVEvsW/CagoKBDVGwo0gXc5tY3iJKA4dNoipT7Nxy8NMeftDeNzatTEGe5UgocR1up8DFRiAqC+M8im8RhZPk4TFL19I5ZoZXPm9WdTNPKynGHZIA6YfA21hgdhYxKrgTaw3N3EKN+FxE1H6gM3uZFAk+gR0P+0dkMA6EFHRi9/KvpsXVkH90V4W/fvrnDzOi18GAIVtv7f1MtIh5thQ2ErvEk0X9NL5n2faf76Keue4QRvPs79ObGpbd4N4KnUB3/FGemEqZLaxZubvmB6czURvI/YANjQdiy844vUzebK8C6M6wlQjvSL9XkEIgTQVlLRDTyG2SNSyibl/W95OHD9wa+lV0BtK/U5BRkqFmOglKC3MDHSBUoAlQVmKKvMEGovrD1kJGal6G0JAjcdHpLOTfy69mmjJfqb+6X+Zy6cwyLzOvPGvoSXIOzKK3/Bgigzz0gOFsfEQKcBrGO+tJSoDYkYYx2wH0UPLBbfzUqmf8of/Hx4SMRzhKDz9Ry0cPXsPrLxHC5KZEAUOJv1/iE5KfaXU+WrwyDSbWRS8ClAG3q1HE2geoytUvodQSqWsmQKQeMESbB97CxyY1K+MOcCBpOPisIH7P+sqvyTGVrYxFhO9WJYXU+S76b//xlQyhJLgC/PMJ65lxxP/YfzjV1HNAgQSB9i6Q/fHxucS/ZI8tgaqaD1kh00YPDG80pOxZ6z2Qswdk/B0+zHU+1fO9PogWBgkMvMV1i94BaurjPJvv4LF+IxjSPsyYR+w/yfwn59kjgZKRpRuvH6Bz8w87sbM0ZTcSTz871t4AxKf1yR2zN9BgnzpVFpqtvHMZedT88b5TH/5YvzoxFaHVAUmjly0Q91AX5ebG/lBplh2YoJ14U08fP1yKHsBts+DviBMWAWWgn0ToWo90uNHOm4ugxJJ7jiB3DmeBTf9mHnhs5g0TcIM/YvpFqnMMq7eFYwtqtHE89EO7PqtrPn0x3lz2xyW/OHLFKgGSuwpmDELw/FktcqqpH9FjQgRq5ueqoOoYIxAuuBCF0KCT5YyYdcyirqG9dGGFUJqGk6q9tA5egdOEptbroUk3aLkECPqCYFQRCp7sWSGGDoXphdO/x6c2L2Imcu0EmzbNh6PZ1CS6nsJhSIm7ARjgQ2dE19i5YJTWPXsecx6Yjm1sWUUhesQCML9dKYiQXKQcr0EbCLYVhShBKFgB9FCiwsaL+S46vTKSaQPovtg60qL0Jd+w5SjxPtqgRYIZNyFEzxAk+8VqkLz+kOTDgdxIUwAURnCMRz6PC34DR+myrzoeDyAhFETPJRUDJF6J+U6IzMuhRCUeoIozyaiBe0gYMPln2PD+geYeft5FDKKEqeR4nAjppv4mQ8zl8LGllG9fitFzOrVxSIzuAr6v1bgGxBD/n6BbYRR3rZ4Zj2hqn26LlgSFPSvZHHFOROUO0NFUin5vsp2LI/LBZ0GjrsUYMOSGfOZWJmDKeZdgGVZgwyphrRcdoE+lx988KqtBvy7Pc/7KWyiVojO4EZqgyYB9e6wKo00InYMHEWsqJWtJ9/GQX8PJ931O7xoz2U+il0uOOhCwBKDUHknKhAhYGSOr/NEiznlsVu58nKDMt/7V+QUQlAgPf2RAcqK4ogotkuII7H65a34vIsmVT/NZqzSvzu670yHVvNtAoVRisxgxuPLR0PdUhCxOAf/+289i8OwJJZXasHLgKI9jRx55895Yfmv2Pzhr7PhmFuZ+LsLKLXHUW+fhKksjKiJVBYKG4GBTKJRVzgue6JEYhA1QthE047bDx7FsgDpEcx67Tic5vPpKn0ZjyzE3LUQgUFYtmK+eiqVb55BYZuueGbgSaJLFQSpwUuRplhOck2ZblGl4U58HSomNJRAeVD7JN86hUUPXcH2Y+9k1Zc+DSKCiNVQsXUSFa2TsHqrwPGBtxWUBbYFbWOhdBeOrx3hSLBNdta/SOfoNSB7mRw4mTKVWUA3XN5xYUCaCJf3D5QAWyuqnrCJxKKPNmL04hDBwIPEQy8tCMBLEYLUkIVeWti39CnwHaTLs4ft01eBN4qnsJM6f/aiPkLApMUDmqQU0WgUx3n/uH9lzKCoawx4XtBJP1FY8v17CU9qY9eUu3j9y9/i9YhF3etLsJSfYHgsygxj7VrAqE2T8VGiLW4IDCwcYkTMbvYseYzWgpfZP2UbnrCPUFETheUllNiZhSKhTaz42oOEoxJhv3+UPdAhBTIuDfsjrDn/ASb99mwCVBIjQpg2wCFMJxZBBII+2jDx0VPUQqCzDA8F9NFKxNtDx6iDRMe8BUaYmKHptyUGu6qfp7O6C8xOPlJwnOvFSw/vtKTE5cPYxyKRCFJKlFIp+QeHCwH4DQ8UtPfXvKl4/iyKespY8+nfQOAAQtnUrjmJ0q6JCCWJGSE8XeXUvL4Cf7iUKL3sGbuV4rZCemp3Exm9gT6jheaKTVh9XlRE0TJvI8sLLsMifTyXkODpCxBoKcfrEcOieA43hDIhFkhIkTJRj0iH3UUJ0eqSJRh4KMLAQqGI0kOMPhyi9MlWDkx/i3DNGmwRwhupBtvCtjrZO+deqgOfRGbgSXXsREL82Bk2xTXvvdc4FosNGJMi1UAnY6gspimFwiHW35MSkyhdmASwCRGjjz6zlT2L/g2+dnrNFnY2vki0eBcneM6hyMgjT8wgPYPA+wi9KpRIc41CqHIzbzf+G9syoWw3HJiAN+yjoqmOkshYdzzFiNCFQGKiKyXaRNg/6XnCRb142qoI178BpqYV6fTsoMdopiBaxcHaNTglZRSL9CFRcVh48b9P84gSEPjja4sC2wrx2hnfRoVjSGVQGpuIobzgQMzoQwkH0w4gYgHKXl1CSfdYDHz9ygpAjD6i9LF/yfOEC7fQbm2nY3QroYq1HGufgV9kVmIAjrmqiOd+eR3VLzQgphjwPh1+EomhEsKibSgKqeNDT/4fTa9cyM4j7mXrxx9gS8UOXokUgPJRtqme0p4x9MmDBGIVBGLVaGYhRcToos9owXKC+Oxydja8RFfzZk4qvA4c+cGmWBZSMaZ1IuWPXKYLv3KFa4XSb1drdTLJMpU/iqrh9F/D+Ay0wO8WhFSJAnh9BdS3HMu4+07B/meIVrmBtdMfpKughw0TX4XJT4NPkKj6KcAxIRSD3fNh1DpAUfbsOZz8j/vpZDsXfuZoKs4tzXj/qolQWwlbWsHIs5jbewKhwNDKQqRuM/9Z8iO6jv07qmK/3qUdAWGB8mg+beEk82kDCJSMEfP36fipTUcy+7dfIGJ2M3p0Aaee/ZEhN0lKSSAQeF95Yjwek8a6Caxpktqi2TqZEsZTsnk8EzefTvTxPnbJx1m97EmUvxdn4iPg74LTfsramEf3W3/h1f/f3plHN3meif73LZKsxbJk2ZY32RiDbcyOMSFAIAQINdCEtGlCSprmJp2kaabpzbQz7fQ297Sd0za9mZ5J5/TmZM40C2nSkCG0JBeyNBkWU8xmUoctZjGLCTbG+yJbsqTvu398ksHsEBvL8P7OcWLL0uf3fXne5XneZ4lZojTCQRvmLXeRsu0OQqYQOUeymKkuJGvZiIu2RVKM9KzjWpYT+fexOEsLL5o0YiiQOEuJiQAp+1g379eknPJyesIO9Ikfg6KjS1qfPOmyYTHS5QhSREbSje91SUdTI+hK0AjOqrkFup0g6ViPjSftiJVIJMQMzwPYbReXF1MK0Vp/X+ywabfbMZlMA6rAgLHkWE3qmQ1WhszK+xl3bClT/7sX5DBNpj3snP4Gn097DZKOQ2MBpNSifu3nSJqR1jRs7kWOyOhyGN2vQvU8MvdOI2wK43f6ueW9Mr525/KLut4B2AIe3J9PRUoIx+WGb6vNwbxjKeREY1HkCEHaqWMbVXf+N7qjjUjpn0GTkEIKlqolJB0dg9/Vin/iB+hpx8GkoysRwuZeOFYMTZngewuSG0CX8a76DjPHPow85cKVEvsnARt6BQYgISHh/DWzn04TRruAnbuHVo6znpNT99I05lOjqCIRJL8HPW8r1I+F1Br09Fp0OULY4jdiMw7MoODPyxndupBZi3JxLL+05VJCInflHIpLC/tuE+ORpF7XmX0uDIG8KqqefAhdBuQQRAzvDcWvIp+YDJ4j6NYudFM0Vi6W5l2CsLkHXdGQNAW93QEtWaCEUA9Ox9FWwDF3G+5Pb+Mp5zLSll5hPuO4RqdXC/V5LOimEPUFu7D9bSGaHKbOux+y9kH2YTg6CZqzIPtvkFKPcpfVqJUSlKKW8Kg6LRkRRmFVh7/NxnWsAMf+UUze/T1m33onpiX2S+b/ufUBM79MvQ9XhkQ83zXImooScvddGBliZIxBemcp3o9KmLyxh6DaQrX8Ng1TTxCWI5xUImhyGr25n0Hhi8bDAlY4MRX5+Fj0xDb05M+wnxhHymY38mzzeWtWHA/LhZEA1XrGRiNjMmSGmB//hbsUe3+s+6MnGmlY3WelPTRZ4M4nBqPVXxxVs6AGLGQwnYyd0wEIbwjRTR0RQkhR15+YPU8hASupBGgBJGykomAijSkUjeaiNXDAuIVRZJAtYHYOft+uHb3PLUP3HqL19rfJ3n0npmNTcXRb8edWE04/hGvXbMwtaTSOPobuqQX7KUPB0SykblmEt2E8Mip2slCjlhiPC+zXcJmiaRp+vx+LxTLgVX6vFVnVcedrcBJjxp8ajSXqn6pgQQlYKOA+Ct6/Dw2dMAF0QnRSS4PvIC0TKnD+bQZBRw+6tRtZCRCyByjefC9JjOhnMc3yQMIlbu9UE9z3b5CuJnK8/jaS48w6J0sySuz6MQK4P0cat5GAz05KOAnLpseQ2jNwH8ujdVIFmqaTsXk+sl/GipOaW7eD2U/2X6dji7ii1k0bMipW0lAwZEI5a51Kv0xYUHKRjGtrEemnslAi1y5TXV1dWK1W7PZLW/+uFkkCm9kcNaCcUXbxh5zSAAAa20lEQVQlVCy9RnuzAreR+dFtBD5qIUw3Zpz00Eyz8zD1hUdwNCSTeaIQTQ+jYMJKClZSUM66dUl2g+cS/hp2F5iRkHptWDVbXN7E2Bwyd+9azr/a3wDLIUL5G1n7zCwI2Uip84EM9vVPIVs60B2NBBJPEZ54CquukthUhNw4FjqyyF63kCSysZOBipVeOuilCwmJJHzYb71435PSYEQpYI8PBQagp6cHk8nUV+wS6K/EKEb6bh3wKyfZP+VlDt32DlpCAygKzhYv3jYfcsQoBqtZupA/n4wm9yI3FCMdn0Hip3eQUzMBBTM2vJii8ZOuxCtL1jA9+E9M2Q7qowPZ84FDArx6MorsJcRRo37H7hKmvPwr7JE0TNiIECRCiOO3rCcwaidSSzYEk3DumoU/KYSWWYOuhLCcziR3121YcNCLHxtpmHAAOmac/f5psgMg/+wS7Yq/aXhBNF2nNygZ2VRkDSlkZdLrzzP25GIkJDR0emkjQAtWjPEM0k6QNrppoj3tGE23fQRhM1LdBEAjY28+CT1OrCTjZAQqZ9Zve/jyY6OaYEpZ/A+ghISkK1F3dYncfYX94iElZMwhO+aQnVKehk39Px8iSE800k1GxYIHExZ0w/ETBTMNbEMJfDb8lRgkUK3917dEF9z1E1jzAyMDVewSIxL9vxkYuwDaT8GRPTCqBB78PWSPubZMM9eNy7hBqphwcuk8eyYMC4kZYzxiY3IpZMW4Nbe5ITm+EpNdGAloy+LWF15kRPusM76VR/snviqMRr/q53z0os+8hrUjdhMTly6asf4oF69GLyNhxgpYsTCOlBPj4MRXrvjxviVnClNejKQUWPySUUfFMrDn6S+MSVZw2Z1GZ0zAgRnMfullnD1pqCSgcpaGVnf+TV3G1qssUHAF3PlDM7vv+RmpVSqOL1A12mazDY5iLYHVokZLZodAAqVXOW/6SICVZCAZMNw7XR155O+8sj+j65yXEf5s8ibBiKkmJlQ+zvg/m1FuiQ8jwtl4cuHJVzP5182J0AVyt42JK35FetdtOFoMlxwLSX2GASNhDcgoyFi4mJOcFQ9WjM9H7ToXb0O2UY/jJ2u1Pt/+ocZqtSKfkzO3Xz/lMKBTk76Bvfc/QScWst+7g+yu6bh6JmPtdGHrdUfdhSV0wkgoaISRUeEi4yYB9susVzF8wLwfDb27+UWRIDs1Befncwh4j4IFTL3JpEcm98lGjLTtk2C7sTv2jcsJYO81/N3LGPtS8iDZYdSmuVoGIXHlRTErKl9d9wTlyhbCkz9EDss4m5L7RkhGIgE3CZwRGCvJWEnGxUgyT09DX33fFbe34NZLp3MfTkhRoxUAEZXkjnzkq7gKN2HBxPm1OoynGuu4TviCwhCHJ61Lo+vgSAO1UMPfIdF6SmLMHXDbt2H3f8CeQzDvYZj+BLy4BCzp8N3VRhG6E/uNglejp11dobLrjdxrwX0sh1C9H7V+RD9r5LWgAr5xoLXDsRNX8PejNRBkeXBqeAwUUkTB0ZqK3ObFUTOLjPbx/YLD4MILoHTO9zrg9UBXGwQjZxS9a7EgaZpGZ2dnXN3EoEuYgg4STmSj20IElVjI/tXjwMj8FgGSXZCZB7XHjEJWJmDMpCvL3y/LRsHDeMNkhlJ/AWsO5dE9qgHXJwtw9+Rg4uqCw849SJ57ExxDNUFS6qWf5c6EH76XhGruX7Tsauns7MRms+FwDPzAG0qMCbQQjgMLGV03Azl6cLyW6LCYg3Ds8woYUbOXeJhqgswSibyjheSGjFoq8YYkQ2qWmaQ2H+2BE3i2fpOC2nsxc+F/E9M5r58rR9IFvs8ogrHfvPQ8TEyFW9c8hXdSHvIMlS+4xXxh/H4/JpOp/y2hrEPYUEpA43DRWg7dtYKUIyXMf/s5HFyk0h8gRTukcOE12JwAJpNRef5ymKKxsvNfhaxBrrvxRSnMTuO53hf5JjuBfRBJuKBrvRT9r4nzA9IljDND6KzXTBj159pPGz+frVzosVSWF2HsIviXumszWF3POwhZge+8nML7H+ax9rMEUEBxy3Dq8p+NcTXttSUNfK2bIUOXkHVT3wDExsGMIVsxU8nlDCxglAjp5vz9MzFNNzyIznnAsEuxrEUgoxAWfttPsNFC1QdmppQZGu1X/ggnFkPuAkNRufWbcHSrUZ1cNUHexKFu/ZVhx8kjv3iRzq4wifYkerDhx9jIXUATFxYElWidD4yDpoKx+E69z1isp/wYXv365bV/STJSu0pSfMcxmkJ2bn/5GTKqH8EVyCVMMgrnZwiJ1fI4d8zMGPUGGhSY9xQodsOV7i+/ufKaQ+ciSRIOhyOu5pOkK0xY/yB3/d8lWGc183nCaewkoWGMzZUcMlUMxSU3BWqbIGSGxb+A2Q/D7v8Hr38Xsmwwat5g9uQ6IME9zoXsUn7OBm0Fc//2PWSs51kELzT/bBgpNyNAEsZCHJOjjHzoqjF+l1kCkgk694ElBabde/lmOa/Binkudrsdyxe4ybkUCRYVVAWaZR6edQ/5+9M5tgFsOVBfa8iYCeNgZMMYByNVhPElR38XM0G402Hh0+BwwFtPwogZ0H0aEi+TCvgr/wIzH4SMsUb2wHjEalb53vZ/Z+vmOlJPjUU5S1GRMWSnizOHyLPXL6sTMqxQ22CM24gSqNsF4+41PBS2/gHmfR9GTLp8O6aXP8xo79DUhTkXq9XaLyZGRmJkw2Ry/+tbHF9UDu5qDi1/joJ1T/FIyj9wAMdlU7KejQljDXOlgRqBW74PBVPg040w7s5LfzZvItz7f2DMZQqlxgMWB3z9eQs//9E8aszHkHQTsRQJF1uzzk55q2PMwQXfhZYW2PeGsZ8u/SnkzoC/PA+uLNjxJqRlgMUNnpxL304p6tVVgR9STDB6w4OMP+CjeskvcRfLyKeMcTFhjEVGkVFe4WD5hffO2Pt0wAqMnAnBFkgtNQrTpo031qbxd8fH3BsI7IqNKafv4fjbGqfu/pC023WU92H+4/DpW9DRBr0myBwBx6MlClKTweqD49Eaa2YM2Rt1q3FuT50KxyshWYWi5ZA4W6NH1tG0YZ5iGcBkkgjqDXjHerl3+hlLizsLfIVGgD7A0l8Ylarj9vr3ItgS4ReNGciyYQVqOAb+NohEDFecTf8Jte/D6WPQo8O0h41F4sB/wZHj8NgaKJoNO16D3X+Gr78EarTyc2YxZF6Bi1jBMrC/Dfbza8rFDbZEiX/6YyYmSyYrHoGWnfDwR7DuIaiqhnAYFMXYtPw9xmLae5Z5SZFh3MPg/QjG3w9ZhYa8fLYG6luMYnxXi6ZptLW1YbFYBu3AeLUoCnzjf2bz9SezMZmMNMer/tmQDa8CDQGjknCu04hLXPwfcPgVOLgd0GHkfChcAh/9FJa8btwGuNMhJRrLOeEueDQVcsYZh4ThTu7t8J3IPYx8dh6tVhd5hXD4MCTKoEpgU6C226gHYzGBzw7Zd8DYh+C1peC2w5TvQ3MNfLoWChJh0g/BlAw9DXD748bmFY7K4vVyae3o6Oi7iRno4P7kminc+fercJjzue1/5/KVD4w+vvc8vPcM9PRAzkg43QrL/g16/LDySXBbQE+ADDecbgHJC/OeNm4KSpZE528WFEyHRPflb4adqcZXPCOb4Cev5xDpzeH1b8Hed435ZzWDNQLf3QuvPgxHthuHpLL/BZEArP8deEfC371lKCxtDeAdYRibHG5o+Aw6t0LBjCtrx48OGHtjPBiq/H4/ZrO575ZQUSUWnJ6HdnweR54/zDv3P4zs6OCOXY/xPw45qF4GO38I7T1gCsPRDuPgKEngdkCSCTrD4JKgpd1wGfv+XnCfpQRLEhQtvHzb7Mmw8B8Hp9+DgWqBn/X8lt935XMgcBJPksroQti7AzxO8E6GveVG/50OKPo6pE+CzzdBzVo41QUT7ofimfDBrVDxHJQ8BGl5ULwAwr1wx9OQmm1kdJWkoS9LMZD8w6MzWbRrGq/+/YNMHZdBs6uWBz7wkJpp5zfjjbjp278Ln34Af34EHBYMa5UHSp42zhErFkObDikF8MjrhifQjYzdpvLb79zLve6l/O7JKmZ+bQz7AM9kWFoGR9bD7tVQ8g3oeB6KZ8OkB6HodnhpOezbBH/3Gky521jXOpohWA87/wjL/tO4Od24UefIkfP/thQKhfR4shpfjmPHjrFx40buvvturFYrCQlx7Bd2HQhGD+eqCU7shU9Xwcxvn1msdS0+NqnBRNehvdFYSB0u6A0YP7fXGxtQ52njoJAxEvbvgNM1xqafPxWmfQNSfP2f1/Q5hAJG4oertZREIhFaW1tJTEyMGyXmQoRDxhjZXUZ18N0fwuynjUON02P0u6cLAl3g8gI6hHqjachvcHmKEYlA3UFwpUNbvWEFV1Qju9pn78KK+2Ha0/ClfwabE4LdsPlZGLXUqBquRaC7wzAwxEPsXXNzMyaTCadz4LN1dLXBvpXgGgu+icZ4ALTWw4k9sPopKH0IJn8VkrOgoxHe/xVMWAiZkyElG9oa4eRWKFoMlnhO7T6AhENwdD1UrQPfdPCfhFsfh21/gMjn0KPB1G8Z8QSHN0H6hOi6dKE5qBtGmOFo3W1vb0dRlH6ujppm9PPgzhCvHH8TqyWZ+S1fYur9aj938JMH4blC4+Zq5EJDSc4sMmRPVuDN+yGowbffh4Q4i8EbTLb+Fto7Ydqjxtq05Xdw+9OgBeH5heB1wrI1xtyLlcY6fQgq/wDTvwPJ6cZe2tkCyRnDJ0B/IPC3Q81fYdRt0O6vx+VyYbVaaTttrG3mBONsFQ4bBmI9elUvy8b3HU3G3I6EjPEdjnPyWgh2w74PQEqANf8IS34JpXdDKGh4A5nMxrkj1XdG8a07AHtXwrRvR88aF6G8vJzDhw/zwAMPYLWe2SCGnRJz9OhRXnzxRUaNGoXT6bzplZhzkRVjcsVZwfghRZKMcdHChkIXCgCSsRD1FX4bQBobG3G5XJjN5n5VqOOVmNugkJuro6cFzIlnbgfieRxlWaaxsRFVVXG5XIMil0Yl5Qu8DvR0GDebsY2rz1U1evCOvQbxN3aDjSQb7ruaHk3wFokqKVI0GiQO5WkgURSlT8FOTEw8r8aW4d5spOFG188kwIui69BRZ+SVsCSC+Rx36d5uY04mJN7Y43guUrQurq4ZKW8VGSKa8VprnYSiGHEG/T4TPYjf6DJ3pciyTG1tLR6PB5vNNiz286Emto73dBhxUJczokvSmViZiw2vyWSisrISj8fDo48+2u/cP3y0lyipqanMmjWLl156iRkzZuDz+YRgCa6K2CQLXGvgyyUIhUJUVFQwceJEvF5vXBW9vBRXEnAn6I+UEJWhQZCjgUaWZbZv305SUhKTJl1BwMQAI6kQDBlf1/4QhJDegKiqyqefforD4aC4uPia1kxTNGFUSIeQv//vYgV2u7q+eFsHnqERanPUTdzvv/T7bnZkWeajjz5i+vTp5ObmirPmVSAp0N0zcM/Lyclh6tSp5yVMGnZKjMPh4Mtf/jLbtm2jrKyM8ePHD3WTblyuZ37DG4T29nY6OztZuHAho0ePHurmCAR9dHR0kJmZyaJFi85LZysQDCWyLOPxeJg7dy4gth5B/FBVVcXChQuZPHnyUDdFcAGGnRITY8aMGXg8A5CyR3BxxC5y1ZjNZiZOnIjL5RrqpggE/Rg3bhxJSUkDHtQvEHxRRo0a1S+9spBQQbwwa9YsUlPjPFvITcywi4mJoWkakiSJDVkQdwjZFMQjMVcIIZeCeEPIpiBeEft5fCPV1dXpkiSRnp4+1G25YmI5omVZFm4RguvOheQvlrM8VutA0zQ0TUNRlL7F79z3CAQDydm582NydyFZPVc2xXoqGGxiMiZJUt/6d+56eKl1VZZlcYgUDCox2ZMk6apkU+zn159gMEhraysAyrPPPvvTwUi5OViEw2G2bNnC22+/TW1tLSNGjIjrVLaCG4+dO3fy6quvoigKPp+PAwcO8NZbb1FZWUlmZiYmk4l33nmHDz74gM7OTnw+H4cPH2blypVUVVWRkZExKGluBTc3e/bsYc2aNezYsQOLxYLX62X79u2sWrWKQ4cOkZOTQzgc5u233+Yvf/kLiqKQlZXFrl27WL16Nfv37ycnJweb7TLVcAWCq2Tfvn288847bNmyhYSEBEKhEG+++SYVFRUkJSWRlJTEhg0bePfdd6mrq2PkyJE0NjaycuVKKioqSExMJC3tBihCJYhLGhoa+P3vf4/H48Hv97Ny5Ur++te/kpKSQnJyMu+99x7vvvsuTU1N5ObmUl9fz1tvvcXmzZtJS0vD7XYLJfs6oqoqDocDh8PBsDO7NTY28uGHH3LPPffQ0NDA5s2bh7pJgutIPOQGGTlyJE6nk+rqarq7u3nhhRcYXVCA3W5n9erVrF+/nl27dlFWVsYbb7zB3r17eeWVVyguLsZut/PGG2/QFZ+pcm4i4kGSBhav18tXv/pV5s6dy7p16wgEAqxdu5alS5cSDAbZtm0b5eXlBAIBHnzwQT788ENaW1t59913WbRoET09Paxfv36ouyG4AfH5fCxbtoxx48axcuVKXnvtNex2O2PHju1bIzds2MDixYvZs2cPVVVVvPfee7hcLqZOncqqVav6LK8CwUDi9/tZvXo1n3zyCV1dXbz++uvk5eUxadIk1q1bx4EDB9i2bRvLly9ny5YtHDhwgJdeegmfz8fIkSNZtWoV3d3dQ92Nm5Zhp8R0d3fjdDrJz88nLy+Puro6wuHwUDdLcJ2IB1tHSkpK301Kc3Mzuq4zetQoJkyYQFNTE9XV1UyYMIHi4mIyMjLYs2cPiqIwcuRIiouLOX36NH6R23KIiQdJGli8Xi9paWnU1dWRkpJCa2srNpsNn89HcXExp06d4uDBg+Tk5ODxeHA4HOzatYuEhATS0tIoKSmhqalpqLshuAFJSkpiz549vPPOO+Tm5tLb28v48ePJz8+nu7ub/fv3k52d3bev19bW0tzcTFFREdnZ2QSDQVpaWoa6G4IbDE3TWL9+Pfn5+ZSUlNDZ2UlTUxNjxoyhtLSUYDDIli1byMrKIjk5mYKCAqqrq+ns7CQvL4/bb7+djo4OenuHQZ79G5RhF9Ef8+GO+XWLKzzBUCFJErIso+t6P59vWZbRNK1PTmOJMzRN63uPkFvBYPDxxx+zadMmHnvsMRRF6QuY1jQNWZZRFKVPNsEoIhaT33A4LORSMGgUFxdz1113sX79+r5DX6wmzNlyeXa8ViQSEUH/gkEjGAyydu1aQqEQBw4c4PDhwwSDwb5zpq7rqKpKMBgE6Lefn71mCtkcOoadEpOYmEggEKC8vJzq6mpmz57NcMyuJhi+NDc3U19fTyAQQNM0PB4PFRUVnDp1iry8PEaPHs2f/vQn3G437e3tlJaWUltbS0VFBS0tLRQUFIiYGMGAs337dl577TUeeughVFXF6XSiaRpbtmyhsrKS0tJSFEVh586dWK1Went7mTZtGhUVFXzyySds375d1EIQDAp79+5F0zQ6OzuRZZmcnBw2btyIx+MhPT2dKVOmsGLFCjZt2kRNTQ33338/kUiEiooKvF4vHo9HxMQIBhyLxcKzzz6Loig8//zzzJkzh/3797Np0yZ0Xcfj8TB//nxeeOEFduzYwcGDB3n88cepq6ujsrKS7u5usrKyRFz2EKL8+Mc//ikwbLLSWK1WMjMzOXLkCMXFxUybNk0oMYLryokTJ+js7MTpdOJ2u5k3bx5NTU14vV4WLFhAfn4+brebpqYmlixZQmFhIUVFRTQ3N5OamkpZWRkOh2OouyG4wWhsbMRmsxEOhwmHw+Tm5pKbm0tNTQ35+fnccsstZGdnE4lEaGhoYMGCBXi9Xnw+H0ePHmXUqFHMnDnzvIrIAsEX5fTp0xw8eBCTycTixYu55ZZbCAQCqKrKokWL8Pl8ZGRkcOLECUpLS5k4cSK5ubl0d3ej6zplZWWiLpxgwJEkCavVisViweVykZOTw6RJk2hqakJRFO68804yMjJITk7m+PHjzJ49m6KiIoqLi2lpacFqtVJWVobT6RS3MdeRmOeLpmlIPT09uqqqQhEQCAQCgUAgEAgEccvZ5QSGbbFLgUAgEAgEAoFAcHMyPHzIBAKBQCAQCAQCgSCKUGIEAoFAcF0Jh8PU1dVx/Phxurq6+jJQXSuVlZU0NzcPUOsEAoFAMBwQfmQCgUBw3dG5EWvVXAm9vb2sXr2aqqoqzGYzJSUllJWVYTabrzk4dt26ddx9990i+FsgEAhuIoQSIxAIBNedm1OBAWhtbaWyspIlS5ZQUlKC3W5n8+bNrFmzBrPZzOOPP057ezsrVqxAVVXsdjtpaWns27ePxx57jFAoxCuvvIKiKGRnZ/PUU08hSRKqqrJt2zZWr15NT08PDz30EMFgkJUrV2I2m3niiScoKCgY6u4LBAKBYIAYdimWBQKBQDB8sVgsmM1mysvL2bBhAyaTifT0dCKRCJ999hmyLJOSksLJkyf5wQ9+wMcff8zcuXPJy8vj2LFj2Gw2GhoaeOaZZ6iqqiIxMZGjR4+SnZ3Nq6++isvlwmw2c/DgQZqamgBYtmwZo0aNElk4BQKBYJhzdorlQVzRb153CYFAIBBcGFVVmTNnDnPnzqWqqorf/OY3OBwO5s+fT2lpKcFgEF3XSUtLw263k56eTnJyMrIsc+rUKXRdJyUlBbvdjt1uJxAIIMsyfr8fSZKYM2cOqamppKSkkJaWRnl5Ob/+9a9Zvnw5S5YsEQY7gUAguEFQB69GjFBgBAKBQNCf7u5u1q1bR3NzM21tbUyePJlAINAX6F9YWIgsyyiKApzxEpAkCVmWkSSJXbt28fLLL1NfX8+9995LeXk5Xq+XmTNnUllZidvtZsyYMVRXV1NTU4PP58NisaBpmlBiBAKBYBgTcx8GUSdGIBAIBNcRXdfp7u7G7/cjyzJJSUmEw2E6OjqwWCwkJCSgqiqhUIiEhAR6enowm83ouo6maWzdupX9+/ezbNkyzGYzDocDv9+PxWIBoL29nXA4TFJSUt/PZrMZp9PZpxgJBJfnBvUmuUG7Jbg5EUqMQCAQCIYNu3fvpq6uji996UtD3RSBQCAQDCFCiREIBALBsEHTNHRdF7cqAoFAcJMjtBeBQHBTIrwqhicipkUgEAgEAP8fFn25zS5+LyMAAAAASUVORK5CYII=;" vertex="1" parent="1">
          <mxGeometry x="50" y="590" width="231.55" height="70" as="geometry" />
        </mxCell>
        <mxCell id="FFLHVGz7DOYZqucH-CmQ-35" value="TAP" style="rounded=0;whiteSpace=wrap;html=1;" vertex="1" parent="1">
          <mxGeometry x="360" y="590" width="120" height="20" as="geometry" />
        </mxCell>
        <mxCell id="FFLHVGz7DOYZqucH-CmQ-36" value="NO TAP" style="rounded=0;whiteSpace=wrap;html=1;" vertex="1" parent="1">
          <mxGeometry x="360" y="620" width="120" height="20" as="geometry" />
        </mxCell>
      </root>
    </mxGraphModel>
  </diagram>
</mxfile>
